# MagicaVoxel @ ephtracy

# material
mtllib people1.mtl
usemtl palette

# normals
vn -1 0 0
vn 1 0 0
vn 0 0 1
vn 0 0 -1
vn 0 -1 0
vn 0 1 0

# texcoords
vt 0.353516 0.5
vt 0.357422 0.5
vt 0.361328 0.5
vt 0.365234 0.5

# verts
v -1.5 2 1.5
v -1.5 2 -1.5
v -1.5 4 1.5
v -1.5 4 -1.5
v -1.5 6 1.5
v -1.5 6 -1.5
v -1.5 9 1.5
v -1.5 9 -1.5
v -0.5 0 1.5
v -0.5 0 0.5
v -0.5 0 -0.5
v -0.5 0 -1.5
v -0.5 1 1.5
v -0.5 1 0.5
v -0.5 1 -0.5
v -0.5 1 -1.5
v -0.5 2 1.5
v -0.5 2 0.5
v -0.5 2 -0.5
v -0.5 2 -1.5
v -0.5 3 2.5
v -0.5 3 1.5
v -0.5 3 -1.5
v -0.5 3 -2.5
v -0.5 4 2.5
v -0.5 4 1.5
v -0.5 4 -1.5
v -0.5 4 -2.5
v -0.5 6 2.5
v -0.5 6 1.5
v -0.5 6 -1.5
v -0.5 6 -2.5
v 0.5 0 1.5
v 0.5 0 0.5
v 0.5 0 -0.5
v 0.5 0 -1.5
v 0.5 1 1.5
v 0.5 1 0.5
v 0.5 1 -0.5
v 0.5 1 -1.5
v 0.5 2 1.5
v 0.5 2 0.5
v 0.5 2 -0.5
v 0.5 2 -1.5
v 0.5 3 2.5
v 0.5 3 1.5
v 0.5 3 -1.5
v 0.5 3 -2.5
v 0.5 4 2.5
v 0.5 4 1.5
v 0.5 4 -1.5
v 0.5 4 -2.5
v 0.5 6 2.5
v 0.5 6 1.5
v 0.5 6 -1.5
v 0.5 6 -2.5
v 1.5 2 1.5
v 1.5 2 -1.5
v 1.5 4 1.5
v 1.5 4 -1.5
v 1.5 6 1.5
v 1.5 6 -1.5
v 1.5 9 1.5
v 1.5 9 -1.5
v -0.5 3 2.5
v -0.5 4 2.5
v -0.5 6 2.5
v 0.5 3 2.5
v 0.5 4 2.5
v 0.5 6 2.5
v -1.5 2 1.5
v -1.5 4 1.5
v -1.5 6 1.5
v -1.5 9 1.5
v -0.5 0 1.5
v -0.5 1 1.5
v -0.5 2 1.5
v -0.5 3 1.5
v -0.5 4 1.5
v -0.5 6 1.5
v 0.5 0 1.5
v 0.5 1 1.5
v 0.5 2 1.5
v 0.5 3 1.5
v 0.5 4 1.5
v 0.5 6 1.5
v 1.5 2 1.5
v 1.5 4 1.5
v 1.5 6 1.5
v 1.5 9 1.5
v -0.5 0 -0.5
v -0.5 1 -0.5
v -0.5 2 -0.5
v 0.5 0 -0.5
v 0.5 1 -0.5
v 0.5 2 -0.5
v -0.5 0 0.5
v -0.5 1 0.5
v -0.5 2 0.5
v 0.5 0 0.5
v 0.5 1 0.5
v 0.5 2 0.5
v -1.5 2 -1.5
v -1.5 4 -1.5
v -1.5 6 -1.5
v -1.5 9 -1.5
v -0.5 0 -1.5
v -0.5 1 -1.5
v -0.5 2 -1.5
v -0.5 3 -1.5
v -0.5 4 -1.5
v -0.5 6 -1.5
v 0.5 0 -1.5
v 0.5 1 -1.5
v 0.5 2 -1.5
v 0.5 3 -1.5
v 0.5 4 -1.5
v 0.5 6 -1.5
v 1.5 2 -1.5
v 1.5 4 -1.5
v 1.5 6 -1.5
v 1.5 9 -1.5
v -0.5 3 -2.5
v -0.5 4 -2.5
v -0.5 6 -2.5
v 0.5 3 -2.5
v 0.5 4 -2.5
v 0.5 6 -2.5
v -0.5 0 1.5
v 0.5 0 1.5
v -0.5 0 0.5
v 0.5 0 0.5
v -0.5 0 -0.5
v 0.5 0 -0.5
v -0.5 0 -1.5
v 0.5 0 -1.5
v -1.5 2 1.5
v -0.5 2 1.5
v 0.5 2 1.5
v 1.5 2 1.5
v -0.5 2 0.5
v 0.5 2 0.5
v -0.5 2 -0.5
v 0.5 2 -0.5
v -1.5 2 -1.5
v -0.5 2 -1.5
v 0.5 2 -1.5
v 1.5 2 -1.5
v -0.5 3 2.5
v 0.5 3 2.5
v -0.5 3 1.5
v 0.5 3 1.5
v -0.5 3 -1.5
v 0.5 3 -1.5
v -0.5 3 -2.5
v 0.5 3 -2.5
v -0.5 6 2.5
v 0.5 6 2.5
v -0.5 6 1.5
v 0.5 6 1.5
v -0.5 6 -1.5
v 0.5 6 -1.5
v -0.5 6 -2.5
v 0.5 6 -2.5
v -1.5 9 1.5
v 1.5 9 1.5
v -1.5 9 -1.5
v 1.5 9 -1.5

# faces
f 3/2/1 2/2/1 1/2/1
f 4/2/1 2/2/1 3/2/1
f 5/3/1 4/3/1 3/3/1
f 6/3/1 4/3/1 5/3/1
f 7/4/1 6/4/1 5/4/1
f 8/4/1 6/4/1 7/4/1
f 13/1/1 10/1/1 9/1/1
f 14/1/1 10/1/1 13/1/1
f 15/1/1 12/1/1 11/1/1
f 16/1/1 12/1/1 15/1/1
f 17/2/1 14/2/1 13/2/1
f 18/2/1 14/2/1 17/2/1
f 19/2/1 16/2/1 15/2/1
f 20/2/1 16/2/1 19/2/1
f 25/4/1 22/4/1 21/4/1
f 26/4/1 22/4/1 25/4/1
f 27/4/1 24/4/1 23/4/1
f 28/4/1 24/4/1 27/4/1
f 29/3/1 26/3/1 25/3/1
f 30/3/1 26/3/1 29/3/1
f 31/3/1 28/3/1 27/3/1
f 32/3/1 28/3/1 31/3/1
f 33/1/2 34/1/2 37/1/2
f 37/1/2 34/1/2 38/1/2
f 35/1/2 36/1/2 39/1/2
f 39/1/2 36/1/2 40/1/2
f 37/2/2 38/2/2 41/2/2
f 41/2/2 38/2/2 42/2/2
f 39/2/2 40/2/2 43/2/2
f 43/2/2 40/2/2 44/2/2
f 45/4/2 46/4/2 49/4/2
f 49/4/2 46/4/2 50/4/2
f 47/4/2 48/4/2 51/4/2
f 51/4/2 48/4/2 52/4/2
f 49/3/2 50/3/2 53/3/2
f 53/3/2 50/3/2 54/3/2
f 51/3/2 52/3/2 55/3/2
f 55/3/2 52/3/2 56/3/2
f 57/2/2 58/2/2 59/2/2
f 59/2/2 58/2/2 60/2/2
f 59/3/2 60/3/2 61/3/2
f 61/3/2 60/3/2 62/3/2
f 61/4/2 62/4/2 63/4/2
f 63/4/2 62/4/2 64/4/2
f 68/4/3 66/4/3 65/4/3
f 69/3/3 67/3/3 66/3/3
f 69/4/3 66/4/3 68/4/3
f 70/3/3 67/3/3 69/3/3
f 77/2/3 72/2/3 71/2/3
f 78/2/3 72/2/3 77/2/3
f 79/3/3 73/3/3 72/3/3
f 79/2/3 72/2/3 78/2/3
f 80/4/3 74/4/3 73/4/3
f 80/3/3 73/3/3 79/3/3
f 81/1/3 76/1/3 75/1/3
f 82/2/3 78/2/3 77/2/3
f 82/1/3 76/1/3 81/1/3
f 82/2/3 77/2/3 76/2/3
f 83/2/3 78/2/3 82/2/3
f 84/2/3 78/2/3 83/2/3
f 86/4/3 74/4/3 80/4/3
f 87/2/3 85/2/3 84/2/3
f 87/2/3 84/2/3 83/2/3
f 88/3/3 86/3/3 85/3/3
f 88/2/3 85/2/3 87/2/3
f 89/4/3 74/4/3 86/4/3
f 89/3/3 86/3/3 88/3/3
f 90/4/3 74/4/3 89/4/3
f 94/1/3 92/1/3 91/1/3
f 95/2/3 93/2/3 92/2/3
f 95/1/3 92/1/3 94/1/3
f 96/2/3 93/2/3 95/2/3
f 97/1/4 98/1/4 100/1/4
f 98/2/4 99/2/4 101/2/4
f 100/1/4 98/1/4 101/1/4
f 101/2/4 99/2/4 102/2/4
f 103/2/4 104/2/4 109/2/4
f 109/2/4 104/2/4 110/2/4
f 104/3/4 105/3/4 111/3/4
f 110/2/4 104/2/4 111/2/4
f 105/4/4 106/4/4 112/4/4
f 111/3/4 105/3/4 112/3/4
f 107/1/4 108/1/4 113/1/4
f 109/2/4 110/2/4 114/2/4
f 113/1/4 108/1/4 114/1/4
f 108/2/4 109/2/4 114/2/4
f 114/2/4 110/2/4 115/2/4
f 115/2/4 110/2/4 116/2/4
f 112/4/4 106/4/4 118/4/4
f 116/2/4 117/2/4 119/2/4
f 115/2/4 116/2/4 119/2/4
f 117/3/4 118/3/4 120/3/4
f 119/2/4 117/2/4 120/2/4
f 118/4/4 106/4/4 121/4/4
f 120/3/4 118/3/4 121/3/4
f 121/4/4 106/4/4 122/4/4
f 123/4/4 124/4/4 126/4/4
f 124/3/4 125/3/4 127/3/4
f 126/4/4 124/4/4 127/4/4
f 127/3/4 125/3/4 128/3/4
f 131/1/5 130/1/5 129/1/5
f 132/1/5 130/1/5 131/1/5
f 135/1/5 134/1/5 133/1/5
f 136/1/5 134/1/5 135/1/5
f 141/2/5 138/2/5 137/2/5
f 142/2/5 140/2/5 139/2/5
f 143/2/5 141/2/5 137/2/5
f 143/2/5 142/2/5 141/2/5
f 144/2/5 140/2/5 142/2/5
f 144/2/5 142/2/5 143/2/5
f 145/2/5 143/2/5 137/2/5
f 146/2/5 143/2/5 145/2/5
f 147/2/5 140/2/5 144/2/5
f 148/2/5 140/2/5 147/2/5
f 151/4/5 150/4/5 149/4/5
f 152/4/5 150/4/5 151/4/5
f 155/4/5 154/4/5 153/4/5
f 156/4/5 154/4/5 155/4/5
f 157/3/6 158/3/6 159/3/6
f 159/3/6 158/3/6 160/3/6
f 161/3/6 162/3/6 163/3/6
f 163/3/6 162/3/6 164/3/6
f 165/4/6 166/4/6 167/4/6
f 167/4/6 166/4/6 168/4/6
