# MagicaVoxel @ ephtracy

# material
mtllib basketballcourt.mtl
usemtl palette

# normals
vn -1 0 0
vn 1 0 0
vn 0 0 1
vn 0 0 -1
vn 0 -1 0
vn 0 1 0

# texcoords
vt 0.392578 0.5
vt 0.474609 0.5
vt 0.478516 0.5
vt 0.482422 0.5

# verts
v -14.5 0 15
v -14.5 0 -15
v -14.5 1 15
v -14.5 1 14
v -14.5 1 -14
v -14.5 1 -15
v -14.5 5 14
v -14.5 5 -14
v -11.5 1 13
v -11.5 1 -13
v -11.5 2 13
v -11.5 2 -13
v 0.5 7 14
v 0.5 7 13
v 0.5 7 -13
v 0.5 7 -14
v 0.5 11 14
v 0.5 11 13
v 0.5 11 -13
v 0.5 11 -14
v 1.5 7 13
v 1.5 7 11
v 1.5 7 -11
v 1.5 7 -13
v 1.5 8 13
v 1.5 8 11
v 1.5 8 -11
v 1.5 8 -13
v 2.5 1 14
v 2.5 1 13
v 2.5 1 -13
v 2.5 1 -14
v 2.5 7 14
v 2.5 7 13
v 2.5 7 -13
v 2.5 7 -14
v 3.5 7 13
v 3.5 7 12
v 3.5 7 -12
v 3.5 7 -13
v 3.5 8 13
v 3.5 8 12
v 3.5 8 -12
v 3.5 8 -13
v -12.5 1 13
v -12.5 1 -13
v -12.5 2 13
v -12.5 2 -13
v -12.5 4 14
v -12.5 4 -14
v -12.5 5 14
v -12.5 5 -14
v -11.5 3 14
v -11.5 3 -14
v -11.5 4 14
v -11.5 4 -14
v -10.5 2 14
v -10.5 2 -14
v -10.5 3 14
v -10.5 3 -14
v -9.5 1 14
v -9.5 1 -14
v -9.5 2 14
v -9.5 2 -14
v 2.5 7 13
v 2.5 7 12
v 2.5 7 -12
v 2.5 7 -13
v 2.5 8 13
v 2.5 8 12
v 2.5 8 -12
v 2.5 8 -13
v 3.5 1 14
v 3.5 1 13
v 3.5 1 -13
v 3.5 1 -14
v 3.5 7 14
v 3.5 7 13
v 3.5 7 -13
v 3.5 7 -14
v 4.5 7 13
v 4.5 7 11
v 4.5 7 -11
v 4.5 7 -13
v 4.5 8 13
v 4.5 8 11
v 4.5 8 -11
v 4.5 8 -13
v 5.5 7 14
v 5.5 7 13
v 5.5 7 -13
v 5.5 7 -14
v 5.5 11 14
v 5.5 11 13
v 5.5 11 -13
v 5.5 11 -14
v 14.5 0 15
v 14.5 0 -15
v 14.5 1 15
v 14.5 1 -15
v -14.5 0 15
v -14.5 1 15
v 14.5 0 15
v 14.5 1 15
v -14.5 1 14
v -14.5 5 14
v -12.5 4 14
v -12.5 5 14
v -11.5 3 14
v -11.5 4 14
v -10.5 2 14
v -10.5 3 14
v -9.5 1 14
v -9.5 2 14
v 0.5 7 14
v 0.5 11 14
v 2.5 1 14
v 2.5 7 14
v 3.5 1 14
v 3.5 7 14
v 5.5 7 14
v 5.5 11 14
v 2.5 7 12
v 2.5 8 12
v 3.5 7 12
v 3.5 8 12
v 1.5 7 -11
v 1.5 8 -11
v 4.5 7 -11
v 4.5 8 -11
v -12.5 1 -13
v -12.5 2 -13
v -11.5 1 -13
v -11.5 2 -13
v 0.5 7 -13
v 0.5 11 -13
v 1.5 7 -13
v 1.5 8 -13
v 2.5 1 -13
v 2.5 7 -13
v 2.5 8 -13
v 3.5 1 -13
v 3.5 7 -13
v 3.5 8 -13
v 4.5 7 -13
v 4.5 8 -13
v 5.5 7 -13
v 5.5 11 -13
v -12.5 1 13
v -12.5 2 13
v -11.5 1 13
v -11.5 2 13
v 0.5 7 13
v 0.5 11 13
v 1.5 7 13
v 1.5 8 13
v 2.5 1 13
v 2.5 7 13
v 2.5 8 13
v 3.5 1 13
v 3.5 7 13
v 3.5 8 13
v 4.5 7 13
v 4.5 8 13
v 5.5 7 13
v 5.5 11 13
v 1.5 7 11
v 1.5 8 11
v 4.5 7 11
v 4.5 8 11
v 2.5 7 -12
v 2.5 8 -12
v 3.5 7 -12
v 3.5 8 -12
v -14.5 1 -14
v -14.5 5 -14
v -12.5 4 -14
v -12.5 5 -14
v -11.5 3 -14
v -11.5 4 -14
v -10.5 2 -14
v -10.5 3 -14
v -9.5 1 -14
v -9.5 2 -14
v 0.5 7 -14
v 0.5 11 -14
v 2.5 1 -14
v 2.5 7 -14
v 3.5 1 -14
v 3.5 7 -14
v 5.5 7 -14
v 5.5 11 -14
v -14.5 0 -15
v -14.5 1 -15
v 14.5 0 -15
v 14.5 1 -15
v -14.5 0 15
v 14.5 0 15
v -7.5 0 14
v 13.5 0 14
v -6.5 0 13
v -2.5 0 13
v -1.5 0 13
v 7.5 0 13
v 8.5 0 13
v 12.5 0 13
v -1.5 0 9
v -0.5 0 9
v 6.5 0 9
v 7.5 0 9
v -2.5 0 8
v -1.5 0 8
v -0.5 0 8
v 0.5 0 8
v 5.5 0 8
v 6.5 0 8
v 7.5 0 8
v 8.5 0 8
v -1.5 0 7
v -0.5 0 7
v 0.5 0 7
v 1.5 0 7
v 4.5 0 7
v 5.5 0 7
v 6.5 0 7
v 7.5 0 7
v -0.5 0 6
v 0.5 0 6
v 1.5 0 6
v 4.5 0 6
v 5.5 0 6
v 6.5 0 6
v 0.5 0 5
v 5.5 0 5
v 0.5 0 3
v 5.5 0 3
v -0.5 0 2
v 0.5 0 2
v 5.5 0 2
v 6.5 0 2
v -6.5 0 1
v -0.5 0 1
v 6.5 0 1
v 12.5 0 1
v -6.5 0 -1
v -0.5 0 -1
v 6.5 0 -1
v 12.5 0 -1
v -0.5 0 -2
v 0.5 0 -2
v 5.5 0 -2
v 6.5 0 -2
v 0.5 0 -3
v 5.5 0 -3
v 0.5 0 -5
v 5.5 0 -5
v -0.5 0 -6
v 0.5 0 -6
v 1.5 0 -6
v 4.5 0 -6
v 5.5 0 -6
v 6.5 0 -6
v -1.5 0 -7
v -0.5 0 -7
v 0.5 0 -7
v 1.5 0 -7
v 4.5 0 -7
v 5.5 0 -7
v 6.5 0 -7
v 7.5 0 -7
v -2.5 0 -8
v -1.5 0 -8
v -0.5 0 -8
v 0.5 0 -8
v 5.5 0 -8
v 6.5 0 -8
v 7.5 0 -8
v 8.5 0 -8
v -1.5 0 -9
v -0.5 0 -9
v 6.5 0 -9
v 7.5 0 -9
v -6.5 0 -13
v -2.5 0 -13
v -1.5 0 -13
v 7.5 0 -13
v 8.5 0 -13
v 12.5 0 -13
v -7.5 0 -14
v 13.5 0 -14
v -14.5 0 -15
v 14.5 0 -15
v -12.5 2 13
v -11.5 2 13
v -12.5 2 -13
v -11.5 2 -13
v 0.5 7 14
v 2.5 7 14
v 3.5 7 14
v 5.5 7 14
v 0.5 7 13
v 1.5 7 13
v 2.5 7 13
v 3.5 7 13
v 4.5 7 13
v 5.5 7 13
v 2.5 7 12
v 3.5 7 12
v 1.5 7 11
v 4.5 7 11
v 1.5 7 -11
v 4.5 7 -11
v 2.5 7 -12
v 3.5 7 -12
v 0.5 7 -13
v 1.5 7 -13
v 2.5 7 -13
v 3.5 7 -13
v 4.5 7 -13
v 5.5 7 -13
v 0.5 7 -14
v 2.5 7 -14
v 3.5 7 -14
v 5.5 7 -14
v -14.5 1 15
v 14.5 1 15
v -14.5 1 14
v -9.5 1 14
v -7.5 1 14
v 2.5 1 14
v 3.5 1 14
v 13.5 1 14
v -12.5 1 13
v -11.5 1 13
v -6.5 1 13
v -2.5 1 13
v -1.5 1 13
v 2.5 1 13
v 3.5 1 13
v 7.5 1 13
v 8.5 1 13
v 12.5 1 13
v -1.5 1 9
v -0.5 1 9
v 6.5 1 9
v 7.5 1 9
v -2.5 1 8
v -1.5 1 8
v -0.5 1 8
v 0.5 1 8
v 5.5 1 8
v 6.5 1 8
v 7.5 1 8
v 8.5 1 8
v -1.5 1 7
v -0.5 1 7
v 0.5 1 7
v 1.5 1 7
v 4.5 1 7
v 5.5 1 7
v 6.5 1 7
v 7.5 1 7
v -0.5 1 6
v 0.5 1 6
v 1.5 1 6
v 4.5 1 6
v 5.5 1 6
v 6.5 1 6
v 0.5 1 5
v 5.5 1 5
v 0.5 1 3
v 5.5 1 3
v -0.5 1 2
v 0.5 1 2
v 5.5 1 2
v 6.5 1 2
v -6.5 1 1
v -0.5 1 1
v 6.5 1 1
v 12.5 1 1
v -6.5 1 -1
v -0.5 1 -1
v 6.5 1 -1
v 12.5 1 -1
v -0.5 1 -2
v 0.5 1 -2
v 5.5 1 -2
v 6.5 1 -2
v 0.5 1 -3
v 5.5 1 -3
v 0.5 1 -5
v 5.5 1 -5
v -0.5 1 -6
v 0.5 1 -6
v 1.5 1 -6
v 4.5 1 -6
v 5.5 1 -6
v 6.5 1 -6
v -1.5 1 -7
v -0.5 1 -7
v 0.5 1 -7
v 1.5 1 -7
v 4.5 1 -7
v 5.5 1 -7
v 6.5 1 -7
v 7.5 1 -7
v -2.5 1 -8
v -1.5 1 -8
v -0.5 1 -8
v 0.5 1 -8
v 5.5 1 -8
v 6.5 1 -8
v 7.5 1 -8
v 8.5 1 -8
v -1.5 1 -9
v -0.5 1 -9
v 6.5 1 -9
v 7.5 1 -9
v -12.5 1 -13
v -11.5 1 -13
v -6.5 1 -13
v -2.5 1 -13
v -1.5 1 -13
v 2.5 1 -13
v 3.5 1 -13
v 7.5 1 -13
v 8.5 1 -13
v 12.5 1 -13
v -14.5 1 -14
v -9.5 1 -14
v -7.5 1 -14
v 2.5 1 -14
v 3.5 1 -14
v 13.5 1 -14
v -14.5 1 -15
v 14.5 1 -15
v -10.5 2 14
v -9.5 2 14
v -10.5 2 -14
v -9.5 2 -14
v -11.5 3 14
v -10.5 3 14
v -11.5 3 -14
v -10.5 3 -14
v -12.5 4 14
v -11.5 4 14
v -12.5 4 -14
v -11.5 4 -14
v -14.5 5 14
v -12.5 5 14
v -14.5 5 -14
v -12.5 5 -14
v 1.5 8 13
v 2.5 8 13
v 3.5 8 13
v 4.5 8 13
v 2.5 8 12
v 3.5 8 12
v 1.5 8 11
v 4.5 8 11
v 1.5 8 -11
v 4.5 8 -11
v 2.5 8 -12
v 3.5 8 -12
v 1.5 8 -13
v 2.5 8 -13
v 3.5 8 -13
v 4.5 8 -13
v 0.5 11 14
v 5.5 11 14
v 0.5 11 13
v 5.5 11 13
v 0.5 11 -13
v 5.5 11 -13
v 0.5 11 -14
v 5.5 11 -14

# faces
f 3/1/1 2/1/1 1/1/1
f 4/1/1 2/1/1 3/1/1
f 5/1/1 2/1/1 4/1/1
f 6/1/1 2/1/1 5/1/1
f 7/4/1 5/4/1 4/4/1
f 8/4/1 5/4/1 7/4/1
f 11/4/1 10/4/1 9/4/1
f 12/4/1 10/4/1 11/4/1
f 17/2/1 14/2/1 13/2/1
f 18/2/1 14/2/1 17/2/1
f 19/2/1 16/2/1 15/2/1
f 20/2/1 16/2/1 19/2/1
f 25/3/1 22/3/1 21/3/1
f 26/3/1 22/3/1 25/3/1
f 27/3/1 24/3/1 23/3/1
f 28/3/1 24/3/1 27/3/1
f 33/1/1 30/1/1 29/1/1
f 34/1/1 30/1/1 33/1/1
f 35/1/1 32/1/1 31/1/1
f 36/1/1 32/1/1 35/1/1
f 41/3/1 38/3/1 37/3/1
f 42/3/1 38/3/1 41/3/1
f 43/3/1 40/3/1 39/3/1
f 44/3/1 40/3/1 43/3/1
f 45/4/2 46/4/2 47/4/2
f 47/4/2 46/4/2 48/4/2
f 49/4/2 50/4/2 51/4/2
f 51/4/2 50/4/2 52/4/2
f 53/4/2 54/4/2 55/4/2
f 55/4/2 54/4/2 56/4/2
f 57/4/2 58/4/2 59/4/2
f 59/4/2 58/4/2 60/4/2
f 61/4/2 62/4/2 63/4/2
f 63/4/2 62/4/2 64/4/2
f 65/3/2 66/3/2 69/3/2
f 69/3/2 66/3/2 70/3/2
f 67/3/2 68/3/2 71/3/2
f 71/3/2 68/3/2 72/3/2
f 73/1/2 74/1/2 77/1/2
f 77/1/2 74/1/2 78/1/2
f 75/1/2 76/1/2 79/1/2
f 79/1/2 76/1/2 80/1/2
f 81/3/2 82/3/2 85/3/2
f 85/3/2 82/3/2 86/3/2
f 83/3/2 84/3/2 87/3/2
f 87/3/2 84/3/2 88/3/2
f 89/2/2 90/2/2 93/2/2
f 93/2/2 90/2/2 94/2/2
f 91/2/2 92/2/2 95/2/2
f 95/2/2 92/2/2 96/2/2
f 97/1/2 98/1/2 99/1/2
f 99/1/2 98/1/2 100/1/2
f 103/1/3 102/1/3 101/1/3
f 104/1/3 102/1/3 103/1/3
f 107/4/3 106/4/3 105/4/3
f 108/4/3 106/4/3 107/4/3
f 109/4/3 107/4/3 105/4/3
f 110/4/3 107/4/3 109/4/3
f 111/4/3 109/4/3 105/4/3
f 112/4/3 109/4/3 111/4/3
f 113/4/3 111/4/3 105/4/3
f 114/4/3 111/4/3 113/4/3
f 118/2/3 116/2/3 115/2/3
f 119/1/3 118/1/3 117/1/3
f 120/2/3 116/2/3 118/2/3
f 120/1/3 118/1/3 119/1/3
f 121/2/3 116/2/3 120/2/3
f 122/2/3 116/2/3 121/2/3
f 125/3/3 124/3/3 123/3/3
f 126/3/3 124/3/3 125/3/3
f 129/3/3 128/3/3 127/3/3
f 130/3/3 128/3/3 129/3/3
f 133/4/3 132/4/3 131/4/3
f 134/4/3 132/4/3 133/4/3
f 137/2/3 136/2/3 135/2/3
f 138/2/3 136/2/3 137/2/3
f 141/2/3 136/2/3 138/2/3
f 142/1/3 140/1/3 139/1/3
f 143/2/3 141/2/3 140/2/3
f 143/1/3 140/1/3 142/1/3
f 144/2/3 136/2/3 141/2/3
f 144/2/3 141/2/3 143/2/3
f 146/2/3 136/2/3 144/2/3
f 147/2/3 146/2/3 145/2/3
f 148/2/3 136/2/3 146/2/3
f 148/2/3 146/2/3 147/2/3
f 149/4/4 150/4/4 151/4/4
f 151/4/4 150/4/4 152/4/4
f 153/2/4 154/2/4 155/2/4
f 155/2/4 154/2/4 156/2/4
f 156/2/4 154/2/4 159/2/4
f 157/1/4 158/1/4 160/1/4
f 158/2/4 159/2/4 161/2/4
f 160/1/4 158/1/4 161/1/4
f 159/2/4 154/2/4 162/2/4
f 161/2/4 159/2/4 162/2/4
f 162/2/4 154/2/4 164/2/4
f 163/2/4 164/2/4 165/2/4
f 164/2/4 154/2/4 166/2/4
f 165/2/4 164/2/4 166/2/4
f 167/3/4 168/3/4 169/3/4
f 169/3/4 168/3/4 170/3/4
f 171/3/4 172/3/4 173/3/4
f 173/3/4 172/3/4 174/3/4
f 175/4/4 176/4/4 177/4/4
f 177/4/4 176/4/4 178/4/4
f 175/4/4 177/4/4 179/4/4
f 179/4/4 177/4/4 180/4/4
f 175/4/4 179/4/4 181/4/4
f 181/4/4 179/4/4 182/4/4
f 175/4/4 181/4/4 183/4/4
f 183/4/4 181/4/4 184/4/4
f 185/2/4 186/2/4 188/2/4
f 187/1/4 188/1/4 189/1/4
f 188/2/4 186/2/4 190/2/4
f 189/1/4 188/1/4 190/1/4
f 190/2/4 186/2/4 191/2/4
f 191/2/4 186/2/4 192/2/4
f 193/1/4 194/1/4 195/1/4
f 195/1/4 194/1/4 196/1/4
f 199/1/5 198/1/5 197/1/5
f 200/1/5 198/1/5 199/1/5
f 201/2/5 200/2/5 199/2/5
f 202/2/5 200/2/5 201/2/5
f 203/2/5 200/2/5 202/2/5
f 204/2/5 200/2/5 203/2/5
f 205/2/5 200/2/5 204/2/5
f 206/2/5 200/2/5 205/2/5
f 207/2/5 203/2/5 202/2/5
f 207/1/5 204/1/5 203/1/5
f 208/1/5 204/1/5 207/1/5
f 209/1/5 204/1/5 208/1/5
f 210/2/5 205/2/5 204/2/5
f 210/1/5 204/1/5 209/1/5
f 211/1/5 202/1/5 201/1/5
f 211/2/5 207/2/5 202/2/5
f 211/2/5 208/2/5 207/2/5
f 212/2/5 208/2/5 211/2/5
f 213/1/5 209/1/5 208/1/5
f 213/2/5 208/2/5 212/2/5
f 214/1/5 209/1/5 213/1/5
f 215/1/5 209/1/5 214/1/5
f 216/2/5 210/2/5 209/2/5
f 216/1/5 209/1/5 215/1/5
f 217/2/5 205/2/5 210/2/5
f 217/2/5 210/2/5 216/2/5
f 218/1/5 206/1/5 205/1/5
f 218/2/5 205/2/5 217/2/5
f 219/1/5 212/1/5 211/1/5
f 219/2/5 213/2/5 212/2/5
f 219/2/5 214/2/5 213/2/5
f 220/2/5 214/2/5 219/2/5
f 221/1/5 215/1/5 214/1/5
f 221/2/5 214/2/5 220/2/5
f 222/1/5 215/1/5 221/1/5
f 223/1/5 215/1/5 222/1/5
f 224/2/5 216/2/5 215/2/5
f 224/1/5 215/1/5 223/1/5
f 224/2/5 217/2/5 216/2/5
f 225/2/5 217/2/5 224/2/5
f 226/1/5 218/1/5 217/1/5
f 226/2/5 217/2/5 225/2/5
f 227/2/5 222/2/5 221/2/5
f 227/1/5 220/1/5 219/1/5
f 227/2/5 221/2/5 220/2/5
f 228/2/5 222/2/5 227/2/5
f 229/1/5 223/1/5 222/1/5
f 229/2/5 222/2/5 228/2/5
f 230/2/5 225/2/5 224/2/5
f 230/1/5 223/1/5 229/1/5
f 230/2/5 224/2/5 223/2/5
f 231/2/5 225/2/5 230/2/5
f 232/1/5 226/1/5 225/1/5
f 232/2/5 225/2/5 231/2/5
f 233/1/5 228/1/5 227/1/5
f 233/2/5 231/2/5 230/2/5
f 233/2/5 229/2/5 228/2/5
f 233/2/5 230/2/5 229/2/5
f 234/1/5 232/1/5 231/1/5
f 234/2/5 231/2/5 233/2/5
f 235/1/5 233/1/5 227/1/5
f 235/1/5 234/1/5 233/1/5
f 236/1/5 232/1/5 234/1/5
f 236/1/5 234/1/5 235/1/5
f 237/1/5 235/1/5 227/1/5
f 237/1/5 227/1/5 219/1/5
f 238/2/5 236/2/5 235/2/5
f 238/1/5 235/1/5 237/1/5
f 239/1/5 232/1/5 236/1/5
f 239/2/5 236/2/5 238/2/5
f 240/1/5 226/1/5 232/1/5
f 240/1/5 232/1/5 239/1/5
f 241/2/5 201/2/5 199/2/5
f 241/1/5 211/1/5 201/1/5
f 241/1/5 237/1/5 219/1/5
f 241/1/5 219/1/5 211/1/5
f 242/2/5 238/2/5 237/2/5
f 242/1/5 237/1/5 241/1/5
f 243/1/5 226/1/5 240/1/5
f 243/2/5 240/2/5 239/2/5
f 244/2/5 200/2/5 206/2/5
f 244/1/5 226/1/5 243/1/5
f 244/1/5 218/1/5 226/1/5
f 244/1/5 206/1/5 218/1/5
f 245/2/5 242/2/5 241/2/5
f 245/2/5 241/2/5 199/2/5
f 246/2/5 238/2/5 242/2/5
f 246/2/5 242/2/5 245/2/5
f 247/2/5 243/2/5 239/2/5
f 247/2/5 244/2/5 243/2/5
f 248/2/5 200/2/5 244/2/5
f 248/2/5 244/2/5 247/2/5
f 249/2/5 238/2/5 246/2/5
f 249/1/5 246/1/5 245/1/5
f 250/1/5 239/1/5 238/1/5
f 250/2/5 238/2/5 249/2/5
f 251/2/5 247/2/5 239/2/5
f 251/1/5 239/1/5 250/1/5
f 252/1/5 248/1/5 247/1/5
f 252/2/5 247/2/5 251/2/5
f 253/1/5 250/1/5 249/1/5
f 253/2/5 251/2/5 250/2/5
f 254/1/5 252/1/5 251/1/5
f 254/2/5 251/2/5 253/2/5
f 255/1/5 253/1/5 249/1/5
f 255/1/5 254/1/5 253/1/5
f 256/1/5 252/1/5 254/1/5
f 256/1/5 254/1/5 255/1/5
f 257/1/5 249/1/5 245/1/5
f 257/1/5 255/1/5 249/1/5
f 258/2/5 256/2/5 255/2/5
f 258/1/5 255/1/5 257/1/5
f 259/2/5 256/2/5 258/2/5
f 260/2/5 256/2/5 259/2/5
f 261/1/5 252/1/5 256/1/5
f 261/2/5 256/2/5 260/2/5
f 262/1/5 248/1/5 252/1/5
f 262/1/5 252/1/5 261/1/5
f 263/1/5 257/1/5 245/1/5
f 264/2/5 258/2/5 257/2/5
f 264/1/5 257/1/5 263/1/5
f 264/2/5 259/2/5 258/2/5
f 265/2/5 259/2/5 264/2/5
f 266/1/5 260/1/5 259/1/5
f 266/2/5 259/2/5 265/2/5
f 267/2/5 261/2/5 260/2/5
f 267/1/5 260/1/5 266/1/5
f 267/2/5 262/2/5 261/2/5
f 268/2/5 262/2/5 267/2/5
f 269/1/5 248/1/5 262/1/5
f 269/2/5 262/2/5 268/2/5
f 270/1/5 248/1/5 269/1/5
f 271/1/5 263/1/5 245/1/5
f 272/2/5 265/2/5 264/2/5
f 272/1/5 263/1/5 271/1/5
f 272/2/5 264/2/5 263/2/5
f 273/2/5 265/2/5 272/2/5
f 274/1/5 266/1/5 265/1/5
f 274/2/5 265/2/5 273/2/5
f 274/1/5 268/1/5 267/1/5
f 274/1/5 267/1/5 266/1/5
f 275/2/5 270/2/5 269/2/5
f 275/1/5 268/1/5 274/1/5
f 275/2/5 269/2/5 268/2/5
f 276/2/5 270/2/5 275/2/5
f 277/1/5 248/1/5 270/1/5
f 277/2/5 270/2/5 276/2/5
f 278/1/5 248/1/5 277/1/5
f 279/2/5 273/2/5 272/2/5
f 279/2/5 272/2/5 271/2/5
f 280/1/5 276/1/5 275/1/5
f 280/2/5 273/2/5 279/2/5
f 280/1/5 274/1/5 273/1/5
f 280/1/5 275/1/5 274/1/5
f 281/2/5 278/2/5 277/2/5
f 281/1/5 276/1/5 280/1/5
f 281/2/5 277/2/5 276/2/5
f 282/2/5 278/2/5 281/2/5
f 283/2/5 245/2/5 199/2/5
f 283/1/5 271/1/5 245/1/5
f 284/2/5 279/2/5 271/2/5
f 284/1/5 271/1/5 283/1/5
f 285/1/5 282/1/5 281/1/5
f 285/2/5 279/2/5 284/2/5
f 285/1/5 280/1/5 279/1/5
f 285/1/5 281/1/5 280/1/5
f 286/2/5 278/2/5 282/2/5
f 286/1/5 282/1/5 285/1/5
f 287/1/5 248/1/5 278/1/5
f 287/2/5 278/2/5 286/2/5
f 288/2/5 200/2/5 248/2/5
f 288/1/5 248/1/5 287/1/5
f 289/1/5 199/1/5 197/1/5
f 289/2/5 285/2/5 284/2/5
f 289/2/5 288/2/5 287/2/5
f 289/2/5 283/2/5 199/2/5
f 289/2/5 286/2/5 285/2/5
f 289/2/5 287/2/5 286/2/5
f 289/2/5 284/2/5 283/2/5
f 290/2/5 200/2/5 288/2/5
f 290/2/5 288/2/5 289/2/5
f 290/1/5 198/1/5 200/1/5
f 291/1/5 289/1/5 197/1/5
f 291/1/5 290/1/5 289/1/5
f 292/1/5 198/1/5 290/1/5
f 292/1/5 290/1/5 291/1/5
f 295/4/5 294/4/5 293/4/5
f 296/4/5 294/4/5 295/4/5
f 301/2/5 298/2/5 297/2/5
f 302/2/5 298/2/5 301/2/5
f 303/2/5 298/2/5 302/2/5
f 304/2/5 300/2/5 299/2/5
f 305/2/5 300/2/5 304/2/5
f 306/2/5 300/2/5 305/2/5
f 307/3/5 303/3/5 302/3/5
f 308/3/5 305/3/5 304/3/5
f 309/3/5 307/3/5 302/3/5
f 309/3/5 308/3/5 307/3/5
f 310/3/5 305/3/5 308/3/5
f 310/3/5 308/3/5 309/3/5
f 313/3/5 312/3/5 311/3/5
f 314/3/5 312/3/5 313/3/5
f 316/3/5 313/3/5 311/3/5
f 317/3/5 313/3/5 316/3/5
f 318/3/5 312/3/5 314/3/5
f 319/3/5 312/3/5 318/3/5
f 321/2/5 317/2/5 316/2/5
f 321/2/5 316/2/5 315/2/5
f 322/2/5 317/2/5 321/2/5
f 323/2/5 319/2/5 318/2/5
f 323/2/5 320/2/5 319/2/5
f 324/2/5 320/2/5 323/2/5
f 325/1/6 326/1/6 327/1/6
f 327/1/6 326/1/6 328/1/6
f 328/1/6 326/1/6 329/1/6
f 329/1/6 326/1/6 330/1/6
f 330/1/6 326/1/6 331/1/6
f 331/1/6 326/1/6 332/1/6
f 329/2/6 330/2/6 335/2/6
f 335/2/6 330/2/6 336/2/6
f 336/2/6 330/2/6 337/2/6
f 337/2/6 330/2/6 338/2/6
f 331/2/6 332/2/6 339/2/6
f 339/2/6 332/2/6 340/2/6
f 340/2/6 332/2/6 341/2/6
f 341/2/6 332/2/6 342/2/6
f 337/1/6 338/1/6 343/1/6
f 336/2/6 337/2/6 343/2/6
f 338/1/6 339/1/6 343/1/6
f 339/1/6 340/1/6 343/1/6
f 343/1/6 340/1/6 344/1/6
f 344/1/6 340/1/6 345/1/6
f 340/2/6 341/2/6 346/2/6
f 345/1/6 340/1/6 346/1/6
f 335/1/6 336/1/6 347/1/6
f 336/2/6 343/2/6 347/2/6
f 343/2/6 344/2/6 347/2/6
f 347/2/6 344/2/6 348/2/6
f 344/1/6 345/1/6 349/1/6
f 348/2/6 344/2/6 349/2/6
f 349/1/6 345/1/6 350/1/6
f 350/1/6 345/1/6 351/1/6
f 345/2/6 346/2/6 352/2/6
f 351/1/6 345/1/6 352/1/6
f 346/2/6 341/2/6 353/2/6
f 352/2/6 346/2/6 353/2/6
f 341/1/6 342/1/6 354/1/6
f 353/2/6 341/2/6 354/2/6
f 347/1/6 348/1/6 355/1/6
f 348/2/6 349/2/6 355/2/6
f 349/2/6 350/2/6 355/2/6
f 355/2/6 350/2/6 356/2/6
f 350/1/6 351/1/6 357/1/6
f 356/2/6 350/2/6 357/2/6
f 357/1/6 351/1/6 358/1/6
f 358/1/6 351/1/6 359/1/6
f 351/2/6 352/2/6 360/2/6
f 359/1/6 351/1/6 360/1/6
f 352/2/6 353/2/6 360/2/6
f 360/2/6 353/2/6 361/2/6
f 353/1/6 354/1/6 362/1/6
f 361/2/6 353/2/6 362/2/6
f 357/2/6 358/2/6 363/2/6
f 355/1/6 356/1/6 363/1/6
f 356/2/6 357/2/6 363/2/6
f 363/2/6 358/2/6 364/2/6
f 358/1/6 359/1/6 365/1/6
f 364/2/6 358/2/6 365/2/6
f 360/2/6 361/2/6 366/2/6
f 365/1/6 359/1/6 366/1/6
f 359/2/6 360/2/6 366/2/6
f 366/2/6 361/2/6 367/2/6
f 361/1/6 362/1/6 368/1/6
f 367/2/6 361/2/6 368/2/6
f 363/1/6 364/1/6 369/1/6
f 366/2/6 367/2/6 369/2/6
f 364/2/6 365/2/6 369/2/6
f 365/2/6 366/2/6 369/2/6
f 367/1/6 368/1/6 370/1/6
f 369/2/6 367/2/6 370/2/6
f 363/1/6 369/1/6 371/1/6
f 369/1/6 370/1/6 371/1/6
f 370/1/6 368/1/6 372/1/6
f 371/1/6 370/1/6 372/1/6
f 363/1/6 371/1/6 373/1/6
f 355/1/6 363/1/6 373/1/6
f 371/2/6 372/2/6 374/2/6
f 373/1/6 371/1/6 374/1/6
f 372/1/6 368/1/6 375/1/6
f 374/2/6 372/2/6 375/2/6
f 368/1/6 362/1/6 376/1/6
f 375/1/6 368/1/6 376/1/6
f 329/2/6 335/2/6 377/2/6
f 335/1/6 347/1/6 377/1/6
f 355/1/6 373/1/6 377/1/6
f 347/1/6 355/1/6 377/1/6
f 373/2/6 374/2/6 378/2/6
f 377/1/6 373/1/6 378/1/6
f 376/1/6 362/1/6 379/1/6
f 375/2/6 376/2/6 379/2/6
f 342/2/6 332/2/6 380/2/6
f 379/1/6 362/1/6 380/1/6
f 362/1/6 354/1/6 380/1/6
f 354/1/6 342/1/6 380/1/6
f 377/2/6 378/2/6 381/2/6
f 329/2/6 377/2/6 381/2/6
f 378/2/6 374/2/6 382/2/6
f 381/2/6 378/2/6 382/2/6
f 375/2/6 379/2/6 383/2/6
f 379/2/6 380/2/6 383/2/6
f 380/2/6 332/2/6 384/2/6
f 383/2/6 380/2/6 384/2/6
f 382/2/6 374/2/6 385/2/6
f 381/1/6 382/1/6 385/1/6
f 374/1/6 375/1/6 386/1/6
f 385/2/6 374/2/6 386/2/6
f 375/2/6 383/2/6 387/2/6
f 386/1/6 375/1/6 387/1/6
f 383/1/6 384/1/6 388/1/6
f 387/2/6 383/2/6 388/2/6
f 385/1/6 386/1/6 389/1/6
f 386/2/6 387/2/6 389/2/6
f 387/1/6 388/1/6 390/1/6
f 389/2/6 387/2/6 390/2/6
f 385/1/6 389/1/6 391/1/6
f 389/1/6 390/1/6 391/1/6
f 390/1/6 388/1/6 392/1/6
f 391/1/6 390/1/6 392/1/6
f 381/1/6 385/1/6 393/1/6
f 385/1/6 391/1/6 393/1/6
f 391/2/6 392/2/6 394/2/6
f 393/1/6 391/1/6 394/1/6
f 394/2/6 392/2/6 395/2/6
f 395/2/6 392/2/6 396/2/6
f 392/1/6 388/1/6 397/1/6
f 396/2/6 392/2/6 397/2/6
f 388/1/6 384/1/6 398/1/6
f 397/1/6 388/1/6 398/1/6
f 381/1/6 393/1/6 399/1/6
f 393/2/6 394/2/6 400/2/6
f 399/1/6 393/1/6 400/1/6
f 394/2/6 395/2/6 400/2/6
f 400/2/6 395/2/6 401/2/6
f 395/1/6 396/1/6 402/1/6
f 401/2/6 395/2/6 402/2/6
f 396/2/6 397/2/6 403/2/6
f 402/1/6 396/1/6 403/1/6
f 397/2/6 398/2/6 403/2/6
f 403/2/6 398/2/6 404/2/6
f 398/1/6 384/1/6 405/1/6
f 404/2/6 398/2/6 405/2/6
f 405/1/6 384/1/6 406/1/6
f 381/1/6 399/1/6 407/1/6
f 400/2/6 401/2/6 408/2/6
f 407/1/6 399/1/6 408/1/6
f 399/2/6 400/2/6 408/2/6
f 408/2/6 401/2/6 409/2/6
f 401/1/6 402/1/6 410/1/6
f 409/2/6 401/2/6 410/2/6
f 403/1/6 404/1/6 410/1/6
f 402/1/6 403/1/6 410/1/6
f 405/2/6 406/2/6 411/2/6
f 410/1/6 404/1/6 411/1/6
f 404/2/6 405/2/6 411/2/6
f 411/2/6 406/2/6 412/2/6
f 406/1/6 384/1/6 413/1/6
f 412/2/6 406/2/6 413/2/6
f 413/1/6 384/1/6 414/1/6
f 408/2/6 409/2/6 415/2/6
f 407/2/6 408/2/6 415/2/6
f 411/1/6 412/1/6 416/1/6
f 415/2/6 409/2/6 416/2/6
f 409/1/6 410/1/6 416/1/6
f 410/1/6 411/1/6 416/1/6
f 413/2/6 414/2/6 417/2/6
f 416/1/6 412/1/6 417/1/6
f 412/2/6 413/2/6 417/2/6
f 417/2/6 414/2/6 418/2/6
f 333/1/6 334/1/6 419/1/6
f 419/1/6 334/1/6 420/1/6
f 329/2/6 381/2/6 421/2/6
f 381/1/6 407/1/6 421/1/6
f 407/2/6 415/2/6 422/2/6
f 421/1/6 407/1/6 422/1/6
f 415/1/6 416/1/6 423/1/6
f 422/2/6 415/2/6 423/2/6
f 416/1/6 417/1/6 423/1/6
f 417/1/6 418/1/6 423/1/6
f 423/1/6 418/1/6 424/1/6
f 424/1/6 418/1/6 425/1/6
f 418/2/6 414/2/6 426/2/6
f 425/1/6 418/1/6 426/1/6
f 414/1/6 384/1/6 427/1/6
f 426/2/6 414/2/6 427/2/6
f 384/2/6 332/2/6 428/2/6
f 427/1/6 384/1/6 428/1/6
f 328/1/6 329/1/6 430/1/6
f 423/2/6 424/2/6 431/2/6
f 421/2/6 422/2/6 431/2/6
f 430/1/6 329/1/6 431/1/6
f 329/2/6 421/2/6 431/2/6
f 422/2/6 423/2/6 431/2/6
f 431/2/6 424/2/6 432/2/6
f 426/2/6 427/2/6 433/2/6
f 427/2/6 428/2/6 433/2/6
f 425/2/6 426/2/6 433/2/6
f 332/1/6 326/1/6 434/1/6
f 428/2/6 332/2/6 434/2/6
f 433/2/6 428/2/6 434/2/6
f 432/1/6 433/1/6 435/1/6
f 429/1/6 430/1/6 435/1/6
f 433/1/6 434/1/6 435/1/6
f 431/1/6 432/1/6 435/1/6
f 430/1/6 431/1/6 435/1/6
f 434/1/6 326/1/6 436/1/6
f 435/1/6 434/1/6 436/1/6
f 437/4/6 438/4/6 439/4/6
f 439/4/6 438/4/6 440/4/6
f 441/4/6 442/4/6 443/4/6
f 443/4/6 442/4/6 444/4/6
f 445/4/6 446/4/6 447/4/6
f 447/4/6 446/4/6 448/4/6
f 449/4/6 450/4/6 451/4/6
f 451/4/6 450/4/6 452/4/6
f 453/3/6 454/3/6 457/3/6
f 455/3/6 456/3/6 458/3/6
f 453/3/6 457/3/6 459/3/6
f 457/3/6 458/3/6 459/3/6
f 458/3/6 456/3/6 460/3/6
f 459/3/6 458/3/6 460/3/6
f 461/3/6 462/3/6 463/3/6
f 463/3/6 462/3/6 464/3/6
f 461/3/6 463/3/6 465/3/6
f 465/3/6 463/3/6 466/3/6
f 464/3/6 462/3/6 467/3/6
f 467/3/6 462/3/6 468/3/6
f 469/2/6 470/2/6 471/2/6
f 471/2/6 470/2/6 472/2/6
f 473/2/6 474/2/6 475/2/6
f 475/2/6 474/2/6 476/2/6
