# MagicaVoxel @ ephtracy

# material
mtllib house1.mtl
usemtl palette

# normals
vn -1 0 0
vn 1 0 0
vn 0 0 1
vn 0 0 -1
vn 0 -1 0
vn 0 1 0

# texcoords
vt 0.376953 0.5
vt 0.380859 0.5
vt 0.455078 0.5
vt 0.517578 0.5
vt 0.537109 0.5
vt 0.541016 0.5
vt 0.615234 0.5
vt 0.736328 0.5

# verts
v -15 0 15
v -15 0 -15
v -15 2 15
v -15 2 -15
v -12 10 13
v -12 10 -13
v -12 11 13
v -12 11 -13
v -11 2 12
v -11 2 -12
v -11 4 11
v -11 4 6
v -11 4 5
v -11 4 1
v -11 4 -1
v -11 4 -5
v -11 4 -6
v -11 4 -11
v -11 8 11
v -11 8 6
v -11 8 5
v -11 8 1
v -11 8 -1
v -11 8 -5
v -11 8 -6
v -11 8 -11
v -11 10 12
v -11 10 -12
v -11 11 12
v -11 11 -12
v -11 12 12
v -11 12 -12
v -10 4 11
v -10 4 6
v -10 4 5
v -10 4 1
v -10 4 -1
v -10 4 -5
v -10 4 -6
v -10 4 -11
v -10 8 11
v -10 8 6
v -10 8 5
v -10 8 1
v -10 8 -1
v -10 8 -5
v -10 8 -6
v -10 8 -11
v -10 12 11
v -10 12 -11
v -10 13 11
v -10 13 -11
v -9 13 10
v -9 13 -10
v -9 14 10
v -9 14 -10
v -8 14 9
v -8 14 6
v -8 17 9
v -8 17 6
v -6 16 8
v -6 16 7
v -6 17 8
v -6 17 7
v -5 4 12
v -5 4 11
v -5 4 -11
v -5 4 -12
v -5 8 12
v -5 8 11
v -5 8 -11
v -5 8 -12
v 2 4 12
v 2 4 11
v 2 4 -11
v 2 4 -12
v 2 8 12
v 2 8 11
v 2 8 -11
v 2 8 -12
v 4 1 -2
v 4 1 -4
v 4 2 -2
v 4 2 -4
v 12 2 -3
v 12 2 -4
v 12 4 -3
v 12 4 -4
v 12 5 -3
v 12 5 -4
v -10 4 12
v -10 4 11
v -10 4 -11
v -10 4 -12
v -10 8 12
v -10 8 11
v -10 8 -11
v -10 8 -12
v -7 16 8
v -7 16 7
v -7 17 8
v -7 17 7
v -5 14 9
v -5 14 6
v -5 17 9
v -5 17 6
v -3 4 12
v -3 4 11
v -3 4 -11
v -3 4 -12
v -3 8 12
v -3 8 11
v -3 8 -11
v -3 8 -12
v 1 13 10
v 1 13 -10
v 1 14 10
v 1 14 -10
v 2 3 2
v 2 3 -2
v 2 4 10
v 2 4 5
v 2 4 -5
v 2 4 -10
v 2 8 10
v 2 8 5
v 2 8 2
v 2 8 -2
v 2 8 -5
v 2 8 -10
v 2 12 11
v 2 12 -11
v 2 13 11
v 2 13 -11
v 3 1 -2
v 3 1 -4
v 3 2 12
v 3 2 11
v 3 2 4
v 3 2 2
v 3 2 -2
v 3 2 -4
v 3 2 -11
v 3 2 -12
v 3 3 2
v 3 3 -2
v 3 4 11
v 3 4 10
v 3 4 5
v 3 4 4
v 3 4 -4
v 3 4 -5
v 3 4 -10
v 3 4 -11
v 3 8 10
v 3 8 5
v 3 8 2
v 3 8 -2
v 3 8 -5
v 3 8 -10
v 3 10 12
v 3 10 -12
v 3 11 12
v 3 11 -12
v 3 12 12
v 3 12 -12
v 4 10 13
v 4 10 -13
v 4 11 13
v 4 11 -13
v 5 2 2
v 5 2 -2
v 5 3 2
v 5 3 -2
v 6 2 11
v 6 2 4
v 6 2 -4
v 6 2 -11
v 6 4 11
v 6 4 4
v 6 4 -4
v 6 4 -11
v 13 2 -3
v 13 2 -4
v 13 4 -3
v 13 4 -4
v 14 4 -3
v 14 4 -4
v 14 5 -3
v 14 5 -4
v 15 0 15
v 15 0 -15
v 15 2 15
v 15 2 -15
v -15 0 15
v -15 2 15
v 15 0 15
v 15 2 15
v -12 10 13
v -12 11 13
v 4 10 13
v 4 11 13
v -11 2 12
v -11 10 12
v -11 11 12
v -11 12 12
v -10 4 12
v -10 8 12
v -5 4 12
v -5 8 12
v -3 4 12
v -3 8 12
v 2 4 12
v 2 8 12
v 3 2 12
v 3 10 12
v 3 11 12
v 3 12 12
v -10 4 11
v -10 8 11
v -10 12 11
v -10 13 11
v -5 4 11
v -5 8 11
v -3 4 11
v -3 8 11
v 2 4 11
v 2 8 11
v 2 12 11
v 2 13 11
v 3 2 11
v 3 4 11
v 6 2 11
v 6 4 11
v -9 13 10
v -9 14 10
v 1 13 10
v 1 14 10
v -8 14 9
v -8 17 9
v -5 14 9
v -5 17 9
v -7 16 7
v -7 17 7
v -6 16 7
v -6 17 7
v -11 4 6
v -11 8 6
v -10 4 6
v -10 8 6
v 2 4 5
v 2 8 5
v 3 4 5
v 3 8 5
v 3 2 2
v 3 3 2
v 5 2 2
v 5 3 2
v -11 4 1
v -11 8 1
v -10 4 1
v -10 8 1
v 2 3 -2
v 2 8 -2
v 3 3 -2
v 3 8 -2
v 12 2 -3
v 12 4 -3
v 12 5 -3
v 13 2 -3
v 13 4 -3
v 14 4 -3
v 14 5 -3
v 3 1 -4
v 3 2 -4
v 3 4 -4
v 4 1 -4
v 4 2 -4
v 6 2 -4
v 6 4 -4
v -11 4 -5
v -11 8 -5
v -10 4 -5
v -10 8 -5
v 2 4 -10
v 2 8 -10
v 3 4 -10
v 3 8 -10
v -11 4 -11
v -11 8 -11
v -10 4 -11
v -10 8 -11
v -11 4 11
v -11 8 11
v -10 4 11
v -10 8 11
v 2 4 10
v 2 8 10
v 3 4 10
v 3 8 10
v -7 16 8
v -7 17 8
v -6 16 8
v -6 17 8
v -8 14 6
v -8 17 6
v -5 14 6
v -5 17 6
v -11 4 5
v -11 8 5
v -10 4 5
v -10 8 5
v 3 2 4
v 3 4 4
v 6 2 4
v 6 4 4
v 2 3 2
v 2 8 2
v 3 3 2
v 3 8 2
v -11 4 -1
v -11 8 -1
v -10 4 -1
v -10 8 -1
v 3 1 -2
v 3 2 -2
v 3 3 -2
v 4 1 -2
v 4 2 -2
v 5 2 -2
v 5 3 -2
v 12 2 -4
v 12 4 -4
v 12 5 -4
v 13 2 -4
v 13 4 -4
v 14 4 -4
v 14 5 -4
v 2 4 -5
v 2 8 -5
v 3 4 -5
v 3 8 -5
v -11 4 -6
v -11 8 -6
v -10 4 -6
v -10 8 -6
v -9 13 -10
v -9 14 -10
v 1 13 -10
v 1 14 -10
v -10 4 -11
v -10 8 -11
v -10 12 -11
v -10 13 -11
v -5 4 -11
v -5 8 -11
v -3 4 -11
v -3 8 -11
v 2 4 -11
v 2 8 -11
v 2 12 -11
v 2 13 -11
v 3 2 -11
v 3 4 -11
v 6 2 -11
v 6 4 -11
v -11 2 -12
v -11 10 -12
v -11 11 -12
v -11 12 -12
v -10 4 -12
v -10 8 -12
v -5 4 -12
v -5 8 -12
v -3 4 -12
v -3 8 -12
v 2 4 -12
v 2 8 -12
v 3 2 -12
v 3 10 -12
v 3 11 -12
v 3 12 -12
v -12 10 -13
v -12 11 -13
v 4 10 -13
v 4 11 -13
v -15 0 -15
v -15 2 -15
v 15 0 -15
v 15 2 -15
v -15 0 15
v 15 0 15
v -15 0 -15
v 15 0 -15
v 13 4 -3
v 14 4 -3
v 13 4 -4
v 14 4 -4
v -10 8 12
v -5 8 12
v -3 8 12
v 2 8 12
v -11 8 11
v -10 8 11
v -5 8 11
v -3 8 11
v 2 8 11
v 2 8 10
v 3 8 10
v -11 8 6
v -10 8 6
v -11 8 5
v -10 8 5
v 2 8 5
v 3 8 5
v 2 8 2
v 3 8 2
v -11 8 1
v -10 8 1
v -11 8 -1
v -10 8 -1
v 2 8 -2
v 3 8 -2
v -11 8 -5
v -10 8 -5
v 2 8 -5
v 3 8 -5
v -11 8 -6
v -10 8 -6
v 2 8 -10
v 3 8 -10
v -11 8 -11
v -10 8 -11
v -5 8 -11
v -3 8 -11
v 2 8 -11
v -10 8 -12
v -5 8 -12
v -3 8 -12
v 2 8 -12
v -12 10 13
v 4 10 13
v -11 10 12
v 3 10 12
v -11 10 -12
v 3 10 -12
v -12 10 -13
v 4 10 -13
v 3 1 -2
v 4 1 -2
v 3 1 -4
v 4 1 -4
v -15 2 15
v 15 2 15
v -14 2 14
v 14 2 14
v -11 2 12
v 3 2 12
v 3 2 11
v 6 2 11
v 3 2 4
v 6 2 4
v 3 2 2
v 5 2 2
v 14 2 2
v 4 2 -2
v 5 2 -2
v 14 2 -2
v 12 2 -3
v 13 2 -3
v 4 2 -4
v 6 2 -4
v 12 2 -4
v 13 2 -4
v 3 2 -11
v 6 2 -11
v -11 2 -12
v 3 2 -12
v -14 2 -14
v 14 2 -14
v -15 2 -15
v 15 2 -15
v 2 3 2
v 3 3 2
v 5 3 2
v 2 3 -2
v 3 3 -2
v 5 3 -2
v -10 4 12
v -5 4 12
v -3 4 12
v 2 4 12
v -11 4 11
v -10 4 11
v -5 4 11
v -3 4 11
v 2 4 11
v 3 4 11
v 6 4 11
v 2 4 10
v 3 4 10
v -11 4 6
v -10 4 6
v -11 4 5
v -10 4 5
v 2 4 5
v 3 4 5
v 3 4 4
v 6 4 4
v -11 4 1
v -10 4 1
v -11 4 -1
v -10 4 -1
v 3 4 -4
v 6 4 -4
v -11 4 -5
v -10 4 -5
v 2 4 -5
v 3 4 -5
v -11 4 -6
v -10 4 -6
v 2 4 -10
v 3 4 -10
v -11 4 -11
v -10 4 -11
v -5 4 -11
v -3 4 -11
v 2 4 -11
v 3 4 -11
v 6 4 -11
v -10 4 -12
v -5 4 -12
v -3 4 -12
v 2 4 -12
v 12 5 -3
v 14 5 -3
v 12 5 -4
v 14 5 -4
v -12 11 13
v 4 11 13
v -11 11 12
v 3 11 12
v -11 11 -12
v 3 11 -12
v -12 11 -13
v 4 11 -13
v -11 12 12
v 3 12 12
v -10 12 11
v 2 12 11
v -10 12 -11
v 2 12 -11
v -11 12 -12
v 3 12 -12
v -10 13 11
v 2 13 11
v -9 13 10
v 1 13 10
v -9 13 -10
v 1 13 -10
v -10 13 -11
v 2 13 -11
v -9 14 10
v 1 14 10
v -8 14 9
v -5 14 9
v -8 14 6
v -5 14 6
v -9 14 -10
v 1 14 -10
v -7 16 8
v -6 16 8
v -7 16 7
v -6 16 7
v -8 17 9
v -5 17 9
v -7 17 8
v -6 17 8
v -7 17 7
v -6 17 7
v -8 17 6
v -5 17 6

# faces
f 3/3/1 2/3/1 1/3/1
f 4/3/1 2/3/1 3/3/1
f 7/2/1 6/2/1 5/2/1
f 8/2/1 6/2/1 7/2/1
f 11/1/1 10/1/1 9/1/1
f 12/1/1 10/1/1 11/1/1
f 13/1/1 10/1/1 12/1/1
f 14/1/1 10/1/1 13/1/1
f 15/1/1 10/1/1 14/1/1
f 16/1/1 10/1/1 15/1/1
f 17/1/1 10/1/1 16/1/1
f 18/1/1 10/1/1 17/1/1
f 19/1/1 11/1/1 9/1/1
f 20/1/1 13/1/1 12/1/1
f 21/1/1 13/1/1 20/1/1
f 22/1/1 15/1/1 14/1/1
f 23/1/1 15/1/1 22/1/1
f 24/1/1 17/1/1 16/1/1
f 25/1/1 17/1/1 24/1/1
f 26/1/1 10/1/1 18/1/1
f 27/1/1 25/1/1 24/1/1
f 27/1/1 26/1/1 25/1/1
f 27/1/1 23/1/1 22/1/1
f 27/1/1 19/1/1 9/1/1
f 27/1/1 24/1/1 23/1/1
f 27/1/1 21/1/1 20/1/1
f 27/1/1 22/1/1 21/1/1
f 27/1/1 20/1/1 19/1/1
f 28/1/1 10/1/1 26/1/1
f 28/1/1 26/1/1 27/1/1
f 31/2/1 30/2/1 29/2/1
f 32/2/1 30/2/1 31/2/1
f 41/8/1 34/8/1 33/8/1
f 42/8/1 34/8/1 41/8/1
f 43/8/1 36/8/1 35/8/1
f 44/8/1 36/8/1 43/8/1
f 45/8/1 38/8/1 37/8/1
f 46/8/1 38/8/1 45/8/1
f 47/8/1 40/8/1 39/8/1
f 48/8/1 40/8/1 47/8/1
f 51/2/1 50/2/1 49/2/1
f 52/2/1 50/2/1 51/2/1
f 55/2/1 54/2/1 53/2/1
f 56/2/1 54/2/1 55/2/1
f 59/2/1 58/2/1 57/2/1
f 60/2/1 58/2/1 59/2/1
f 63/2/1 62/2/1 61/2/1
f 64/2/1 62/2/1 63/2/1
f 69/1/1 66/1/1 65/1/1
f 70/1/1 66/1/1 69/1/1
f 71/1/1 68/1/1 67/1/1
f 72/1/1 68/1/1 71/1/1
f 77/1/1 74/1/1 73/1/1
f 78/1/1 74/1/1 77/1/1
f 79/1/1 76/1/1 75/1/1
f 80/1/1 76/1/1 79/1/1
f 83/5/1 82/5/1 81/5/1
f 84/5/1 82/5/1 83/5/1
f 87/7/1 86/7/1 85/7/1
f 88/7/1 86/7/1 87/7/1
f 89/4/1 88/4/1 87/4/1
f 90/4/1 88/4/1 89/4/1
f 91/1/2 92/1/2 95/1/2
f 95/1/2 92/1/2 96/1/2
f 93/1/2 94/1/2 97/1/2
f 97/1/2 94/1/2 98/1/2
f 99/2/2 100/2/2 101/2/2
f 101/2/2 100/2/2 102/2/2
f 103/2/2 104/2/2 105/2/2
f 105/2/2 104/2/2 106/2/2
f 107/1/2 108/1/2 111/1/2
f 111/1/2 108/1/2 112/1/2
f 109/1/2 110/1/2 113/1/2
f 113/1/2 110/1/2 114/1/2
f 115/2/2 116/2/2 117/2/2
f 117/2/2 116/2/2 118/2/2
f 121/8/2 122/8/2 125/8/2
f 125/8/2 122/8/2 126/8/2
f 119/7/2 120/7/2 127/7/2
f 127/7/2 120/7/2 128/7/2
f 123/8/2 124/8/2 129/8/2
f 129/8/2 124/8/2 130/8/2
f 131/2/2 132/2/2 133/2/2
f 133/2/2 132/2/2 134/2/2
f 135/5/2 136/5/2 141/5/2
f 141/5/2 136/5/2 142/5/2
f 139/1/2 140/1/2 145/1/2
f 141/1/2 142/1/2 146/1/2
f 137/1/2 138/1/2 147/1/2
f 139/1/2 145/1/2 150/1/2
f 146/1/2 142/1/2 151/1/2
f 143/1/2 144/1/2 154/1/2
f 147/1/2 148/1/2 155/1/2
f 149/1/2 150/1/2 156/1/2
f 150/1/2 145/1/2 157/1/2
f 156/1/2 150/1/2 157/1/2
f 151/1/2 152/1/2 158/1/2
f 146/1/2 151/1/2 158/1/2
f 158/1/2 152/1/2 159/1/2
f 153/1/2 154/1/2 160/1/2
f 156/1/2 157/1/2 161/1/2
f 159/1/2 160/1/2 161/1/2
f 147/1/2 155/1/2 161/1/2
f 158/1/2 159/1/2 161/1/2
f 157/1/2 158/1/2 161/1/2
f 137/1/2 147/1/2 161/1/2
f 155/1/2 156/1/2 161/1/2
f 160/1/2 154/1/2 162/1/2
f 161/1/2 160/1/2 162/1/2
f 154/1/2 144/1/2 162/1/2
f 163/2/2 164/2/2 165/2/2
f 165/2/2 164/2/2 166/2/2
f 167/2/2 168/2/2 169/2/2
f 169/2/2 168/2/2 170/2/2
f 171/3/2 172/3/2 173/3/2
f 173/3/2 172/3/2 174/3/2
f 175/6/2 176/6/2 179/6/2
f 179/6/2 176/6/2 180/6/2
f 177/6/2 178/6/2 181/6/2
f 181/6/2 178/6/2 182/6/2
f 183/7/2 184/7/2 185/7/2
f 185/7/2 184/7/2 186/7/2
f 187/4/2 188/4/2 189/4/2
f 189/4/2 188/4/2 190/4/2
f 191/3/2 192/3/2 193/3/2
f 193/3/2 192/3/2 194/3/2
f 197/3/3 196/3/3 195/3/3
f 198/3/3 196/3/3 197/3/3
f 201/2/3 200/2/3 199/2/3
f 202/2/3 200/2/3 201/2/3
f 207/1/3 204/1/3 203/1/3
f 208/1/3 204/1/3 207/1/3
f 209/1/3 207/1/3 203/1/3
f 210/1/3 204/1/3 208/1/3
f 211/1/3 209/1/3 203/1/3
f 211/1/3 210/1/3 209/1/3
f 212/1/3 204/1/3 210/1/3
f 212/1/3 210/1/3 211/1/3
f 213/1/3 211/1/3 203/1/3
f 214/1/3 204/1/3 212/1/3
f 215/1/3 213/1/3 203/1/3
f 215/1/3 214/1/3 213/1/3
f 216/1/3 204/1/3 214/1/3
f 216/1/3 214/1/3 215/1/3
f 217/2/3 206/2/3 205/2/3
f 218/2/3 206/2/3 217/2/3
f 223/8/3 220/8/3 219/8/3
f 224/8/3 220/8/3 223/8/3
f 227/8/3 226/8/3 225/8/3
f 228/8/3 226/8/3 227/8/3
f 229/2/3 222/2/3 221/2/3
f 230/2/3 222/2/3 229/2/3
f 233/6/3 232/6/3 231/6/3
f 234/6/3 232/6/3 233/6/3
f 237/2/3 236/2/3 235/2/3
f 238/2/3 236/2/3 237/2/3
f 241/2/3 240/2/3 239/2/3
f 242/2/3 240/2/3 241/2/3
f 245/2/3 244/2/3 243/2/3
f 246/2/3 244/2/3 245/2/3
f 249/1/3 248/1/3 247/1/3
f 250/1/3 248/1/3 249/1/3
f 253/1/3 252/1/3 251/1/3
f 254/1/3 252/1/3 253/1/3
f 257/3/3 256/3/3 255/3/3
f 258/3/3 256/3/3 257/3/3
f 261/1/3 260/1/3 259/1/3
f 262/1/3 260/1/3 261/1/3
f 265/1/3 264/1/3 263/1/3
f 266/1/3 264/1/3 265/1/3
f 270/7/3 268/7/3 267/7/3
f 271/4/3 269/4/3 268/4/3
f 271/7/3 268/7/3 270/7/3
f 272/4/3 269/4/3 271/4/3
f 273/4/3 269/4/3 272/4/3
f 277/5/3 275/5/3 274/5/3
f 278/6/3 276/6/3 275/6/3
f 278/5/3 275/5/3 277/5/3
f 279/6/3 276/6/3 278/6/3
f 280/6/3 276/6/3 279/6/3
f 283/1/3 282/1/3 281/1/3
f 284/1/3 282/1/3 283/1/3
f 287/1/3 286/1/3 285/1/3
f 288/1/3 286/1/3 287/1/3
f 291/1/3 290/1/3 289/1/3
f 292/1/3 290/1/3 291/1/3
f 293/1/4 294/1/4 295/1/4
f 295/1/4 294/1/4 296/1/4
f 297/1/4 298/1/4 299/1/4
f 299/1/4 298/1/4 300/1/4
f 301/2/4 302/2/4 303/2/4
f 303/2/4 302/2/4 304/2/4
f 305/2/4 306/2/4 307/2/4
f 307/2/4 306/2/4 308/2/4
f 309/1/4 310/1/4 311/1/4
f 311/1/4 310/1/4 312/1/4
f 313/6/4 314/6/4 315/6/4
f 315/6/4 314/6/4 316/6/4
f 317/1/4 318/1/4 319/1/4
f 319/1/4 318/1/4 320/1/4
f 321/1/4 322/1/4 323/1/4
f 323/1/4 322/1/4 324/1/4
f 325/3/4 326/3/4 328/3/4
f 326/3/4 327/3/4 328/3/4
f 328/3/4 327/3/4 329/3/4
f 329/3/4 327/3/4 330/3/4
f 330/3/4 327/3/4 331/3/4
f 332/7/4 333/7/4 335/7/4
f 333/4/4 334/4/4 336/4/4
f 335/7/4 333/7/4 336/7/4
f 336/4/4 334/4/4 337/4/4
f 337/4/4 334/4/4 338/4/4
f 339/1/4 340/1/4 341/1/4
f 341/1/4 340/1/4 342/1/4
f 343/1/4 344/1/4 345/1/4
f 345/1/4 344/1/4 346/1/4
f 347/2/4 348/2/4 349/2/4
f 349/2/4 348/2/4 350/2/4
f 351/8/4 352/8/4 355/8/4
f 355/8/4 352/8/4 356/8/4
f 357/8/4 358/8/4 359/8/4
f 359/8/4 358/8/4 360/8/4
f 353/2/4 354/2/4 361/2/4
f 361/2/4 354/2/4 362/2/4
f 363/6/4 364/6/4 365/6/4
f 365/6/4 364/6/4 366/6/4
f 367/1/4 368/1/4 371/1/4
f 371/1/4 368/1/4 372/1/4
f 367/1/4 371/1/4 373/1/4
f 372/1/4 368/1/4 374/1/4
f 367/1/4 373/1/4 375/1/4
f 373/1/4 374/1/4 375/1/4
f 374/1/4 368/1/4 376/1/4
f 375/1/4 374/1/4 376/1/4
f 367/1/4 375/1/4 377/1/4
f 376/1/4 368/1/4 378/1/4
f 367/1/4 377/1/4 379/1/4
f 377/1/4 378/1/4 379/1/4
f 378/1/4 368/1/4 380/1/4
f 379/1/4 378/1/4 380/1/4
f 369/2/4 370/2/4 381/2/4
f 381/2/4 370/2/4 382/2/4
f 383/2/4 384/2/4 385/2/4
f 385/2/4 384/2/4 386/2/4
f 387/3/4 388/3/4 389/3/4
f 389/3/4 388/3/4 390/3/4
f 393/3/5 392/3/5 391/3/5
f 394/3/5 392/3/5 393/3/5
f 397/4/5 396/4/5 395/4/5
f 398/4/5 396/4/5 397/4/5
f 404/1/5 400/1/5 399/1/5
f 405/1/5 400/1/5 404/1/5
f 406/1/5 402/1/5 401/1/5
f 407/1/5 402/1/5 406/1/5
f 410/1/5 404/1/5 403/1/5
f 411/1/5 404/1/5 410/1/5
f 414/1/5 409/1/5 408/1/5
f 415/1/5 409/1/5 414/1/5
f 418/1/5 413/1/5 412/1/5
f 419/1/5 413/1/5 418/1/5
f 422/1/5 417/1/5 416/1/5
f 423/1/5 417/1/5 422/1/5
f 424/1/5 421/1/5 420/1/5
f 425/1/5 421/1/5 424/1/5
f 430/1/5 427/1/5 426/1/5
f 431/1/5 427/1/5 430/1/5
f 432/1/5 429/1/5 428/1/5
f 433/1/5 429/1/5 432/1/5
f 437/1/5 434/1/5 433/1/5
f 438/1/5 434/1/5 437/1/5
f 439/1/5 436/1/5 435/1/5
f 440/1/5 436/1/5 439/1/5
f 443/2/5 442/2/5 441/2/5
f 444/2/5 442/2/5 443/2/5
f 445/2/5 443/2/5 441/2/5
f 446/2/5 442/2/5 444/2/5
f 447/2/5 445/2/5 441/2/5
f 447/2/5 446/2/5 445/2/5
f 448/2/5 442/2/5 446/2/5
f 448/2/5 446/2/5 447/2/5
f 449/3/6 450/3/6 451/3/6
f 451/3/6 450/3/6 452/3/6
f 453/3/6 454/3/6 455/3/6
f 455/3/6 454/3/6 456/3/6
f 455/5/6 456/5/6 457/5/6
f 457/5/6 456/5/6 458/5/6
f 458/5/6 456/5/6 459/5/6
f 459/5/6 456/5/6 460/5/6
f 460/5/6 456/5/6 462/5/6
f 461/5/6 462/5/6 463/5/6
f 463/5/6 462/5/6 464/5/6
f 456/3/6 454/3/6 465/3/6
f 464/5/6 462/5/6 465/5/6
f 462/5/6 456/5/6 465/5/6
f 464/3/6 465/3/6 467/3/6
f 465/3/6 454/3/6 468/3/6
f 467/3/6 465/3/6 468/3/6
f 466/5/6 467/5/6 469/5/6
f 467/5/6 468/5/6 469/5/6
f 469/5/6 468/5/6 470/5/6
f 466/5/6 469/5/6 471/5/6
f 471/5/6 469/5/6 472/5/6
f 472/5/6 469/5/6 473/5/6
f 470/5/6 468/5/6 474/5/6
f 472/5/6 473/5/6 476/5/6
f 473/5/6 474/5/6 476/5/6
f 455/5/6 457/5/6 477/5/6
f 475/5/6 476/5/6 478/5/6
f 453/3/6 455/3/6 479/3/6
f 477/5/6 478/5/6 479/5/6
f 455/5/6 477/5/6 479/5/6
f 478/5/6 476/5/6 480/5/6
f 479/5/6 478/5/6 480/5/6
f 468/3/6 454/3/6 480/3/6
f 476/5/6 474/5/6 480/5/6
f 474/5/6 468/5/6 480/5/6
f 453/3/6 479/3/6 481/3/6
f 479/3/6 480/3/6 481/3/6
f 480/3/6 454/3/6 482/3/6
f 481/3/6 480/3/6 482/3/6
f 483/1/6 484/1/6 486/1/6
f 484/3/6 485/3/6 487/3/6
f 486/1/6 484/1/6 487/1/6
f 487/3/6 485/3/6 488/3/6
f 489/1/6 490/1/6 494/1/6
f 494/1/6 490/1/6 495/1/6
f 491/1/6 492/1/6 496/1/6
f 496/1/6 492/1/6 497/1/6
f 498/6/6 499/6/6 501/6/6
f 493/1/6 494/1/6 502/1/6
f 502/1/6 494/1/6 503/1/6
f 500/1/6 501/1/6 506/1/6
f 501/6/6 499/6/6 507/6/6
f 506/1/6 501/1/6 507/1/6
f 507/6/6 499/6/6 508/6/6
f 508/6/6 499/6/6 509/6/6
f 504/1/6 505/1/6 510/1/6
f 510/1/6 505/1/6 511/1/6
f 512/1/6 513/1/6 516/1/6
f 516/1/6 513/1/6 517/1/6
f 514/6/6 515/6/6 519/6/6
f 518/1/6 519/1/6 522/1/6
f 519/6/6 515/6/6 523/6/6
f 522/1/6 519/1/6 523/1/6
f 520/1/6 521/1/6 524/1/6
f 524/1/6 521/1/6 525/1/6
f 523/6/6 515/6/6 529/6/6
f 529/6/6 515/6/6 530/6/6
f 525/1/6 526/1/6 531/1/6
f 531/1/6 526/1/6 532/1/6
f 527/1/6 528/1/6 533/1/6
f 533/1/6 528/1/6 534/1/6
f 535/4/6 536/4/6 537/4/6
f 537/4/6 536/4/6 538/4/6
f 539/2/6 540/2/6 541/2/6
f 541/2/6 540/2/6 542/2/6
f 539/2/6 541/2/6 543/2/6
f 542/2/6 540/2/6 544/2/6
f 539/2/6 543/2/6 545/2/6
f 543/2/6 544/2/6 545/2/6
f 544/2/6 540/2/6 546/2/6
f 545/2/6 544/2/6 546/2/6
f 547/2/6 548/2/6 549/2/6
f 549/2/6 548/2/6 550/2/6
f 547/2/6 549/2/6 551/2/6
f 550/2/6 548/2/6 552/2/6
f 547/2/6 551/2/6 553/2/6
f 551/2/6 552/2/6 553/2/6
f 552/2/6 548/2/6 554/2/6
f 553/2/6 552/2/6 554/2/6
f 555/2/6 556/2/6 557/2/6
f 557/2/6 556/2/6 558/2/6
f 555/2/6 557/2/6 559/2/6
f 558/2/6 556/2/6 560/2/6
f 555/2/6 559/2/6 561/2/6
f 559/2/6 560/2/6 561/2/6
f 560/2/6 556/2/6 562/2/6
f 561/2/6 560/2/6 562/2/6
f 563/2/6 564/2/6 565/2/6
f 565/2/6 564/2/6 566/2/6
f 563/2/6 565/2/6 567/2/6
f 566/2/6 564/2/6 568/2/6
f 563/2/6 567/2/6 569/2/6
f 567/2/6 568/2/6 569/2/6
f 568/2/6 564/2/6 570/2/6
f 569/2/6 568/2/6 570/2/6
f 571/2/6 572/2/6 573/2/6
f 573/2/6 572/2/6 574/2/6
f 575/2/6 576/2/6 577/2/6
f 577/2/6 576/2/6 578/2/6
f 575/2/6 577/2/6 579/2/6
f 578/2/6 576/2/6 580/2/6
f 575/2/6 579/2/6 581/2/6
f 579/2/6 580/2/6 581/2/6
f 580/2/6 576/2/6 582/2/6
f 581/2/6 580/2/6 582/2/6
