# MagicaVoxel @ ephtracy

# material
mtllib basketballcourt.mtl
usemtl palette

# normals
vn -1 0 0
vn 1 0 0
vn 0 0 1
vn 0 0 -1
vn 0 -1 0
vn 0 1 0

# texcoords
vt 0.392578 0.5
vt 0.474609 0.5
vt 0.478516 0.5
vt 0.482422 0.5

# verts
v -14.5 0 15
v -14.5 0 -15
v -14.5 2 15
v -14.5 2 14
v -14.5 2 -14
v -14.5 2 -15
v -14.5 6 14
v -14.5 6 -14
v -11.5 2 13
v -11.5 2 -13
v -11.5 3 13
v -11.5 3 -13
v 0.5 8 14
v 0.5 8 13
v 0.5 8 -13
v 0.5 8 -14
v 0.5 12 14
v 0.5 12 13
v 0.5 12 -13
v 0.5 12 -14
v 1.5 8 13
v 1.5 8 11
v 1.5 8 -11
v 1.5 8 -13
v 1.5 9 13
v 1.5 9 11
v 1.5 9 -11
v 1.5 9 -13
v 2.5 2 14
v 2.5 2 13
v 2.5 2 -13
v 2.5 2 -14
v 2.5 8 14
v 2.5 8 13
v 2.5 8 -13
v 2.5 8 -14
v 3.5 8 13
v 3.5 8 12
v 3.5 8 -12
v 3.5 8 -13
v 3.5 9 13
v 3.5 9 12
v 3.5 9 -12
v 3.5 9 -13
v -12.5 2 13
v -12.5 2 -13
v -12.5 3 13
v -12.5 3 -13
v -12.5 5 14
v -12.5 5 -14
v -12.5 6 14
v -12.5 6 -14
v -11.5 4 14
v -11.5 4 -14
v -11.5 5 14
v -11.5 5 -14
v -10.5 3 14
v -10.5 3 -14
v -10.5 4 14
v -10.5 4 -14
v -9.5 2 14
v -9.5 2 -14
v -9.5 3 14
v -9.5 3 -14
v 2.5 8 13
v 2.5 8 12
v 2.5 8 -12
v 2.5 8 -13
v 2.5 9 13
v 2.5 9 12
v 2.5 9 -12
v 2.5 9 -13
v 3.5 2 14
v 3.5 2 13
v 3.5 2 -13
v 3.5 2 -14
v 3.5 8 14
v 3.5 8 13
v 3.5 8 -13
v 3.5 8 -14
v 4.5 8 13
v 4.5 8 11
v 4.5 8 -11
v 4.5 8 -13
v 4.5 9 13
v 4.5 9 11
v 4.5 9 -11
v 4.5 9 -13
v 5.5 8 14
v 5.5 8 13
v 5.5 8 -13
v 5.5 8 -14
v 5.5 12 14
v 5.5 12 13
v 5.5 12 -13
v 5.5 12 -14
v 14.5 0 15
v 14.5 0 -15
v 14.5 2 15
v 14.5 2 -15
v -14.5 0 15
v -14.5 2 15
v 14.5 0 15
v 14.5 2 15
v -14.5 2 14
v -14.5 6 14
v -12.5 5 14
v -12.5 6 14
v -11.5 4 14
v -11.5 5 14
v -10.5 3 14
v -10.5 4 14
v -9.5 2 14
v -9.5 3 14
v 0.5 8 14
v 0.5 12 14
v 2.5 2 14
v 2.5 8 14
v 3.5 2 14
v 3.5 8 14
v 5.5 8 14
v 5.5 12 14
v 2.5 8 12
v 2.5 9 12
v 3.5 8 12
v 3.5 9 12
v 1.5 8 -11
v 1.5 9 -11
v 4.5 8 -11
v 4.5 9 -11
v -12.5 2 -13
v -12.5 3 -13
v -11.5 2 -13
v -11.5 3 -13
v 0.5 8 -13
v 0.5 12 -13
v 1.5 8 -13
v 1.5 9 -13
v 2.5 2 -13
v 2.5 8 -13
v 2.5 9 -13
v 3.5 2 -13
v 3.5 8 -13
v 3.5 9 -13
v 4.5 8 -13
v 4.5 9 -13
v 5.5 8 -13
v 5.5 12 -13
v -12.5 2 13
v -12.5 3 13
v -11.5 2 13
v -11.5 3 13
v 0.5 8 13
v 0.5 12 13
v 1.5 8 13
v 1.5 9 13
v 2.5 2 13
v 2.5 8 13
v 2.5 9 13
v 3.5 2 13
v 3.5 8 13
v 3.5 9 13
v 4.5 8 13
v 4.5 9 13
v 5.5 8 13
v 5.5 12 13
v 1.5 8 11
v 1.5 9 11
v 4.5 8 11
v 4.5 9 11
v 2.5 8 -12
v 2.5 9 -12
v 3.5 8 -12
v 3.5 9 -12
v -14.5 2 -14
v -14.5 6 -14
v -12.5 5 -14
v -12.5 6 -14
v -11.5 4 -14
v -11.5 5 -14
v -10.5 3 -14
v -10.5 4 -14
v -9.5 2 -14
v -9.5 3 -14
v 0.5 8 -14
v 0.5 12 -14
v 2.5 2 -14
v 2.5 8 -14
v 3.5 2 -14
v 3.5 8 -14
v 5.5 8 -14
v 5.5 12 -14
v -14.5 0 -15
v -14.5 2 -15
v 14.5 0 -15
v 14.5 2 -15
v -14.5 0 15
v 14.5 0 15
v -14.5 0 -15
v 14.5 0 -15
v -12.5 3 13
v -11.5 3 13
v -12.5 3 -13
v -11.5 3 -13
v 0.5 8 14
v 2.5 8 14
v 3.5 8 14
v 5.5 8 14
v 0.5 8 13
v 1.5 8 13
v 2.5 8 13
v 3.5 8 13
v 4.5 8 13
v 5.5 8 13
v 2.5 8 12
v 3.5 8 12
v 1.5 8 11
v 4.5 8 11
v 1.5 8 -11
v 4.5 8 -11
v 2.5 8 -12
v 3.5 8 -12
v 0.5 8 -13
v 1.5 8 -13
v 2.5 8 -13
v 3.5 8 -13
v 4.5 8 -13
v 5.5 8 -13
v 0.5 8 -14
v 2.5 8 -14
v 3.5 8 -14
v 5.5 8 -14
v -14.5 2 15
v 14.5 2 15
v -14.5 2 14
v -9.5 2 14
v -7.5 2 14
v 2.5 2 14
v 3.5 2 14
v 13.5 2 14
v -12.5 2 13
v -11.5 2 13
v -6.5 2 13
v -2.5 2 13
v -1.5 2 13
v 2.5 2 13
v 3.5 2 13
v 7.5 2 13
v 8.5 2 13
v 12.5 2 13
v -1.5 2 9
v -0.5 2 9
v 6.5 2 9
v 7.5 2 9
v -2.5 2 8
v -1.5 2 8
v -0.5 2 8
v 0.5 2 8
v 5.5 2 8
v 6.5 2 8
v 7.5 2 8
v 8.5 2 8
v -1.5 2 7
v -0.5 2 7
v 0.5 2 7
v 1.5 2 7
v 4.5 2 7
v 5.5 2 7
v 6.5 2 7
v 7.5 2 7
v -0.5 2 6
v 0.5 2 6
v 1.5 2 6
v 4.5 2 6
v 5.5 2 6
v 6.5 2 6
v 0.5 2 5
v 5.5 2 5
v 0.5 2 3
v 5.5 2 3
v -0.5 2 2
v 0.5 2 2
v 5.5 2 2
v 6.5 2 2
v -6.5 2 1
v -0.5 2 1
v 6.5 2 1
v 12.5 2 1
v -6.5 2 -1
v -0.5 2 -1
v 6.5 2 -1
v 12.5 2 -1
v -0.5 2 -2
v 0.5 2 -2
v 5.5 2 -2
v 6.5 2 -2
v 0.5 2 -3
v 5.5 2 -3
v 0.5 2 -5
v 5.5 2 -5
v -0.5 2 -6
v 0.5 2 -6
v 1.5 2 -6
v 4.5 2 -6
v 5.5 2 -6
v 6.5 2 -6
v -1.5 2 -7
v -0.5 2 -7
v 0.5 2 -7
v 1.5 2 -7
v 4.5 2 -7
v 5.5 2 -7
v 6.5 2 -7
v 7.5 2 -7
v -2.5 2 -8
v -1.5 2 -8
v -0.5 2 -8
v 0.5 2 -8
v 5.5 2 -8
v 6.5 2 -8
v 7.5 2 -8
v 8.5 2 -8
v -1.5 2 -9
v -0.5 2 -9
v 6.5 2 -9
v 7.5 2 -9
v -12.5 2 -13
v -11.5 2 -13
v -6.5 2 -13
v -2.5 2 -13
v -1.5 2 -13
v 2.5 2 -13
v 3.5 2 -13
v 7.5 2 -13
v 8.5 2 -13
v 12.5 2 -13
v -14.5 2 -14
v -9.5 2 -14
v -7.5 2 -14
v 2.5 2 -14
v 3.5 2 -14
v 13.5 2 -14
v -14.5 2 -15
v 14.5 2 -15
v -10.5 3 14
v -9.5 3 14
v -10.5 3 -14
v -9.5 3 -14
v -11.5 4 14
v -10.5 4 14
v -11.5 4 -14
v -10.5 4 -14
v -12.5 5 14
v -11.5 5 14
v -12.5 5 -14
v -11.5 5 -14
v -14.5 6 14
v -12.5 6 14
v -14.5 6 -14
v -12.5 6 -14
v 1.5 9 13
v 2.5 9 13
v 3.5 9 13
v 4.5 9 13
v 2.5 9 12
v 3.5 9 12
v 1.5 9 11
v 4.5 9 11
v 1.5 9 -11
v 4.5 9 -11
v 2.5 9 -12
v 3.5 9 -12
v 1.5 9 -13
v 2.5 9 -13
v 3.5 9 -13
v 4.5 9 -13
v 0.5 12 14
v 5.5 12 14
v 0.5 12 13
v 5.5 12 13
v 0.5 12 -13
v 5.5 12 -13
v 0.5 12 -14
v 5.5 12 -14

# faces
f 3/1/1 2/1/1 1/1/1
f 4/1/1 2/1/1 3/1/1
f 5/1/1 2/1/1 4/1/1
f 6/1/1 2/1/1 5/1/1
f 7/4/1 5/4/1 4/4/1
f 8/4/1 5/4/1 7/4/1
f 11/4/1 10/4/1 9/4/1
f 12/4/1 10/4/1 11/4/1
f 17/2/1 14/2/1 13/2/1
f 18/2/1 14/2/1 17/2/1
f 19/2/1 16/2/1 15/2/1
f 20/2/1 16/2/1 19/2/1
f 25/3/1 22/3/1 21/3/1
f 26/3/1 22/3/1 25/3/1
f 27/3/1 24/3/1 23/3/1
f 28/3/1 24/3/1 27/3/1
f 33/1/1 30/1/1 29/1/1
f 34/1/1 30/1/1 33/1/1
f 35/1/1 32/1/1 31/1/1
f 36/1/1 32/1/1 35/1/1
f 41/3/1 38/3/1 37/3/1
f 42/3/1 38/3/1 41/3/1
f 43/3/1 40/3/1 39/3/1
f 44/3/1 40/3/1 43/3/1
f 45/4/2 46/4/2 47/4/2
f 47/4/2 46/4/2 48/4/2
f 49/4/2 50/4/2 51/4/2
f 51/4/2 50/4/2 52/4/2
f 53/4/2 54/4/2 55/4/2
f 55/4/2 54/4/2 56/4/2
f 57/4/2 58/4/2 59/4/2
f 59/4/2 58/4/2 60/4/2
f 61/4/2 62/4/2 63/4/2
f 63/4/2 62/4/2 64/4/2
f 65/3/2 66/3/2 69/3/2
f 69/3/2 66/3/2 70/3/2
f 67/3/2 68/3/2 71/3/2
f 71/3/2 68/3/2 72/3/2
f 73/1/2 74/1/2 77/1/2
f 77/1/2 74/1/2 78/1/2
f 75/1/2 76/1/2 79/1/2
f 79/1/2 76/1/2 80/1/2
f 81/3/2 82/3/2 85/3/2
f 85/3/2 82/3/2 86/3/2
f 83/3/2 84/3/2 87/3/2
f 87/3/2 84/3/2 88/3/2
f 89/2/2 90/2/2 93/2/2
f 93/2/2 90/2/2 94/2/2
f 91/2/2 92/2/2 95/2/2
f 95/2/2 92/2/2 96/2/2
f 97/1/2 98/1/2 99/1/2
f 99/1/2 98/1/2 100/1/2
f 103/1/3 102/1/3 101/1/3
f 104/1/3 102/1/3 103/1/3
f 107/4/3 106/4/3 105/4/3
f 108/4/3 106/4/3 107/4/3
f 109/4/3 107/4/3 105/4/3
f 110/4/3 107/4/3 109/4/3
f 111/4/3 109/4/3 105/4/3
f 112/4/3 109/4/3 111/4/3
f 113/4/3 111/4/3 105/4/3
f 114/4/3 111/4/3 113/4/3
f 118/2/3 116/2/3 115/2/3
f 119/1/3 118/1/3 117/1/3
f 120/2/3 116/2/3 118/2/3
f 120/1/3 118/1/3 119/1/3
f 121/2/3 116/2/3 120/2/3
f 122/2/3 116/2/3 121/2/3
f 125/3/3 124/3/3 123/3/3
f 126/3/3 124/3/3 125/3/3
f 129/3/3 128/3/3 127/3/3
f 130/3/3 128/3/3 129/3/3
f 133/4/3 132/4/3 131/4/3
f 134/4/3 132/4/3 133/4/3
f 137/2/3 136/2/3 135/2/3
f 138/2/3 136/2/3 137/2/3
f 141/2/3 136/2/3 138/2/3
f 142/1/3 140/1/3 139/1/3
f 143/2/3 141/2/3 140/2/3
f 143/1/3 140/1/3 142/1/3
f 144/2/3 136/2/3 141/2/3
f 144/2/3 141/2/3 143/2/3
f 146/2/3 136/2/3 144/2/3
f 147/2/3 146/2/3 145/2/3
f 148/2/3 136/2/3 146/2/3
f 148/2/3 146/2/3 147/2/3
f 149/4/4 150/4/4 151/4/4
f 151/4/4 150/4/4 152/4/4
f 153/2/4 154/2/4 155/2/4
f 155/2/4 154/2/4 156/2/4
f 156/2/4 154/2/4 159/2/4
f 157/1/4 158/1/4 160/1/4
f 158/2/4 159/2/4 161/2/4
f 160/1/4 158/1/4 161/1/4
f 159/2/4 154/2/4 162/2/4
f 161/2/4 159/2/4 162/2/4
f 162/2/4 154/2/4 164/2/4
f 163/2/4 164/2/4 165/2/4
f 164/2/4 154/2/4 166/2/4
f 165/2/4 164/2/4 166/2/4
f 167/3/4 168/3/4 169/3/4
f 169/3/4 168/3/4 170/3/4
f 171/3/4 172/3/4 173/3/4
f 173/3/4 172/3/4 174/3/4
f 175/4/4 176/4/4 177/4/4
f 177/4/4 176/4/4 178/4/4
f 175/4/4 177/4/4 179/4/4
f 179/4/4 177/4/4 180/4/4
f 175/4/4 179/4/4 181/4/4
f 181/4/4 179/4/4 182/4/4
f 175/4/4 181/4/4 183/4/4
f 183/4/4 181/4/4 184/4/4
f 185/2/4 186/2/4 188/2/4
f 187/1/4 188/1/4 189/1/4
f 188/2/4 186/2/4 190/2/4
f 189/1/4 188/1/4 190/1/4
f 190/2/4 186/2/4 191/2/4
f 191/2/4 186/2/4 192/2/4
f 193/1/4 194/1/4 195/1/4
f 195/1/4 194/1/4 196/1/4
f 199/1/5 198/1/5 197/1/5
f 200/1/5 198/1/5 199/1/5
f 203/4/5 202/4/5 201/4/5
f 204/4/5 202/4/5 203/4/5
f 209/2/5 206/2/5 205/2/5
f 210/2/5 206/2/5 209/2/5
f 211/2/5 206/2/5 210/2/5
f 212/2/5 208/2/5 207/2/5
f 213/2/5 208/2/5 212/2/5
f 214/2/5 208/2/5 213/2/5
f 215/3/5 211/3/5 210/3/5
f 216/3/5 213/3/5 212/3/5
f 217/3/5 215/3/5 210/3/5
f 217/3/5 216/3/5 215/3/5
f 218/3/5 213/3/5 216/3/5
f 218/3/5 216/3/5 217/3/5
f 221/3/5 220/3/5 219/3/5
f 222/3/5 220/3/5 221/3/5
f 224/3/5 221/3/5 219/3/5
f 225/3/5 221/3/5 224/3/5
f 226/3/5 220/3/5 222/3/5
f 227/3/5 220/3/5 226/3/5
f 229/2/5 225/2/5 224/2/5
f 229/2/5 224/2/5 223/2/5
f 230/2/5 225/2/5 229/2/5
f 231/2/5 227/2/5 226/2/5
f 231/2/5 228/2/5 227/2/5
f 232/2/5 228/2/5 231/2/5
f 233/1/6 234/1/6 235/1/6
f 235/1/6 234/1/6 236/1/6
f 236/1/6 234/1/6 237/1/6
f 237/1/6 234/1/6 238/1/6
f 238/1/6 234/1/6 239/1/6
f 239/1/6 234/1/6 240/1/6
f 237/2/6 238/2/6 243/2/6
f 243/2/6 238/2/6 244/2/6
f 244/2/6 238/2/6 245/2/6
f 245/2/6 238/2/6 246/2/6
f 239/2/6 240/2/6 247/2/6
f 247/2/6 240/2/6 248/2/6
f 248/2/6 240/2/6 249/2/6
f 249/2/6 240/2/6 250/2/6
f 245/1/6 246/1/6 251/1/6
f 244/2/6 245/2/6 251/2/6
f 246/1/6 247/1/6 251/1/6
f 247/1/6 248/1/6 251/1/6
f 251/1/6 248/1/6 252/1/6
f 252/1/6 248/1/6 253/1/6
f 248/2/6 249/2/6 254/2/6
f 253/1/6 248/1/6 254/1/6
f 243/1/6 244/1/6 255/1/6
f 244/2/6 251/2/6 255/2/6
f 251/2/6 252/2/6 255/2/6
f 255/2/6 252/2/6 256/2/6
f 252/1/6 253/1/6 257/1/6
f 256/2/6 252/2/6 257/2/6
f 257/1/6 253/1/6 258/1/6
f 258/1/6 253/1/6 259/1/6
f 253/2/6 254/2/6 260/2/6
f 259/1/6 253/1/6 260/1/6
f 254/2/6 249/2/6 261/2/6
f 260/2/6 254/2/6 261/2/6
f 249/1/6 250/1/6 262/1/6
f 261/2/6 249/2/6 262/2/6
f 255/1/6 256/1/6 263/1/6
f 256/2/6 257/2/6 263/2/6
f 257/2/6 258/2/6 263/2/6
f 263/2/6 258/2/6 264/2/6
f 258/1/6 259/1/6 265/1/6
f 264/2/6 258/2/6 265/2/6
f 265/1/6 259/1/6 266/1/6
f 266/1/6 259/1/6 267/1/6
f 259/2/6 260/2/6 268/2/6
f 267/1/6 259/1/6 268/1/6
f 260/2/6 261/2/6 268/2/6
f 268/2/6 261/2/6 269/2/6
f 261/1/6 262/1/6 270/1/6
f 269/2/6 261/2/6 270/2/6
f 265/2/6 266/2/6 271/2/6
f 263/1/6 264/1/6 271/1/6
f 264/2/6 265/2/6 271/2/6
f 271/2/6 266/2/6 272/2/6
f 266/1/6 267/1/6 273/1/6
f 272/2/6 266/2/6 273/2/6
f 268/2/6 269/2/6 274/2/6
f 273/1/6 267/1/6 274/1/6
f 267/2/6 268/2/6 274/2/6
f 274/2/6 269/2/6 275/2/6
f 269/1/6 270/1/6 276/1/6
f 275/2/6 269/2/6 276/2/6
f 271/1/6 272/1/6 277/1/6
f 274/2/6 275/2/6 277/2/6
f 272/2/6 273/2/6 277/2/6
f 273/2/6 274/2/6 277/2/6
f 275/1/6 276/1/6 278/1/6
f 277/2/6 275/2/6 278/2/6
f 271/1/6 277/1/6 279/1/6
f 277/1/6 278/1/6 279/1/6
f 278/1/6 276/1/6 280/1/6
f 279/1/6 278/1/6 280/1/6
f 271/1/6 279/1/6 281/1/6
f 263/1/6 271/1/6 281/1/6
f 279/2/6 280/2/6 282/2/6
f 281/1/6 279/1/6 282/1/6
f 280/1/6 276/1/6 283/1/6
f 282/2/6 280/2/6 283/2/6
f 276/1/6 270/1/6 284/1/6
f 283/1/6 276/1/6 284/1/6
f 237/2/6 243/2/6 285/2/6
f 243/1/6 255/1/6 285/1/6
f 263/1/6 281/1/6 285/1/6
f 255/1/6 263/1/6 285/1/6
f 281/2/6 282/2/6 286/2/6
f 285/1/6 281/1/6 286/1/6
f 284/1/6 270/1/6 287/1/6
f 283/2/6 284/2/6 287/2/6
f 250/2/6 240/2/6 288/2/6
f 287/1/6 270/1/6 288/1/6
f 270/1/6 262/1/6 288/1/6
f 262/1/6 250/1/6 288/1/6
f 285/2/6 286/2/6 289/2/6
f 237/2/6 285/2/6 289/2/6
f 286/2/6 282/2/6 290/2/6
f 289/2/6 286/2/6 290/2/6
f 283/2/6 287/2/6 291/2/6
f 287/2/6 288/2/6 291/2/6
f 288/2/6 240/2/6 292/2/6
f 291/2/6 288/2/6 292/2/6
f 290/2/6 282/2/6 293/2/6
f 289/1/6 290/1/6 293/1/6
f 282/1/6 283/1/6 294/1/6
f 293/2/6 282/2/6 294/2/6
f 283/2/6 291/2/6 295/2/6
f 294/1/6 283/1/6 295/1/6
f 291/1/6 292/1/6 296/1/6
f 295/2/6 291/2/6 296/2/6
f 293/1/6 294/1/6 297/1/6
f 294/2/6 295/2/6 297/2/6
f 295/1/6 296/1/6 298/1/6
f 297/2/6 295/2/6 298/2/6
f 293/1/6 297/1/6 299/1/6
f 297/1/6 298/1/6 299/1/6
f 298/1/6 296/1/6 300/1/6
f 299/1/6 298/1/6 300/1/6
f 289/1/6 293/1/6 301/1/6
f 293/1/6 299/1/6 301/1/6
f 299/2/6 300/2/6 302/2/6
f 301/1/6 299/1/6 302/1/6
f 302/2/6 300/2/6 303/2/6
f 303/2/6 300/2/6 304/2/6
f 300/1/6 296/1/6 305/1/6
f 304/2/6 300/2/6 305/2/6
f 296/1/6 292/1/6 306/1/6
f 305/1/6 296/1/6 306/1/6
f 289/1/6 301/1/6 307/1/6
f 301/2/6 302/2/6 308/2/6
f 307/1/6 301/1/6 308/1/6
f 302/2/6 303/2/6 308/2/6
f 308/2/6 303/2/6 309/2/6
f 303/1/6 304/1/6 310/1/6
f 309/2/6 303/2/6 310/2/6
f 304/2/6 305/2/6 311/2/6
f 310/1/6 304/1/6 311/1/6
f 305/2/6 306/2/6 311/2/6
f 311/2/6 306/2/6 312/2/6
f 306/1/6 292/1/6 313/1/6
f 312/2/6 306/2/6 313/2/6
f 313/1/6 292/1/6 314/1/6
f 289/1/6 307/1/6 315/1/6
f 308/2/6 309/2/6 316/2/6
f 315/1/6 307/1/6 316/1/6
f 307/2/6 308/2/6 316/2/6
f 316/2/6 309/2/6 317/2/6
f 309/1/6 310/1/6 318/1/6
f 317/2/6 309/2/6 318/2/6
f 311/1/6 312/1/6 318/1/6
f 310/1/6 311/1/6 318/1/6
f 313/2/6 314/2/6 319/2/6
f 318/1/6 312/1/6 319/1/6
f 312/2/6 313/2/6 319/2/6
f 319/2/6 314/2/6 320/2/6
f 314/1/6 292/1/6 321/1/6
f 320/2/6 314/2/6 321/2/6
f 321/1/6 292/1/6 322/1/6
f 316/2/6 317/2/6 323/2/6
f 315/2/6 316/2/6 323/2/6
f 319/1/6 320/1/6 324/1/6
f 323/2/6 317/2/6 324/2/6
f 317/1/6 318/1/6 324/1/6
f 318/1/6 319/1/6 324/1/6
f 321/2/6 322/2/6 325/2/6
f 324/1/6 320/1/6 325/1/6
f 320/2/6 321/2/6 325/2/6
f 325/2/6 322/2/6 326/2/6
f 241/1/6 242/1/6 327/1/6
f 327/1/6 242/1/6 328/1/6
f 237/2/6 289/2/6 329/2/6
f 289/1/6 315/1/6 329/1/6
f 315/2/6 323/2/6 330/2/6
f 329/1/6 315/1/6 330/1/6
f 323/1/6 324/1/6 331/1/6
f 330/2/6 323/2/6 331/2/6
f 324/1/6 325/1/6 331/1/6
f 325/1/6 326/1/6 331/1/6
f 331/1/6 326/1/6 332/1/6
f 332/1/6 326/1/6 333/1/6
f 326/2/6 322/2/6 334/2/6
f 333/1/6 326/1/6 334/1/6
f 322/1/6 292/1/6 335/1/6
f 334/2/6 322/2/6 335/2/6
f 292/2/6 240/2/6 336/2/6
f 335/1/6 292/1/6 336/1/6
f 236/1/6 237/1/6 338/1/6
f 331/2/6 332/2/6 339/2/6
f 329/2/6 330/2/6 339/2/6
f 338/1/6 237/1/6 339/1/6
f 237/2/6 329/2/6 339/2/6
f 330/2/6 331/2/6 339/2/6
f 339/2/6 332/2/6 340/2/6
f 334/2/6 335/2/6 341/2/6
f 335/2/6 336/2/6 341/2/6
f 333/2/6 334/2/6 341/2/6
f 240/1/6 234/1/6 342/1/6
f 336/2/6 240/2/6 342/2/6
f 341/2/6 336/2/6 342/2/6
f 340/1/6 341/1/6 343/1/6
f 337/1/6 338/1/6 343/1/6
f 341/1/6 342/1/6 343/1/6
f 339/1/6 340/1/6 343/1/6
f 338/1/6 339/1/6 343/1/6
f 342/1/6 234/1/6 344/1/6
f 343/1/6 342/1/6 344/1/6
f 345/4/6 346/4/6 347/4/6
f 347/4/6 346/4/6 348/4/6
f 349/4/6 350/4/6 351/4/6
f 351/4/6 350/4/6 352/4/6
f 353/4/6 354/4/6 355/4/6
f 355/4/6 354/4/6 356/4/6
f 357/4/6 358/4/6 359/4/6
f 359/4/6 358/4/6 360/4/6
f 361/3/6 362/3/6 365/3/6
f 363/3/6 364/3/6 366/3/6
f 361/3/6 365/3/6 367/3/6
f 365/3/6 366/3/6 367/3/6
f 366/3/6 364/3/6 368/3/6
f 367/3/6 366/3/6 368/3/6
f 369/3/6 370/3/6 371/3/6
f 371/3/6 370/3/6 372/3/6
f 369/3/6 371/3/6 373/3/6
f 373/3/6 371/3/6 374/3/6
f 372/3/6 370/3/6 375/3/6
f 375/3/6 370/3/6 376/3/6
f 377/2/6 378/2/6 379/2/6
f 379/2/6 378/2/6 380/2/6
f 381/2/6 382/2/6 383/2/6
f 383/2/6 382/2/6 384/2/6
