# MagicaVoxel @ ephtracy

# material
mtllib road.mtl
usemtl palette

# normals
vn -1 0 0
vn 1 0 0
vn 0 0 1
vn 0 0 -1
vn 0 -1 0
vn 0 1 0

# texcoords
vt 0.978516 0.5
vt 0.982422 0.5
vt 0.986328 0.5
vt 0.990234 0.5

# verts
v -15 0 15
v -15 0 -15
v -15 1 15
v -15 1 -15
v -15 2 15
v -15 2 -15
v 11 1 15
v 11 1 -15
v 11 2 15
v 11 2 -15
v -11 1 15
v -11 1 -15
v -11 2 15
v -11 2 -15
v 15 0 15
v 15 0 -15
v 15 1 15
v 15 1 -15
v 15 2 15
v 15 2 -15
v -15 0 15
v -15 1 15
v -15 2 15
v -11 0 15
v -11 1 15
v -11 2 15
v 11 0 15
v 11 1 15
v 11 2 15
v 15 0 15
v 15 1 15
v 15 2 15
v -15 0 -15
v -15 1 -15
v -15 2 -15
v -11 0 -15
v -11 1 -15
v -11 2 -15
v 11 0 -15
v 11 1 -15
v 11 2 -15
v 15 0 -15
v 15 1 -15
v 15 2 -15
v -15 0 15
v -11 0 15
v 11 0 15
v 15 0 15
v -1 0 14
v 1 0 14
v -1 0 11
v 1 0 11
v -1 0 9
v 1 0 9
v -1 0 6
v 1 0 6
v -1 0 4
v 1 0 4
v -1 0 1
v 1 0 1
v -1 0 -1
v 1 0 -1
v -1 0 -4
v 1 0 -4
v -1 0 -6
v 1 0 -6
v -1 0 -9
v 1 0 -9
v -1 0 -11
v 1 0 -11
v -1 0 -14
v 1 0 -14
v -15 0 -15
v -11 0 -15
v 11 0 -15
v 15 0 -15
v -11 1 15
v 11 1 15
v -1 1 14
v 1 1 14
v -1 1 11
v 1 1 11
v -1 1 9
v 1 1 9
v -1 1 6
v 1 1 6
v -1 1 4
v 1 1 4
v -1 1 1
v 1 1 1
v -1 1 -1
v 1 1 -1
v -1 1 -4
v 1 1 -4
v -1 1 -6
v 1 1 -6
v -1 1 -9
v 1 1 -9
v -1 1 -11
v 1 1 -11
v -1 1 -14
v 1 1 -14
v -11 1 -15
v 11 1 -15
v -15 2 15
v -11 2 15
v 11 2 15
v 15 2 15
v -15 2 -15
v -11 2 -15
v 11 2 -15
v 15 2 -15

# faces
f 3/4/1 2/4/1 1/4/1
f 4/4/1 2/4/1 3/4/1
f 5/2/1 4/2/1 3/2/1
f 6/2/1 4/2/1 5/2/1
f 9/2/1 8/2/1 7/2/1
f 10/2/1 8/2/1 9/2/1
f 11/2/2 12/2/2 13/2/2
f 13/2/2 12/2/2 14/2/2
f 15/4/2 16/4/2 17/4/2
f 17/4/2 16/4/2 18/4/2
f 17/2/2 18/2/2 19/2/2
f 19/2/2 18/2/2 20/2/2
f 24/4/3 22/4/3 21/4/3
f 25/2/3 23/2/3 22/2/3
f 25/4/3 22/4/3 24/4/3
f 26/2/3 23/2/3 25/2/3
f 27/1/3 25/1/3 24/1/3
f 28/1/3 25/1/3 27/1/3
f 30/4/3 28/4/3 27/4/3
f 31/2/3 29/2/3 28/2/3
f 31/4/3 28/4/3 30/4/3
f 32/2/3 29/2/3 31/2/3
f 33/4/4 34/4/4 36/4/4
f 34/2/4 35/2/4 37/2/4
f 36/4/4 34/4/4 37/4/4
f 37/2/4 35/2/4 38/2/4
f 36/1/4 37/1/4 39/1/4
f 39/1/4 37/1/4 40/1/4
f 39/4/4 40/4/4 42/4/4
f 40/2/4 41/2/4 43/2/4
f 42/4/4 40/4/4 43/4/4
f 43/2/4 41/2/4 44/2/4
f 49/1/5 47/1/5 46/1/5
f 50/1/5 47/1/5 49/1/5
f 51/1/5 49/1/5 46/1/5
f 51/3/5 50/3/5 49/3/5
f 52/1/5 47/1/5 50/1/5
f 52/3/5 50/3/5 51/3/5
f 53/1/5 51/1/5 46/1/5
f 53/1/5 52/1/5 51/1/5
f 54/1/5 47/1/5 52/1/5
f 54/1/5 52/1/5 53/1/5
f 55/1/5 53/1/5 46/1/5
f 55/3/5 54/3/5 53/3/5
f 56/1/5 47/1/5 54/1/5
f 56/3/5 54/3/5 55/3/5
f 57/1/5 55/1/5 46/1/5
f 57/1/5 56/1/5 55/1/5
f 58/1/5 47/1/5 56/1/5
f 58/1/5 56/1/5 57/1/5
f 59/1/5 57/1/5 46/1/5
f 59/3/5 58/3/5 57/3/5
f 60/1/5 47/1/5 58/1/5
f 60/3/5 58/3/5 59/3/5
f 61/1/5 59/1/5 46/1/5
f 61/1/5 60/1/5 59/1/5
f 62/1/5 47/1/5 60/1/5
f 62/1/5 60/1/5 61/1/5
f 63/1/5 61/1/5 46/1/5
f 63/3/5 62/3/5 61/3/5
f 64/1/5 47/1/5 62/1/5
f 64/3/5 62/3/5 63/3/5
f 65/1/5 63/1/5 46/1/5
f 65/1/5 64/1/5 63/1/5
f 66/1/5 47/1/5 64/1/5
f 66/1/5 64/1/5 65/1/5
f 67/1/5 65/1/5 46/1/5
f 67/3/5 66/3/5 65/3/5
f 68/1/5 47/1/5 66/1/5
f 68/3/5 66/3/5 67/3/5
f 69/1/5 67/1/5 46/1/5
f 69/1/5 68/1/5 67/1/5
f 70/1/5 47/1/5 68/1/5
f 70/1/5 68/1/5 69/1/5
f 71/1/5 69/1/5 46/1/5
f 71/3/5 70/3/5 69/3/5
f 72/1/5 47/1/5 70/1/5
f 72/3/5 70/3/5 71/3/5
f 73/4/5 46/4/5 45/4/5
f 74/1/5 71/1/5 46/1/5
f 74/4/5 46/4/5 73/4/5
f 74/1/5 72/1/5 71/1/5
f 75/1/5 47/1/5 72/1/5
f 75/1/5 72/1/5 74/1/5
f 75/4/5 48/4/5 47/4/5
f 76/4/5 48/4/5 75/4/5
f 77/1/6 78/1/6 79/1/6
f 79/1/6 78/1/6 80/1/6
f 77/1/6 79/1/6 81/1/6
f 79/3/6 80/3/6 81/3/6
f 80/1/6 78/1/6 82/1/6
f 81/3/6 80/3/6 82/3/6
f 77/1/6 81/1/6 83/1/6
f 81/1/6 82/1/6 83/1/6
f 82/1/6 78/1/6 84/1/6
f 83/1/6 82/1/6 84/1/6
f 77/1/6 83/1/6 85/1/6
f 83/3/6 84/3/6 85/3/6
f 84/1/6 78/1/6 86/1/6
f 85/3/6 84/3/6 86/3/6
f 77/1/6 85/1/6 87/1/6
f 85/1/6 86/1/6 87/1/6
f 86/1/6 78/1/6 88/1/6
f 87/1/6 86/1/6 88/1/6
f 77/1/6 87/1/6 89/1/6
f 87/3/6 88/3/6 89/3/6
f 88/1/6 78/1/6 90/1/6
f 89/3/6 88/3/6 90/3/6
f 77/1/6 89/1/6 91/1/6
f 89/1/6 90/1/6 91/1/6
f 90/1/6 78/1/6 92/1/6
f 91/1/6 90/1/6 92/1/6
f 77/1/6 91/1/6 93/1/6
f 91/3/6 92/3/6 93/3/6
f 92/1/6 78/1/6 94/1/6
f 93/3/6 92/3/6 94/3/6
f 77/1/6 93/1/6 95/1/6
f 93/1/6 94/1/6 95/1/6
f 94/1/6 78/1/6 96/1/6
f 95/1/6 94/1/6 96/1/6
f 77/1/6 95/1/6 97/1/6
f 95/3/6 96/3/6 97/3/6
f 96/1/6 78/1/6 98/1/6
f 97/3/6 96/3/6 98/3/6
f 77/1/6 97/1/6 99/1/6
f 97/1/6 98/1/6 99/1/6
f 98/1/6 78/1/6 100/1/6
f 99/1/6 98/1/6 100/1/6
f 77/1/6 99/1/6 101/1/6
f 99/3/6 100/3/6 101/3/6
f 100/1/6 78/1/6 102/1/6
f 101/3/6 100/3/6 102/3/6
f 77/1/6 101/1/6 103/1/6
f 101/1/6 102/1/6 103/1/6
f 102/1/6 78/1/6 104/1/6
f 103/1/6 102/1/6 104/1/6
f 105/2/6 106/2/6 109/2/6
f 109/2/6 106/2/6 110/2/6
f 107/2/6 108/2/6 111/2/6
f 111/2/6 108/2/6 112/2/6
