# MagicaVoxel @ ephtracy

# material
mtllib roadHydrants.mtl
usemtl palette

# normals
vn -1 0 0
vn 1 0 0
vn 0 0 1
vn 0 0 -1
vn 0 -1 0
vn 0 1 0

# texcoords
vt 0.947266 0.5
vt 0.978516 0.5
vt 0.982422 0.5
vt 0.986328 0.5
vt 0.990234 0.5

# verts
v -15 0 15
v -15 0 -15
v -15 1 15
v -15 1 -15
v -15 2 15
v -15 2 -15
v -15 4 12
v -15 4 10
v -15 5 12
v -15 5 10
v -14 2 12
v -14 2 10
v -14 4 13
v -14 4 12
v -14 4 10
v -14 4 9
v -14 5 13
v -14 5 12
v -14 5 10
v -14 5 9
v -14 6 12
v -14 6 10
v 11 1 15
v 11 1 -15
v 11 2 15
v 11 2 -15
v 11 4 -11
v 11 4 -13
v 11 5 -11
v 11 5 -13
v 12 2 -11
v 12 2 -13
v 12 4 -10
v 12 4 -11
v 12 4 -13
v 12 4 -14
v 12 5 -10
v 12 5 -11
v 12 5 -13
v 12 5 -14
v 12 6 -11
v 12 6 -13
v -12 2 12
v -12 2 10
v -12 4 13
v -12 4 12
v -12 4 10
v -12 4 9
v -12 5 13
v -12 5 12
v -12 5 10
v -12 5 9
v -12 6 12
v -12 6 10
v -11 1 15
v -11 1 -15
v -11 2 15
v -11 2 -15
v -11 4 12
v -11 4 10
v -11 5 12
v -11 5 10
v 14 2 -11
v 14 2 -13
v 14 4 -10
v 14 4 -11
v 14 4 -13
v 14 4 -14
v 14 5 -10
v 14 5 -11
v 14 5 -13
v 14 5 -14
v 14 6 -11
v 14 6 -13
v 15 0 15
v 15 0 -15
v 15 1 15
v 15 1 -15
v 15 2 15
v 15 2 -15
v 15 4 -11
v 15 4 -13
v 15 5 -11
v 15 5 -13
v -15 0 15
v -15 1 15
v -15 2 15
v -11 0 15
v -11 1 15
v -11 2 15
v 11 0 15
v 11 1 15
v 11 2 15
v 15 0 15
v 15 1 15
v 15 2 15
v -14 4 13
v -14 5 13
v -12 4 13
v -12 5 13
v -15 4 12
v -15 5 12
v -14 2 12
v -14 4 12
v -14 5 12
v -14 6 12
v -12 2 12
v -12 4 12
v -12 5 12
v -12 6 12
v -11 4 12
v -11 5 12
v 12 4 -10
v 12 5 -10
v 14 4 -10
v 14 5 -10
v 11 4 -11
v 11 5 -11
v 12 2 -11
v 12 4 -11
v 12 5 -11
v 12 6 -11
v 14 2 -11
v 14 4 -11
v 14 5 -11
v 14 6 -11
v 15 4 -11
v 15 5 -11
v -15 4 10
v -15 5 10
v -14 2 10
v -14 4 10
v -14 5 10
v -14 6 10
v -12 2 10
v -12 4 10
v -12 5 10
v -12 6 10
v -11 4 10
v -11 5 10
v -14 4 9
v -14 5 9
v -12 4 9
v -12 5 9
v 11 4 -13
v 11 5 -13
v 12 2 -13
v 12 4 -13
v 12 5 -13
v 12 6 -13
v 14 2 -13
v 14 4 -13
v 14 5 -13
v 14 6 -13
v 15 4 -13
v 15 5 -13
v 12 4 -14
v 12 5 -14
v 14 4 -14
v 14 5 -14
v -15 0 -15
v -15 1 -15
v -15 2 -15
v -11 0 -15
v -11 1 -15
v -11 2 -15
v 11 0 -15
v 11 1 -15
v 11 2 -15
v 15 0 -15
v 15 1 -15
v 15 2 -15
v -15 0 15
v -11 0 15
v 11 0 15
v 15 0 15
v -1 0 14
v 1 0 14
v -1 0 11
v 1 0 11
v -1 0 9
v 1 0 9
v -1 0 6
v 1 0 6
v -1 0 4
v 1 0 4
v -1 0 1
v 1 0 1
v -1 0 -1
v 1 0 -1
v -1 0 -4
v 1 0 -4
v -1 0 -6
v 1 0 -6
v -1 0 -9
v 1 0 -9
v -1 0 -11
v 1 0 -11
v -1 0 -14
v 1 0 -14
v -15 0 -15
v -11 0 -15
v 11 0 -15
v 15 0 -15
v -14 4 13
v -12 4 13
v -15 4 12
v -14 4 12
v -12 4 12
v -11 4 12
v -15 4 10
v -14 4 10
v -12 4 10
v -11 4 10
v -14 4 9
v -12 4 9
v 12 4 -10
v 14 4 -10
v 11 4 -11
v 12 4 -11
v 14 4 -11
v 15 4 -11
v 11 4 -13
v 12 4 -13
v 14 4 -13
v 15 4 -13
v 12 4 -14
v 14 4 -14
v -11 1 15
v 11 1 15
v -1 1 14
v 1 1 14
v -1 1 11
v 1 1 11
v -1 1 9
v 1 1 9
v -1 1 6
v 1 1 6
v -1 1 4
v 1 1 4
v -1 1 1
v 1 1 1
v -1 1 -1
v 1 1 -1
v -1 1 -4
v 1 1 -4
v -1 1 -6
v 1 1 -6
v -1 1 -9
v 1 1 -9
v -1 1 -11
v 1 1 -11
v -1 1 -14
v 1 1 -14
v -11 1 -15
v 11 1 -15
v -15 2 15
v -11 2 15
v 11 2 15
v 15 2 15
v -14 2 12
v -12 2 12
v -14 2 10
v -12 2 10
v 12 2 -11
v 14 2 -11
v 12 2 -13
v 14 2 -13
v -15 2 -15
v -11 2 -15
v 11 2 -15
v 15 2 -15
v -14 5 13
v -12 5 13
v -15 5 12
v -14 5 12
v -12 5 12
v -11 5 12
v -15 5 10
v -14 5 10
v -12 5 10
v -11 5 10
v -14 5 9
v -12 5 9
v 12 5 -10
v 14 5 -10
v 11 5 -11
v 12 5 -11
v 14 5 -11
v 15 5 -11
v 11 5 -13
v 12 5 -13
v 14 5 -13
v 15 5 -13
v 12 5 -14
v 14 5 -14
v -14 6 12
v -12 6 12
v -14 6 10
v -12 6 10
v 12 6 -11
v 14 6 -11
v 12 6 -13
v 14 6 -13

# faces
f 3/5/1 2/5/1 1/5/1
f 4/5/1 2/5/1 3/5/1
f 5/3/1 4/3/1 3/3/1
f 6/3/1 4/3/1 5/3/1
f 9/1/1 8/1/1 7/1/1
f 10/1/1 8/1/1 9/1/1
f 14/1/1 12/1/1 11/1/1
f 15/1/1 12/1/1 14/1/1
f 17/1/1 14/1/1 13/1/1
f 18/1/1 14/1/1 17/1/1
f 19/1/1 16/1/1 15/1/1
f 20/1/1 16/1/1 19/1/1
f 21/1/1 19/1/1 18/1/1
f 22/1/1 19/1/1 21/1/1
f 25/3/1 24/3/1 23/3/1
f 26/3/1 24/3/1 25/3/1
f 29/1/1 28/1/1 27/1/1
f 30/1/1 28/1/1 29/1/1
f 34/1/1 32/1/1 31/1/1
f 35/1/1 32/1/1 34/1/1
f 37/1/1 34/1/1 33/1/1
f 38/1/1 34/1/1 37/1/1
f 39/1/1 36/1/1 35/1/1
f 40/1/1 36/1/1 39/1/1
f 41/1/1 39/1/1 38/1/1
f 42/1/1 39/1/1 41/1/1
f 43/1/2 44/1/2 46/1/2
f 46/1/2 44/1/2 47/1/2
f 45/1/2 46/1/2 49/1/2
f 49/1/2 46/1/2 50/1/2
f 47/1/2 48/1/2 51/1/2
f 51/1/2 48/1/2 52/1/2
f 50/1/2 51/1/2 53/1/2
f 53/1/2 51/1/2 54/1/2
f 55/3/2 56/3/2 57/3/2
f 57/3/2 56/3/2 58/3/2
f 59/1/2 60/1/2 61/1/2
f 61/1/2 60/1/2 62/1/2
f 63/1/2 64/1/2 66/1/2
f 66/1/2 64/1/2 67/1/2
f 65/1/2 66/1/2 69/1/2
f 69/1/2 66/1/2 70/1/2
f 67/1/2 68/1/2 71/1/2
f 71/1/2 68/1/2 72/1/2
f 70/1/2 71/1/2 73/1/2
f 73/1/2 71/1/2 74/1/2
f 75/5/2 76/5/2 77/5/2
f 77/5/2 76/5/2 78/5/2
f 77/3/2 78/3/2 79/3/2
f 79/3/2 78/3/2 80/3/2
f 81/1/2 82/1/2 83/1/2
f 83/1/2 82/1/2 84/1/2
f 88/5/3 86/5/3 85/5/3
f 89/3/3 87/3/3 86/3/3
f 89/5/3 86/5/3 88/5/3
f 90/3/3 87/3/3 89/3/3
f 91/2/3 89/2/3 88/2/3
f 92/2/3 89/2/3 91/2/3
f 94/5/3 92/5/3 91/5/3
f 95/3/3 93/3/3 92/3/3
f 95/5/3 92/5/3 94/5/3
f 96/3/3 93/3/3 95/3/3
f 99/1/3 98/1/3 97/1/3
f 100/1/3 98/1/3 99/1/3
f 104/1/3 102/1/3 101/1/3
f 105/1/3 102/1/3 104/1/3
f 107/1/3 104/1/3 103/1/3
f 108/1/3 104/1/3 107/1/3
f 109/1/3 106/1/3 105/1/3
f 110/1/3 106/1/3 109/1/3
f 111/1/3 109/1/3 108/1/3
f 112/1/3 109/1/3 111/1/3
f 115/1/3 114/1/3 113/1/3
f 116/1/3 114/1/3 115/1/3
f 120/1/3 118/1/3 117/1/3
f 121/1/3 118/1/3 120/1/3
f 123/1/3 120/1/3 119/1/3
f 124/1/3 120/1/3 123/1/3
f 125/1/3 122/1/3 121/1/3
f 126/1/3 122/1/3 125/1/3
f 127/1/3 125/1/3 124/1/3
f 128/1/3 125/1/3 127/1/3
f 129/1/4 130/1/4 132/1/4
f 132/1/4 130/1/4 133/1/4
f 131/1/4 132/1/4 135/1/4
f 135/1/4 132/1/4 136/1/4
f 133/1/4 134/1/4 137/1/4
f 137/1/4 134/1/4 138/1/4
f 136/1/4 137/1/4 139/1/4
f 139/1/4 137/1/4 140/1/4
f 141/1/4 142/1/4 143/1/4
f 143/1/4 142/1/4 144/1/4
f 145/1/4 146/1/4 148/1/4
f 148/1/4 146/1/4 149/1/4
f 147/1/4 148/1/4 151/1/4
f 151/1/4 148/1/4 152/1/4
f 149/1/4 150/1/4 153/1/4
f 153/1/4 150/1/4 154/1/4
f 152/1/4 153/1/4 155/1/4
f 155/1/4 153/1/4 156/1/4
f 157/1/4 158/1/4 159/1/4
f 159/1/4 158/1/4 160/1/4
f 161/5/4 162/5/4 164/5/4
f 162/3/4 163/3/4 165/3/4
f 164/5/4 162/5/4 165/5/4
f 165/3/4 163/3/4 166/3/4
f 164/2/4 165/2/4 167/2/4
f 167/2/4 165/2/4 168/2/4
f 167/5/4 168/5/4 170/5/4
f 168/3/4 169/3/4 171/3/4
f 170/5/4 168/5/4 171/5/4
f 171/3/4 169/3/4 172/3/4
f 177/2/5 175/2/5 174/2/5
f 178/2/5 175/2/5 177/2/5
f 179/2/5 177/2/5 174/2/5
f 179/4/5 178/4/5 177/4/5
f 180/2/5 175/2/5 178/2/5
f 180/4/5 178/4/5 179/4/5
f 181/2/5 179/2/5 174/2/5
f 181/2/5 180/2/5 179/2/5
f 182/2/5 175/2/5 180/2/5
f 182/2/5 180/2/5 181/2/5
f 183/2/5 181/2/5 174/2/5
f 183/4/5 182/4/5 181/4/5
f 184/2/5 175/2/5 182/2/5
f 184/4/5 182/4/5 183/4/5
f 185/2/5 183/2/5 174/2/5
f 185/2/5 184/2/5 183/2/5
f 186/2/5 175/2/5 184/2/5
f 186/2/5 184/2/5 185/2/5
f 187/2/5 185/2/5 174/2/5
f 187/4/5 186/4/5 185/4/5
f 188/2/5 175/2/5 186/2/5
f 188/4/5 186/4/5 187/4/5
f 189/2/5 187/2/5 174/2/5
f 189/2/5 188/2/5 187/2/5
f 190/2/5 175/2/5 188/2/5
f 190/2/5 188/2/5 189/2/5
f 191/2/5 189/2/5 174/2/5
f 191/4/5 190/4/5 189/4/5
f 192/2/5 175/2/5 190/2/5
f 192/4/5 190/4/5 191/4/5
f 193/2/5 191/2/5 174/2/5
f 193/2/5 192/2/5 191/2/5
f 194/2/5 175/2/5 192/2/5
f 194/2/5 192/2/5 193/2/5
f 195/2/5 193/2/5 174/2/5
f 195/4/5 194/4/5 193/4/5
f 196/2/5 175/2/5 194/2/5
f 196/4/5 194/4/5 195/4/5
f 197/2/5 195/2/5 174/2/5
f 197/2/5 196/2/5 195/2/5
f 198/2/5 175/2/5 196/2/5
f 198/2/5 196/2/5 197/2/5
f 199/2/5 197/2/5 174/2/5
f 199/4/5 198/4/5 197/4/5
f 200/2/5 175/2/5 198/2/5
f 200/4/5 198/4/5 199/4/5
f 201/5/5 174/5/5 173/5/5
f 202/2/5 199/2/5 174/2/5
f 202/5/5 174/5/5 201/5/5
f 202/2/5 200/2/5 199/2/5
f 203/2/5 175/2/5 200/2/5
f 203/2/5 200/2/5 202/2/5
f 203/5/5 176/5/5 175/5/5
f 204/5/5 176/5/5 203/5/5
f 208/1/5 206/1/5 205/1/5
f 209/1/5 206/1/5 208/1/5
f 211/1/5 208/1/5 207/1/5
f 212/1/5 208/1/5 211/1/5
f 213/1/5 210/1/5 209/1/5
f 214/1/5 210/1/5 213/1/5
f 215/1/5 213/1/5 212/1/5
f 216/1/5 213/1/5 215/1/5
f 220/1/5 218/1/5 217/1/5
f 221/1/5 218/1/5 220/1/5
f 223/1/5 220/1/5 219/1/5
f 224/1/5 220/1/5 223/1/5
f 225/1/5 222/1/5 221/1/5
f 226/1/5 222/1/5 225/1/5
f 227/1/5 225/1/5 224/1/5
f 228/1/5 225/1/5 227/1/5
f 229/2/6 230/2/6 231/2/6
f 231/2/6 230/2/6 232/2/6
f 229/2/6 231/2/6 233/2/6
f 231/4/6 232/4/6 233/4/6
f 232/2/6 230/2/6 234/2/6
f 233/4/6 232/4/6 234/4/6
f 229/2/6 233/2/6 235/2/6
f 233/2/6 234/2/6 235/2/6
f 234/2/6 230/2/6 236/2/6
f 235/2/6 234/2/6 236/2/6
f 229/2/6 235/2/6 237/2/6
f 235/4/6 236/4/6 237/4/6
f 236/2/6 230/2/6 238/2/6
f 237/4/6 236/4/6 238/4/6
f 229/2/6 237/2/6 239/2/6
f 237/2/6 238/2/6 239/2/6
f 238/2/6 230/2/6 240/2/6
f 239/2/6 238/2/6 240/2/6
f 229/2/6 239/2/6 241/2/6
f 239/4/6 240/4/6 241/4/6
f 240/2/6 230/2/6 242/2/6
f 241/4/6 240/4/6 242/4/6
f 229/2/6 241/2/6 243/2/6
f 241/2/6 242/2/6 243/2/6
f 242/2/6 230/2/6 244/2/6
f 243/2/6 242/2/6 244/2/6
f 229/2/6 243/2/6 245/2/6
f 243/4/6 244/4/6 245/4/6
f 244/2/6 230/2/6 246/2/6
f 245/4/6 244/4/6 246/4/6
f 229/2/6 245/2/6 247/2/6
f 245/2/6 246/2/6 247/2/6
f 246/2/6 230/2/6 248/2/6
f 247/2/6 246/2/6 248/2/6
f 229/2/6 247/2/6 249/2/6
f 247/4/6 248/4/6 249/4/6
f 248/2/6 230/2/6 250/2/6
f 249/4/6 248/4/6 250/4/6
f 229/2/6 249/2/6 251/2/6
f 249/2/6 250/2/6 251/2/6
f 250/2/6 230/2/6 252/2/6
f 251/2/6 250/2/6 252/2/6
f 229/2/6 251/2/6 253/2/6
f 251/4/6 252/4/6 253/4/6
f 252/2/6 230/2/6 254/2/6
f 253/4/6 252/4/6 254/4/6
f 229/2/6 253/2/6 255/2/6
f 253/2/6 254/2/6 255/2/6
f 254/2/6 230/2/6 256/2/6
f 255/2/6 254/2/6 256/2/6
f 257/3/6 258/3/6 261/3/6
f 261/3/6 258/3/6 262/3/6
f 257/3/6 261/3/6 263/3/6
f 262/3/6 258/3/6 264/3/6
f 259/3/6 260/3/6 265/3/6
f 265/3/6 260/3/6 266/3/6
f 259/3/6 265/3/6 267/3/6
f 266/3/6 260/3/6 268/3/6
f 263/3/6 264/3/6 269/3/6
f 257/3/6 263/3/6 269/3/6
f 264/3/6 258/3/6 270/3/6
f 269/3/6 264/3/6 270/3/6
f 267/3/6 268/3/6 271/3/6
f 259/3/6 267/3/6 271/3/6
f 268/3/6 260/3/6 272/3/6
f 271/3/6 268/3/6 272/3/6
f 273/1/6 274/1/6 276/1/6
f 276/1/6 274/1/6 277/1/6
f 275/1/6 276/1/6 279/1/6
f 279/1/6 276/1/6 280/1/6
f 277/1/6 278/1/6 281/1/6
f 281/1/6 278/1/6 282/1/6
f 280/1/6 281/1/6 283/1/6
f 283/1/6 281/1/6 284/1/6
f 285/1/6 286/1/6 288/1/6
f 288/1/6 286/1/6 289/1/6
f 287/1/6 288/1/6 291/1/6
f 291/1/6 288/1/6 292/1/6
f 289/1/6 290/1/6 293/1/6
f 293/1/6 290/1/6 294/1/6
f 292/1/6 293/1/6 295/1/6
f 295/1/6 293/1/6 296/1/6
f 297/1/6 298/1/6 299/1/6
f 299/1/6 298/1/6 300/1/6
f 301/1/6 302/1/6 303/1/6
f 303/1/6 302/1/6 304/1/6
