# MagicaVoxel @ ephtracy

# material
mtllib tcrossroad.mtl
usemtl palette

# normals
vn -1 0 0
vn 1 0 0
vn 0 0 1
vn 0 0 -1
vn 0 -1 0
vn 0 1 0

# texcoords
vt 0.978516 0.5
vt 0.982422 0.5
vt 0.986328 0.5
vt 0.990234 0.5

# verts
v -15 0 15
v -15 0 11
v -15 0 -11
v -15 0 -15
v -15 1 15
v -15 1 11
v -15 1 -11
v -15 1 -15
v -15 2 15
v -15 2 -15
v 11 1 15
v 11 1 11
v 11 1 -11
v 11 1 -15
v 11 2 15
v 11 2 11
v 11 2 -11
v 11 2 -15
v -11 1 15
v -11 1 -15
v -11 2 15
v -11 2 -15
v 15 0 15
v 15 0 11
v 15 0 -11
v 15 0 -15
v 15 1 15
v 15 1 11
v 15 1 -11
v 15 1 -15
v 15 2 15
v 15 2 11
v 15 2 -11
v 15 2 -15
v -15 0 15
v -15 1 15
v -15 2 15
v -11 0 15
v -11 1 15
v -11 2 15
v 11 0 15
v 11 1 15
v 11 2 15
v 15 0 15
v 15 1 15
v 15 2 15
v 11 1 -11
v 11 2 -11
v 15 1 -11
v 15 2 -11
v 11 1 11
v 11 2 11
v 15 1 11
v 15 2 11
v -15 0 -15
v -15 1 -15
v -15 2 -15
v -11 0 -15
v -11 1 -15
v -11 2 -15
v 11 0 -15
v 11 1 -15
v 11 2 -15
v 15 0 -15
v 15 1 -15
v 15 2 -15
v -15 0 15
v -11 0 15
v 11 0 15
v 15 0 15
v -1 0 14
v 1 0 14
v -15 0 11
v -11 0 11
v -1 0 11
v 1 0 11
v 11 0 11
v 15 0 11
v -1 0 9
v 1 0 9
v -1 0 6
v 1 0 6
v -1 0 4
v 1 0 4
v -14 0 1
v -11 0 1
v 1 0 1
v 4 0 1
v 6 0 1
v 9 0 1
v 11 0 1
v 14 0 1
v -14 0 -1
v -11 0 -1
v 1 0 -1
v 4 0 -1
v 6 0 -1
v 9 0 -1
v 11 0 -1
v 14 0 -1
v -1 0 -4
v 1 0 -4
v -1 0 -6
v 1 0 -6
v -1 0 -9
v 1 0 -9
v -15 0 -11
v -11 0 -11
v -1 0 -11
v 1 0 -11
v 11 0 -11
v 15 0 -11
v -1 0 -14
v 1 0 -14
v -15 0 -15
v -11 0 -15
v 11 0 -15
v 15 0 -15
v -11 1 15
v 11 1 15
v -1 1 14
v 1 1 14
v -1 1 11
v 1 1 11
v 11 1 11
v 15 1 11
v -1 1 9
v 1 1 9
v -1 1 6
v 1 1 6
v -1 1 4
v 1 1 4
v 1 1 1
v 4 1 1
v 6 1 1
v 9 1 1
v 11 1 1
v 14 1 1
v 1 1 -1
v 4 1 -1
v 6 1 -1
v 9 1 -1
v 11 1 -1
v 14 1 -1
v -1 1 -4
v 1 1 -4
v -1 1 -6
v 1 1 -6
v -1 1 -9
v 1 1 -9
v -1 1 -11
v 1 1 -11
v 11 1 -11
v 15 1 -11
v -1 1 -14
v 1 1 -14
v -11 1 -15
v 11 1 -15
v -15 2 15
v -11 2 15
v 11 2 15
v 15 2 15
v 11 2 11
v 15 2 11
v 11 2 -11
v 15 2 -11
v -15 2 -15
v -11 2 -15
v 11 2 -15
v 15 2 -15

# faces
f 5/4/1 2/4/1 1/4/1
f 6/1/1 3/1/1 2/1/1
f 6/4/1 2/4/1 5/4/1
f 7/4/1 4/4/1 3/4/1
f 7/1/1 3/1/1 6/1/1
f 8/4/1 4/4/1 7/4/1
f 9/2/1 6/2/1 5/2/1
f 9/2/1 7/2/1 6/2/1
f 9/2/1 8/2/1 7/2/1
f 10/2/1 8/2/1 9/2/1
f 15/2/1 12/2/1 11/2/1
f 16/2/1 12/2/1 15/2/1
f 17/2/1 14/2/1 13/2/1
f 18/2/1 14/2/1 17/2/1
f 19/2/2 20/2/2 21/2/2
f 21/2/2 20/2/2 22/2/2
f 23/4/2 24/4/2 27/4/2
f 24/1/2 25/1/2 28/1/2
f 27/4/2 24/4/2 28/4/2
f 25/4/2 26/4/2 29/4/2
f 28/1/2 25/1/2 29/1/2
f 29/4/2 26/4/2 30/4/2
f 27/2/2 28/2/2 31/2/2
f 31/2/2 28/2/2 32/2/2
f 29/2/2 30/2/2 33/2/2
f 33/2/2 30/2/2 34/2/2
f 38/4/3 36/4/3 35/4/3
f 39/2/3 37/2/3 36/2/3
f 39/4/3 36/4/3 38/4/3
f 40/2/3 37/2/3 39/2/3
f 41/1/3 39/1/3 38/1/3
f 42/1/3 39/1/3 41/1/3
f 44/4/3 42/4/3 41/4/3
f 45/2/3 43/2/3 42/2/3
f 45/4/3 42/4/3 44/4/3
f 46/2/3 43/2/3 45/2/3
f 49/2/3 48/2/3 47/2/3
f 50/2/3 48/2/3 49/2/3
f 51/2/4 52/2/4 53/2/4
f 53/2/4 52/2/4 54/2/4
f 55/4/4 56/4/4 58/4/4
f 56/2/4 57/2/4 59/2/4
f 58/4/4 56/4/4 59/4/4
f 59/2/4 57/2/4 60/2/4
f 58/1/4 59/1/4 61/1/4
f 61/1/4 59/1/4 62/1/4
f 61/4/4 62/4/4 64/4/4
f 62/2/4 63/2/4 65/2/4
f 64/4/4 62/4/4 65/4/4
f 65/2/4 63/2/4 66/2/4
f 71/1/5 69/1/5 68/1/5
f 72/1/5 69/1/5 71/1/5
f 73/4/5 68/4/5 67/4/5
f 74/1/5 71/1/5 68/1/5
f 74/4/5 68/4/5 73/4/5
f 75/3/5 72/3/5 71/3/5
f 75/1/5 71/1/5 74/1/5
f 76/1/5 69/1/5 72/1/5
f 76/3/5 72/3/5 75/3/5
f 77/4/5 70/4/5 69/4/5
f 77/1/5 69/1/5 76/1/5
f 78/4/5 70/4/5 77/4/5
f 79/1/5 75/1/5 74/1/5
f 79/1/5 76/1/5 75/1/5
f 79/1/5 78/1/5 77/1/5
f 79/1/5 77/1/5 76/1/5
f 79/1/5 74/1/5 73/1/5
f 80/1/5 78/1/5 79/1/5
f 81/1/5 79/1/5 73/1/5
f 81/3/5 80/3/5 79/3/5
f 82/1/5 78/1/5 80/1/5
f 82/3/5 80/3/5 81/3/5
f 83/1/5 81/1/5 73/1/5
f 83/1/5 82/1/5 81/1/5
f 84/1/5 78/1/5 82/1/5
f 84/1/5 82/1/5 83/1/5
f 85/1/5 83/1/5 73/1/5
f 86/1/5 83/1/5 85/1/5
f 87/1/5 78/1/5 84/1/5
f 87/3/5 84/3/5 83/3/5
f 88/1/5 78/1/5 87/1/5
f 89/1/5 78/1/5 88/1/5
f 90/1/5 78/1/5 89/1/5
f 91/1/5 78/1/5 90/1/5
f 92/1/5 78/1/5 91/1/5
f 93/3/5 86/3/5 85/3/5
f 93/1/5 85/1/5 73/1/5
f 94/1/5 83/1/5 86/1/5
f 94/3/5 86/3/5 93/3/5
f 95/3/5 87/3/5 83/3/5
f 95/3/5 88/3/5 87/3/5
f 96/1/5 89/1/5 88/1/5
f 96/3/5 88/3/5 95/3/5
f 97/3/5 90/3/5 89/3/5
f 97/1/5 89/1/5 96/1/5
f 98/1/5 91/1/5 90/1/5
f 98/3/5 90/3/5 97/3/5
f 99/3/5 92/3/5 91/3/5
f 99/1/5 91/1/5 98/1/5
f 100/1/5 78/1/5 92/1/5
f 100/3/5 92/3/5 99/3/5
f 101/1/5 83/1/5 94/1/5
f 101/1/5 94/1/5 93/1/5
f 101/3/5 95/3/5 83/3/5
f 102/1/5 99/1/5 98/1/5
f 102/3/5 95/3/5 101/3/5
f 102/1/5 98/1/5 97/1/5
f 102/1/5 96/1/5 95/1/5
f 102/1/5 97/1/5 96/1/5
f 102/1/5 100/1/5 99/1/5
f 103/1/5 101/1/5 93/1/5
f 103/1/5 102/1/5 101/1/5
f 104/1/5 100/1/5 102/1/5
f 104/1/5 102/1/5 103/1/5
f 105/1/5 103/1/5 93/1/5
f 105/3/5 104/3/5 103/3/5
f 106/1/5 100/1/5 104/1/5
f 106/3/5 104/3/5 105/3/5
f 107/1/5 93/1/5 73/1/5
f 107/1/5 105/1/5 93/1/5
f 107/1/5 106/1/5 105/1/5
f 108/1/5 106/1/5 107/1/5
f 109/1/5 106/1/5 108/1/5
f 110/1/5 100/1/5 106/1/5
f 110/1/5 106/1/5 109/1/5
f 111/1/5 100/1/5 110/1/5
f 112/1/5 78/1/5 100/1/5
f 112/1/5 100/1/5 111/1/5
f 113/1/5 109/1/5 108/1/5
f 113/3/5 110/3/5 109/3/5
f 114/1/5 111/1/5 110/1/5
f 114/3/5 110/3/5 113/3/5
f 115/4/5 108/4/5 107/4/5
f 116/1/5 113/1/5 108/1/5
f 116/4/5 108/4/5 115/4/5
f 116/1/5 114/1/5 113/1/5
f 117/1/5 111/1/5 114/1/5
f 117/1/5 114/1/5 116/1/5
f 117/4/5 112/4/5 111/4/5
f 118/4/5 112/4/5 117/4/5
f 119/1/6 120/1/6 121/1/6
f 121/1/6 120/1/6 122/1/6
f 119/1/6 121/1/6 123/1/6
f 121/3/6 122/3/6 123/3/6
f 122/1/6 120/1/6 124/1/6
f 123/3/6 122/3/6 124/3/6
f 124/1/6 120/1/6 125/1/6
f 119/1/6 123/1/6 127/1/6
f 125/1/6 126/1/6 127/1/6
f 124/1/6 125/1/6 127/1/6
f 123/1/6 124/1/6 127/1/6
f 127/1/6 126/1/6 128/1/6
f 119/1/6 127/1/6 129/1/6
f 127/3/6 128/3/6 129/3/6
f 128/1/6 126/1/6 130/1/6
f 129/3/6 128/3/6 130/3/6
f 119/1/6 129/1/6 131/1/6
f 129/1/6 130/1/6 131/1/6
f 130/1/6 126/1/6 132/1/6
f 131/1/6 130/1/6 132/1/6
f 131/3/6 132/3/6 133/3/6
f 132/1/6 126/1/6 133/1/6
f 133/1/6 126/1/6 134/1/6
f 134/1/6 126/1/6 135/1/6
f 135/1/6 126/1/6 136/1/6
f 136/1/6 126/1/6 137/1/6
f 137/1/6 126/1/6 138/1/6
f 131/3/6 133/3/6 139/3/6
f 133/3/6 134/3/6 139/3/6
f 134/1/6 135/1/6 140/1/6
f 139/3/6 134/3/6 140/3/6
f 135/3/6 136/3/6 141/3/6
f 140/1/6 135/1/6 141/1/6
f 136/1/6 137/1/6 142/1/6
f 141/3/6 136/3/6 142/3/6
f 137/3/6 138/3/6 143/3/6
f 142/1/6 137/1/6 143/1/6
f 138/1/6 126/1/6 144/1/6
f 143/3/6 138/3/6 144/3/6
f 119/1/6 131/1/6 145/1/6
f 131/3/6 139/3/6 145/3/6
f 142/1/6 143/1/6 146/1/6
f 145/3/6 139/3/6 146/3/6
f 141/1/6 142/1/6 146/1/6
f 140/1/6 141/1/6 146/1/6
f 139/1/6 140/1/6 146/1/6
f 143/1/6 144/1/6 146/1/6
f 119/1/6 145/1/6 147/1/6
f 145/1/6 146/1/6 147/1/6
f 146/1/6 144/1/6 148/1/6
f 147/1/6 146/1/6 148/1/6
f 119/1/6 147/1/6 149/1/6
f 147/3/6 148/3/6 149/3/6
f 148/1/6 144/1/6 150/1/6
f 149/3/6 148/3/6 150/3/6
f 119/1/6 149/1/6 151/1/6
f 149/1/6 150/1/6 151/1/6
f 150/1/6 144/1/6 152/1/6
f 151/1/6 150/1/6 152/1/6
f 152/1/6 144/1/6 153/1/6
f 144/1/6 126/1/6 154/1/6
f 153/1/6 144/1/6 154/1/6
f 119/1/6 151/1/6 155/1/6
f 151/3/6 152/3/6 155/3/6
f 152/1/6 153/1/6 156/1/6
f 155/3/6 152/3/6 156/3/6
f 119/1/6 155/1/6 157/1/6
f 155/1/6 156/1/6 157/1/6
f 156/1/6 153/1/6 158/1/6
f 157/1/6 156/1/6 158/1/6
f 161/2/6 162/2/6 163/2/6
f 163/2/6 162/2/6 164/2/6
f 159/2/6 160/2/6 167/2/6
f 167/2/6 160/2/6 168/2/6
f 165/2/6 166/2/6 169/2/6
f 169/2/6 166/2/6 170/2/6
