# MagicaVoxel @ ephtracy

# material
mtllib turnroadTraficLight.mtl
usemtl palette

# normals
vn -1 0 0
vn 1 0 0
vn 0 0 1
vn 0 0 -1
vn 0 -1 0
vn 0 1 0

# texcoords
vt 0.951172 0.5
vt 0.955078 0.5
vt 0.958984 0.5
vt 0.978516 0.5
vt 0.982422 0.5
vt 0.986328 0.5
vt 0.990234 0.5

# verts
v -15 0 15
v -15 0 11
v -15 0 -11
v -15 0 -15
v -15 1 15
v -15 1 11
v -15 1 -11
v -15 1 -15
v -15 2 15
v -15 2 11
v -15 2 -11
v -15 2 -15
v -7 7 11
v -7 7 10
v -7 10 11
v -7 10 10
v -6 2 12
v -6 2 11
v -6 7 11
v -6 10 12
v -6 10 11
v 10 7 7
v 10 7 6
v 10 7 5
v 10 7 4
v 10 8 6
v 10 8 5
v 10 9 6
v 10 9 5
v 10 10 7
v 10 10 6
v 10 10 5
v 10 10 4
v 11 1 11
v 11 1 -15
v 11 2 11
v 11 2 6
v 11 2 5
v 11 2 -15
v 11 7 6
v 11 7 5
v -11 1 -11
v -11 1 -15
v -11 2 -11
v -11 2 -15
v -5 2 12
v -5 2 11
v -5 7 11
v -5 10 12
v -5 10 11
v -4 7 11
v -4 7 10
v -4 10 11
v -4 10 10
v 11 7 7
v 11 7 6
v 11 7 5
v 11 7 4
v 11 10 7
v 11 10 6
v 11 10 5
v 11 10 4
v 12 2 6
v 12 2 5
v 12 10 6
v 12 10 5
v 15 0 15
v 15 0 11
v 15 0 -11
v 15 0 -15
v 15 1 15
v 15 1 11
v 15 1 -11
v 15 1 -15
v 15 2 15
v 15 2 -15
v -15 0 15
v -15 1 15
v -15 2 15
v -11 0 15
v -11 1 15
v 11 0 15
v 11 1 15
v 15 0 15
v 15 1 15
v 15 2 15
v -6 2 12
v -6 10 12
v -5 2 12
v -5 10 12
v -7 7 11
v -7 10 11
v -6 7 11
v -6 10 11
v -5 7 11
v -5 10 11
v -4 7 11
v -4 10 11
v 10 7 7
v 10 10 7
v 11 7 7
v 11 10 7
v 11 2 6
v 11 7 6
v 11 10 6
v 12 2 6
v 12 10 6
v -15 1 -11
v -15 2 -11
v -11 1 -11
v -11 2 -11
v -15 1 11
v -15 2 11
v -6 2 11
v -6 7 11
v -5 2 11
v -5 7 11
v 11 1 11
v 11 2 11
v -7 7 10
v -7 10 10
v -6 7 10
v -6 8 10
v -6 9 10
v -6 10 10
v -5 7 10
v -5 8 10
v -5 9 10
v -5 10 10
v -4 7 10
v -4 10 10
v 11 2 5
v 11 7 5
v 11 10 5
v 12 2 5
v 12 10 5
v 10 7 4
v 10 10 4
v 11 7 4
v 11 10 4
v -15 0 -15
v -15 1 -15
v -15 2 -15
v -11 0 -15
v -11 1 -15
v -11 2 -15
v 11 0 -15
v 11 1 -15
v 11 2 -15
v 15 0 -15
v 15 1 -15
v 15 2 -15
v -15 0 15
v -11 0 15
v 11 0 15
v 15 0 15
v -1 0 14
v 1 0 14
v -15 0 11
v -11 0 11
v -1 0 11
v 1 0 11
v 11 0 11
v 15 0 11
v -14 0 1
v -11 0 1
v -9 0 1
v -6 0 1
v -4 0 1
v 1 0 1
v 11 0 1
v 14 0 1
v -14 0 -1
v -11 0 -1
v -9 0 -1
v -6 0 -1
v -4 0 -1
v -1 0 -1
v 11 0 -1
v 14 0 -1
v -1 0 -4
v 1 0 -4
v -1 0 -6
v 1 0 -6
v -1 0 -9
v 1 0 -9
v -15 0 -11
v -11 0 -11
v -1 0 -11
v 1 0 -11
v 11 0 -11
v 15 0 -11
v -1 0 -14
v 1 0 -14
v -15 0 -15
v -11 0 -15
v 11 0 -15
v 15 0 -15
v -7 7 11
v -6 7 11
v -5 7 11
v -4 7 11
v -7 7 10
v -6 7 10
v -5 7 10
v -4 7 10
v 10 7 7
v 11 7 7
v 10 7 6
v 11 7 6
v 10 7 5
v 11 7 5
v 10 7 4
v 11 7 4
v -15 1 11
v 11 1 11
v -14 1 1
v -11 1 1
v -9 1 1
v -6 1 1
v -4 1 1
v 1 1 1
v -14 1 -1
v -11 1 -1
v -9 1 -1
v -6 1 -1
v -4 1 -1
v -1 1 -1
v -1 1 -4
v 1 1 -4
v -1 1 -6
v 1 1 -6
v -1 1 -9
v 1 1 -9
v -15 1 -11
v -11 1 -11
v -1 1 -11
v 1 1 -11
v -1 1 -14
v 1 1 -14
v -11 1 -15
v 11 1 -15
v -15 2 15
v 15 2 15
v -6 2 12
v -5 2 12
v -15 2 11
v -6 2 11
v -5 2 11
v 11 2 11
v 11 2 6
v 12 2 6
v 11 2 5
v 12 2 5
v -15 2 -11
v -11 2 -11
v -15 2 -15
v -11 2 -15
v 11 2 -15
v 15 2 -15
v -6 10 12
v -5 10 12
v -7 10 11
v -6 10 11
v -5 10 11
v -4 10 11
v -7 10 10
v -6 10 10
v -5 10 10
v -4 10 10
v 10 10 7
v 11 10 7
v 10 10 6
v 11 10 6
v 12 10 6
v 10 10 5
v 11 10 5
v 12 10 5
v 10 10 4
v 11 10 4

# faces
f 5/7/1 2/7/1 1/7/1
f 6/4/1 3/4/1 2/4/1
f 6/7/1 2/7/1 5/7/1
f 7/7/1 4/7/1 3/7/1
f 7/4/1 3/4/1 6/4/1
f 8/7/1 4/7/1 7/7/1
f 9/5/1 6/5/1 5/5/1
f 10/5/1 6/5/1 9/5/1
f 11/5/1 8/5/1 7/5/1
f 12/5/1 8/5/1 11/5/1
f 15/4/1 14/4/1 13/4/1
f 16/4/1 14/4/1 15/4/1
f 19/4/1 18/4/1 17/4/1
f 20/4/1 19/4/1 17/4/1
f 21/4/1 19/4/1 20/4/1
f 26/4/1 23/4/1 22/4/1
f 26/2/1 24/2/1 23/2/1
f 27/4/1 25/4/1 24/4/1
f 27/2/1 24/2/1 26/2/1
f 28/4/1 26/4/1 22/4/1
f 28/3/1 27/3/1 26/3/1
f 29/4/1 25/4/1 27/4/1
f 29/3/1 27/3/1 28/3/1
f 30/4/1 28/4/1 22/4/1
f 31/1/1 29/1/1 28/1/1
f 31/4/1 28/4/1 30/4/1
f 32/4/1 25/4/1 29/4/1
f 32/1/1 29/1/1 31/1/1
f 33/4/1 25/4/1 32/4/1
f 36/5/1 35/5/1 34/5/1
f 37/5/1 35/5/1 36/5/1
f 38/5/1 35/5/1 37/5/1
f 39/5/1 35/5/1 38/5/1
f 40/4/1 38/4/1 37/4/1
f 41/4/1 38/4/1 40/4/1
f 42/5/2 43/5/2 44/5/2
f 44/5/2 43/5/2 45/5/2
f 46/4/2 47/4/2 48/4/2
f 46/4/2 48/4/2 49/4/2
f 49/4/2 48/4/2 50/4/2
f 51/4/2 52/4/2 53/4/2
f 53/4/2 52/4/2 54/4/2
f 55/4/2 56/4/2 59/4/2
f 59/4/2 56/4/2 60/4/2
f 57/4/2 58/4/2 61/4/2
f 61/4/2 58/4/2 62/4/2
f 63/4/2 64/4/2 65/4/2
f 65/4/2 64/4/2 66/4/2
f 67/7/2 68/7/2 71/7/2
f 68/4/2 69/4/2 72/4/2
f 71/7/2 68/7/2 72/7/2
f 69/7/2 70/7/2 73/7/2
f 72/4/2 69/4/2 73/4/2
f 73/7/2 70/7/2 74/7/2
f 71/5/2 72/5/2 75/5/2
f 72/5/2 73/5/2 75/5/2
f 73/5/2 74/5/2 75/5/2
f 75/5/2 74/5/2 76/5/2
f 80/7/3 78/7/3 77/7/3
f 81/5/3 79/5/3 78/5/3
f 81/7/3 78/7/3 80/7/3
f 82/4/3 81/4/3 80/4/3
f 83/5/3 79/5/3 81/5/3
f 83/4/3 81/4/3 82/4/3
f 84/7/3 83/7/3 82/7/3
f 85/5/3 79/5/3 83/5/3
f 85/7/3 83/7/3 84/7/3
f 86/5/3 79/5/3 85/5/3
f 89/4/3 88/4/3 87/4/3
f 90/4/3 88/4/3 89/4/3
f 93/4/3 92/4/3 91/4/3
f 94/4/3 92/4/3 93/4/3
f 97/4/3 96/4/3 95/4/3
f 98/4/3 96/4/3 97/4/3
f 101/4/3 100/4/3 99/4/3
f 102/4/3 100/4/3 101/4/3
f 106/4/3 104/4/3 103/4/3
f 106/4/3 105/4/3 104/4/3
f 107/4/3 105/4/3 106/4/3
f 110/5/3 109/5/3 108/5/3
f 111/5/3 109/5/3 110/5/3
f 112/5/4 113/5/4 114/5/4
f 112/5/4 114/5/4 116/5/4
f 114/4/4 115/4/4 116/4/4
f 116/4/4 115/4/4 117/4/4
f 112/5/4 116/5/4 118/5/4
f 118/5/4 116/5/4 119/5/4
f 120/4/4 121/4/4 122/4/4
f 122/4/4 121/4/4 123/4/4
f 123/4/4 121/4/4 124/4/4
f 124/4/4 121/4/4 125/4/4
f 122/2/4 123/2/4 126/2/4
f 123/3/4 124/3/4 127/3/4
f 126/2/4 123/2/4 127/2/4
f 124/1/4 125/1/4 128/1/4
f 127/3/4 124/3/4 128/3/4
f 128/1/4 125/1/4 129/1/4
f 126/4/4 127/4/4 130/4/4
f 127/4/4 128/4/4 130/4/4
f 128/4/4 129/4/4 130/4/4
f 130/4/4 129/4/4 131/4/4
f 132/4/4 133/4/4 135/4/4
f 133/4/4 134/4/4 135/4/4
f 135/4/4 134/4/4 136/4/4
f 137/4/4 138/4/4 139/4/4
f 139/4/4 138/4/4 140/4/4
f 141/7/4 142/7/4 144/7/4
f 142/5/4 143/5/4 145/5/4
f 144/7/4 142/7/4 145/7/4
f 145/5/4 143/5/4 146/5/4
f 144/4/4 145/4/4 147/4/4
f 147/4/4 145/4/4 148/4/4
f 147/7/4 148/7/4 150/7/4
f 148/5/4 149/5/4 151/5/4
f 150/7/4 148/7/4 151/7/4
f 151/5/4 149/5/4 152/5/4
f 157/4/5 155/4/5 154/4/5
f 158/4/5 155/4/5 157/4/5
f 159/7/5 154/7/5 153/7/5
f 160/4/5 157/4/5 154/4/5
f 160/7/5 154/7/5 159/7/5
f 161/6/5 158/6/5 157/6/5
f 161/4/5 157/4/5 160/4/5
f 162/4/5 155/4/5 158/4/5
f 162/6/5 158/6/5 161/6/5
f 163/7/5 156/7/5 155/7/5
f 163/4/5 155/4/5 162/4/5
f 164/7/5 156/7/5 163/7/5
f 165/4/5 161/4/5 160/4/5
f 165/4/5 162/4/5 161/4/5
f 165/4/5 164/4/5 163/4/5
f 165/4/5 163/4/5 162/4/5
f 165/4/5 160/4/5 159/4/5
f 166/4/5 164/4/5 165/4/5
f 167/4/5 164/4/5 166/4/5
f 168/4/5 164/4/5 167/4/5
f 169/4/5 164/4/5 168/4/5
f 170/4/5 164/4/5 169/4/5
f 171/4/5 164/4/5 170/4/5
f 172/4/5 164/4/5 171/4/5
f 173/4/5 165/4/5 159/4/5
f 173/6/5 166/6/5 165/6/5
f 174/4/5 167/4/5 166/4/5
f 174/6/5 166/6/5 173/6/5
f 175/6/5 168/6/5 167/6/5
f 175/4/5 167/4/5 174/4/5
f 176/4/5 169/4/5 168/4/5
f 176/6/5 168/6/5 175/6/5
f 177/6/5 170/6/5 169/6/5
f 177/4/5 169/4/5 176/4/5
f 178/6/5 170/6/5 177/6/5
f 179/6/5 172/6/5 171/6/5
f 179/4/5 171/4/5 170/4/5
f 180/4/5 164/4/5 172/4/5
f 180/6/5 172/6/5 179/6/5
f 181/6/5 170/6/5 178/6/5
f 181/4/5 174/4/5 173/4/5
f 181/4/5 175/4/5 174/4/5
f 181/4/5 177/4/5 176/4/5
f 181/4/5 178/4/5 177/4/5
f 181/4/5 176/4/5 175/4/5
f 182/4/5 179/4/5 170/4/5
f 182/6/5 170/6/5 181/6/5
f 182/4/5 180/4/5 179/4/5
f 183/4/5 181/4/5 173/4/5
f 183/4/5 182/4/5 181/4/5
f 184/4/5 180/4/5 182/4/5
f 184/4/5 182/4/5 183/4/5
f 185/4/5 183/4/5 173/4/5
f 185/6/5 184/6/5 183/6/5
f 186/4/5 180/4/5 184/4/5
f 186/6/5 184/6/5 185/6/5
f 187/4/5 185/4/5 173/4/5
f 187/4/5 173/4/5 159/4/5
f 187/4/5 186/4/5 185/4/5
f 188/4/5 186/4/5 187/4/5
f 189/4/5 186/4/5 188/4/5
f 190/4/5 180/4/5 186/4/5
f 190/4/5 186/4/5 189/4/5
f 191/4/5 180/4/5 190/4/5
f 192/4/5 164/4/5 180/4/5
f 192/4/5 180/4/5 191/4/5
f 193/4/5 189/4/5 188/4/5
f 193/6/5 190/6/5 189/6/5
f 194/4/5 191/4/5 190/4/5
f 194/6/5 190/6/5 193/6/5
f 195/7/5 188/7/5 187/7/5
f 196/4/5 193/4/5 188/4/5
f 196/7/5 188/7/5 195/7/5
f 196/4/5 194/4/5 193/4/5
f 197/4/5 191/4/5 194/4/5
f 197/4/5 194/4/5 196/4/5
f 197/7/5 192/7/5 191/7/5
f 198/7/5 192/7/5 197/7/5
f 203/4/5 200/4/5 199/4/5
f 204/2/5 201/2/5 200/2/5
f 204/4/5 200/4/5 203/4/5
f 205/4/5 202/4/5 201/4/5
f 205/2/5 201/2/5 204/2/5
f 206/4/5 202/4/5 205/4/5
f 209/4/5 208/4/5 207/4/5
f 210/4/5 208/4/5 209/4/5
f 211/2/5 210/2/5 209/2/5
f 212/2/5 210/2/5 211/2/5
f 213/4/5 212/4/5 211/4/5
f 214/4/5 212/4/5 213/4/5
f 215/4/6 216/4/6 217/4/6
f 217/4/6 216/4/6 218/4/6
f 218/4/6 216/4/6 219/4/6
f 219/4/6 216/4/6 220/4/6
f 220/4/6 216/4/6 221/4/6
f 221/4/6 216/4/6 222/4/6
f 215/4/6 217/4/6 223/4/6
f 217/6/6 218/6/6 223/6/6
f 218/4/6 219/4/6 224/4/6
f 223/6/6 218/6/6 224/6/6
f 219/6/6 220/6/6 225/6/6
f 224/4/6 219/4/6 225/4/6
f 220/4/6 221/4/6 226/4/6
f 225/6/6 220/6/6 226/6/6
f 221/6/6 222/6/6 227/6/6
f 226/4/6 221/4/6 227/4/6
f 227/6/6 222/6/6 228/6/6
f 225/4/6 226/4/6 229/4/6
f 228/6/6 222/6/6 229/6/6
f 227/4/6 228/4/6 229/4/6
f 226/4/6 227/4/6 229/4/6
f 224/4/6 225/4/6 229/4/6
f 223/4/6 224/4/6 229/4/6
f 222/4/6 216/4/6 230/4/6
f 229/6/6 222/6/6 230/6/6
f 223/4/6 229/4/6 231/4/6
f 229/4/6 230/4/6 231/4/6
f 230/4/6 216/4/6 232/4/6
f 231/4/6 230/4/6 232/4/6
f 223/4/6 231/4/6 233/4/6
f 231/6/6 232/6/6 233/6/6
f 232/4/6 216/4/6 234/4/6
f 233/6/6 232/6/6 234/6/6
f 223/4/6 233/4/6 235/4/6
f 215/4/6 223/4/6 235/4/6
f 233/4/6 234/4/6 235/4/6
f 235/4/6 234/4/6 236/4/6
f 236/4/6 234/4/6 237/4/6
f 234/4/6 216/4/6 238/4/6
f 237/4/6 234/4/6 238/4/6
f 236/4/6 237/4/6 239/4/6
f 237/6/6 238/6/6 239/6/6
f 238/4/6 216/4/6 240/4/6
f 239/6/6 238/6/6 240/6/6
f 236/4/6 239/4/6 241/4/6
f 239/4/6 240/4/6 241/4/6
f 240/4/6 216/4/6 242/4/6
f 241/4/6 240/4/6 242/4/6
f 243/5/6 244/5/6 245/5/6
f 245/5/6 244/5/6 246/5/6
f 243/5/6 245/5/6 247/5/6
f 247/5/6 245/5/6 248/5/6
f 246/5/6 244/5/6 249/5/6
f 249/5/6 244/5/6 250/5/6
f 250/5/6 244/5/6 251/5/6
f 251/5/6 244/5/6 252/5/6
f 252/5/6 244/5/6 254/5/6
f 255/5/6 256/5/6 257/5/6
f 257/5/6 256/5/6 258/5/6
f 253/5/6 254/5/6 259/5/6
f 254/5/6 244/5/6 260/5/6
f 259/5/6 254/5/6 260/5/6
f 261/4/6 262/4/6 264/4/6
f 264/4/6 262/4/6 265/4/6
f 263/4/6 264/4/6 267/4/6
f 264/1/6 265/1/6 268/1/6
f 267/4/6 264/4/6 268/4/6
f 265/4/6 266/4/6 269/4/6
f 268/1/6 265/1/6 269/1/6
f 269/4/6 266/4/6 270/4/6
f 271/4/6 272/4/6 273/4/6
f 273/4/6 272/4/6 274/4/6
f 273/1/6 274/1/6 276/1/6
f 274/4/6 275/4/6 277/4/6
f 276/1/6 274/1/6 277/1/6
f 277/4/6 275/4/6 278/4/6
f 276/4/6 277/4/6 279/4/6
f 279/4/6 277/4/6 280/4/6
