# MagicaVoxel @ ephtracy

# material
mtllib turnroadhydrants.mtl
usemtl palette

# normals
vn -1 0 0
vn 1 0 0
vn 0 0 1
vn 0 0 -1
vn 0 -1 0
vn 0 1 0

# texcoords
vt 0.947266 0.5
vt 0.978516 0.5
vt 0.982422 0.5
vt 0.986328 0.5
vt 0.990234 0.5

# verts
v -15 0 15
v -15 0 11
v -15 0 -11
v -15 0 -15
v -15 1 15
v -15 1 11
v -15 1 -11
v -15 1 -15
v -15 2 15
v -15 2 11
v -15 2 -11
v -15 2 -15
v -15 4 -12
v -15 4 -14
v -15 5 -12
v -15 5 -14
v -14 2 -12
v -14 2 -14
v -14 4 -11
v -14 4 -12
v -14 4 -14
v -14 4 -15
v -14 5 -11
v -14 5 -12
v -14 5 -14
v -14 5 -15
v -14 6 -12
v -14 6 -14
v -8 4 14
v -8 4 12
v -8 5 14
v -8 5 12
v -7 2 14
v -7 2 12
v -7 4 15
v -7 4 14
v -7 4 12
v -7 4 11
v -7 5 15
v -7 5 14
v -7 5 12
v -7 5 11
v -7 6 14
v -7 6 12
v 11 1 11
v 11 1 -15
v 11 2 11
v 11 2 -15
v 11 4 -4
v 11 4 -6
v 11 5 -4
v 11 5 -6
v 12 2 -4
v 12 2 -6
v 12 4 -3
v 12 4 -4
v 12 4 -6
v 12 4 -7
v 12 5 -3
v 12 5 -4
v 12 5 -6
v 12 5 -7
v 12 6 -4
v 12 6 -6
v -12 2 -12
v -12 2 -14
v -12 4 -11
v -12 4 -12
v -12 4 -14
v -12 4 -15
v -12 5 -11
v -12 5 -12
v -12 5 -14
v -12 5 -15
v -12 6 -12
v -12 6 -14
v -11 1 -11
v -11 1 -15
v -11 2 -11
v -11 2 -15
v -11 4 -12
v -11 4 -14
v -11 5 -12
v -11 5 -14
v -5 2 14
v -5 2 12
v -5 4 15
v -5 4 14
v -5 4 12
v -5 4 11
v -5 5 15
v -5 5 14
v -5 5 12
v -5 5 11
v -5 6 14
v -5 6 12
v -4 4 14
v -4 4 12
v -4 5 14
v -4 5 12
v 14 2 -4
v 14 2 -6
v 14 4 -3
v 14 4 -4
v 14 4 -6
v 14 4 -7
v 14 5 -3
v 14 5 -4
v 14 5 -6
v 14 5 -7
v 14 6 -4
v 14 6 -6
v 15 0 15
v 15 0 11
v 15 0 -11
v 15 0 -15
v 15 1 15
v 15 1 11
v 15 1 -11
v 15 1 -15
v 15 2 15
v 15 2 -15
v 15 4 -4
v 15 4 -6
v 15 5 -4
v 15 5 -6
v -15 0 15
v -15 1 15
v -15 2 15
v -11 0 15
v -11 1 15
v -7 4 15
v -7 5 15
v -5 4 15
v -5 5 15
v 11 0 15
v 11 1 15
v 15 0 15
v 15 1 15
v 15 2 15
v -8 4 14
v -8 5 14
v -7 2 14
v -7 4 14
v -7 5 14
v -7 6 14
v -5 2 14
v -5 4 14
v -5 5 14
v -5 6 14
v -4 4 14
v -4 5 14
v 12 4 -3
v 12 5 -3
v 14 4 -3
v 14 5 -3
v 11 4 -4
v 11 5 -4
v 12 2 -4
v 12 4 -4
v 12 5 -4
v 12 6 -4
v 14 2 -4
v 14 4 -4
v 14 5 -4
v 14 6 -4
v 15 4 -4
v 15 5 -4
v -15 1 -11
v -15 2 -11
v -14 4 -11
v -14 5 -11
v -12 4 -11
v -12 5 -11
v -11 1 -11
v -11 2 -11
v -15 4 -12
v -15 5 -12
v -14 2 -12
v -14 4 -12
v -14 5 -12
v -14 6 -12
v -12 2 -12
v -12 4 -12
v -12 5 -12
v -12 6 -12
v -11 4 -12
v -11 5 -12
v -8 4 12
v -8 5 12
v -7 2 12
v -7 4 12
v -7 5 12
v -7 6 12
v -5 2 12
v -5 4 12
v -5 5 12
v -5 6 12
v -4 4 12
v -4 5 12
v -15 1 11
v -15 2 11
v -7 4 11
v -7 5 11
v -5 4 11
v -5 5 11
v 11 1 11
v 11 2 11
v 11 4 -6
v 11 5 -6
v 12 2 -6
v 12 4 -6
v 12 5 -6
v 12 6 -6
v 14 2 -6
v 14 4 -6
v 14 5 -6
v 14 6 -6
v 15 4 -6
v 15 5 -6
v 12 4 -7
v 12 5 -7
v 14 4 -7
v 14 5 -7
v -15 4 -14
v -15 5 -14
v -14 2 -14
v -14 4 -14
v -14 5 -14
v -14 6 -14
v -12 2 -14
v -12 4 -14
v -12 5 -14
v -12 6 -14
v -11 4 -14
v -11 5 -14
v -15 0 -15
v -15 1 -15
v -15 2 -15
v -14 4 -15
v -14 5 -15
v -12 4 -15
v -12 5 -15
v -11 0 -15
v -11 1 -15
v -11 2 -15
v 11 0 -15
v 11 1 -15
v 11 2 -15
v 15 0 -15
v 15 1 -15
v 15 2 -15
v -15 0 15
v -11 0 15
v 11 0 15
v 15 0 15
v -1 0 14
v 1 0 14
v -15 0 11
v -11 0 11
v -1 0 11
v 1 0 11
v 11 0 11
v 15 0 11
v -14 0 1
v -11 0 1
v -9 0 1
v -6 0 1
v -4 0 1
v 1 0 1
v 11 0 1
v 14 0 1
v -14 0 -1
v -11 0 -1
v -9 0 -1
v -6 0 -1
v -4 0 -1
v -1 0 -1
v 11 0 -1
v 14 0 -1
v -1 0 -4
v 1 0 -4
v -1 0 -6
v 1 0 -6
v -1 0 -9
v 1 0 -9
v -15 0 -11
v -11 0 -11
v -1 0 -11
v 1 0 -11
v 11 0 -11
v 15 0 -11
v -1 0 -14
v 1 0 -14
v -15 0 -15
v -11 0 -15
v 11 0 -15
v 15 0 -15
v -7 4 15
v -5 4 15
v -8 4 14
v -7 4 14
v -5 4 14
v -4 4 14
v -8 4 12
v -7 4 12
v -5 4 12
v -4 4 12
v -7 4 11
v -5 4 11
v 12 4 -3
v 14 4 -3
v 11 4 -4
v 12 4 -4
v 14 4 -4
v 15 4 -4
v 11 4 -6
v 12 4 -6
v 14 4 -6
v 15 4 -6
v 12 4 -7
v 14 4 -7
v -14 4 -11
v -12 4 -11
v -15 4 -12
v -14 4 -12
v -12 4 -12
v -11 4 -12
v -15 4 -14
v -14 4 -14
v -12 4 -14
v -11 4 -14
v -14 4 -15
v -12 4 -15
v -15 1 11
v 11 1 11
v -14 1 1
v -11 1 1
v -9 1 1
v -6 1 1
v -4 1 1
v 1 1 1
v -14 1 -1
v -11 1 -1
v -9 1 -1
v -6 1 -1
v -4 1 -1
v -1 1 -1
v -1 1 -4
v 1 1 -4
v -1 1 -6
v 1 1 -6
v -1 1 -9
v 1 1 -9
v -15 1 -11
v -11 1 -11
v -1 1 -11
v 1 1 -11
v -1 1 -14
v 1 1 -14
v -11 1 -15
v 11 1 -15
v -15 2 15
v 15 2 15
v -7 2 14
v -5 2 14
v -7 2 12
v -5 2 12
v -15 2 11
v 11 2 11
v 12 2 -4
v 14 2 -4
v 12 2 -6
v 14 2 -6
v -15 2 -11
v -11 2 -11
v -14 2 -12
v -12 2 -12
v -14 2 -14
v -12 2 -14
v -15 2 -15
v -11 2 -15
v 11 2 -15
v 15 2 -15
v -7 5 15
v -5 5 15
v -8 5 14
v -7 5 14
v -5 5 14
v -4 5 14
v -8 5 12
v -7 5 12
v -5 5 12
v -4 5 12
v -7 5 11
v -5 5 11
v 12 5 -3
v 14 5 -3
v 11 5 -4
v 12 5 -4
v 14 5 -4
v 15 5 -4
v 11 5 -6
v 12 5 -6
v 14 5 -6
v 15 5 -6
v 12 5 -7
v 14 5 -7
v -14 5 -11
v -12 5 -11
v -15 5 -12
v -14 5 -12
v -12 5 -12
v -11 5 -12
v -15 5 -14
v -14 5 -14
v -12 5 -14
v -11 5 -14
v -14 5 -15
v -12 5 -15
v -7 6 14
v -5 6 14
v -7 6 12
v -5 6 12
v 12 6 -4
v 14 6 -4
v 12 6 -6
v 14 6 -6
v -14 6 -12
v -12 6 -12
v -14 6 -14
v -12 6 -14

# faces
f 5/5/1 2/5/1 1/5/1
f 6/2/1 3/2/1 2/2/1
f 6/5/1 2/5/1 5/5/1
f 7/5/1 4/5/1 3/5/1
f 7/2/1 3/2/1 6/2/1
f 8/5/1 4/5/1 7/5/1
f 9/3/1 6/3/1 5/3/1
f 10/3/1 6/3/1 9/3/1
f 11/3/1 8/3/1 7/3/1
f 12/3/1 8/3/1 11/3/1
f 15/1/1 14/1/1 13/1/1
f 16/1/1 14/1/1 15/1/1
f 20/1/1 18/1/1 17/1/1
f 21/1/1 18/1/1 20/1/1
f 23/1/1 20/1/1 19/1/1
f 24/1/1 20/1/1 23/1/1
f 25/1/1 22/1/1 21/1/1
f 26/1/1 22/1/1 25/1/1
f 27/1/1 25/1/1 24/1/1
f 28/1/1 25/1/1 27/1/1
f 31/1/1 30/1/1 29/1/1
f 32/1/1 30/1/1 31/1/1
f 36/1/1 34/1/1 33/1/1
f 37/1/1 34/1/1 36/1/1
f 39/1/1 36/1/1 35/1/1
f 40/1/1 36/1/1 39/1/1
f 41/1/1 38/1/1 37/1/1
f 42/1/1 38/1/1 41/1/1
f 43/1/1 41/1/1 40/1/1
f 44/1/1 41/1/1 43/1/1
f 47/3/1 46/3/1 45/3/1
f 48/3/1 46/3/1 47/3/1
f 51/1/1 50/1/1 49/1/1
f 52/1/1 50/1/1 51/1/1
f 56/1/1 54/1/1 53/1/1
f 57/1/1 54/1/1 56/1/1
f 59/1/1 56/1/1 55/1/1
f 60/1/1 56/1/1 59/1/1
f 61/1/1 58/1/1 57/1/1
f 62/1/1 58/1/1 61/1/1
f 63/1/1 61/1/1 60/1/1
f 64/1/1 61/1/1 63/1/1
f 65/1/2 66/1/2 68/1/2
f 68/1/2 66/1/2 69/1/2
f 67/1/2 68/1/2 71/1/2
f 71/1/2 68/1/2 72/1/2
f 69/1/2 70/1/2 73/1/2
f 73/1/2 70/1/2 74/1/2
f 72/1/2 73/1/2 75/1/2
f 75/1/2 73/1/2 76/1/2
f 77/3/2 78/3/2 79/3/2
f 79/3/2 78/3/2 80/3/2
f 81/1/2 82/1/2 83/1/2
f 83/1/2 82/1/2 84/1/2
f 85/1/2 86/1/2 88/1/2
f 88/1/2 86/1/2 89/1/2
f 87/1/2 88/1/2 91/1/2
f 91/1/2 88/1/2 92/1/2
f 89/1/2 90/1/2 93/1/2
f 93/1/2 90/1/2 94/1/2
f 92/1/2 93/1/2 95/1/2
f 95/1/2 93/1/2 96/1/2
f 97/1/2 98/1/2 99/1/2
f 99/1/2 98/1/2 100/1/2
f 101/1/2 102/1/2 104/1/2
f 104/1/2 102/1/2 105/1/2
f 103/1/2 104/1/2 107/1/2
f 107/1/2 104/1/2 108/1/2
f 105/1/2 106/1/2 109/1/2
f 109/1/2 106/1/2 110/1/2
f 108/1/2 109/1/2 111/1/2
f 111/1/2 109/1/2 112/1/2
f 113/5/2 114/5/2 117/5/2
f 114/2/2 115/2/2 118/2/2
f 117/5/2 114/5/2 118/5/2
f 115/5/2 116/5/2 119/5/2
f 118/2/2 115/2/2 119/2/2
f 119/5/2 116/5/2 120/5/2
f 117/3/2 118/3/2 121/3/2
f 118/3/2 119/3/2 121/3/2
f 119/3/2 120/3/2 121/3/2
f 121/3/2 120/3/2 122/3/2
f 123/1/2 124/1/2 125/1/2
f 125/1/2 124/1/2 126/1/2
f 130/5/3 128/5/3 127/5/3
f 131/3/3 129/3/3 128/3/3
f 131/5/3 128/5/3 130/5/3
f 134/1/3 133/1/3 132/1/3
f 135/1/3 133/1/3 134/1/3
f 136/2/3 131/2/3 130/2/3
f 137/3/3 129/3/3 131/3/3
f 137/2/3 131/2/3 136/2/3
f 138/5/3 137/5/3 136/5/3
f 139/3/3 129/3/3 137/3/3
f 139/5/3 137/5/3 138/5/3
f 140/3/3 129/3/3 139/3/3
f 144/1/3 142/1/3 141/1/3
f 145/1/3 142/1/3 144/1/3
f 147/1/3 144/1/3 143/1/3
f 148/1/3 144/1/3 147/1/3
f 149/1/3 146/1/3 145/1/3
f 150/1/3 146/1/3 149/1/3
f 151/1/3 149/1/3 148/1/3
f 152/1/3 149/1/3 151/1/3
f 155/1/3 154/1/3 153/1/3
f 156/1/3 154/1/3 155/1/3
f 160/1/3 158/1/3 157/1/3
f 161/1/3 158/1/3 160/1/3
f 163/1/3 160/1/3 159/1/3
f 164/1/3 160/1/3 163/1/3
f 165/1/3 162/1/3 161/1/3
f 166/1/3 162/1/3 165/1/3
f 167/1/3 165/1/3 164/1/3
f 168/1/3 165/1/3 167/1/3
f 173/1/3 172/1/3 171/1/3
f 174/1/3 172/1/3 173/1/3
f 175/3/3 170/3/3 169/3/3
f 176/3/3 170/3/3 175/3/3
f 180/1/3 178/1/3 177/1/3
f 181/1/3 178/1/3 180/1/3
f 183/1/3 180/1/3 179/1/3
f 184/1/3 180/1/3 183/1/3
f 185/1/3 182/1/3 181/1/3
f 186/1/3 182/1/3 185/1/3
f 187/1/3 185/1/3 184/1/3
f 188/1/3 185/1/3 187/1/3
f 189/1/4 190/1/4 192/1/4
f 192/1/4 190/1/4 193/1/4
f 191/1/4 192/1/4 195/1/4
f 195/1/4 192/1/4 196/1/4
f 193/1/4 194/1/4 197/1/4
f 197/1/4 194/1/4 198/1/4
f 196/1/4 197/1/4 199/1/4
f 199/1/4 197/1/4 200/1/4
f 203/1/4 204/1/4 205/1/4
f 205/1/4 204/1/4 206/1/4
f 201/3/4 202/3/4 207/3/4
f 207/3/4 202/3/4 208/3/4
f 209/1/4 210/1/4 212/1/4
f 212/1/4 210/1/4 213/1/4
f 211/1/4 212/1/4 215/1/4
f 215/1/4 212/1/4 216/1/4
f 213/1/4 214/1/4 217/1/4
f 217/1/4 214/1/4 218/1/4
f 216/1/4 217/1/4 219/1/4
f 219/1/4 217/1/4 220/1/4
f 221/1/4 222/1/4 223/1/4
f 223/1/4 222/1/4 224/1/4
f 225/1/4 226/1/4 228/1/4
f 228/1/4 226/1/4 229/1/4
f 227/1/4 228/1/4 231/1/4
f 231/1/4 228/1/4 232/1/4
f 229/1/4 230/1/4 233/1/4
f 233/1/4 230/1/4 234/1/4
f 232/1/4 233/1/4 235/1/4
f 235/1/4 233/1/4 236/1/4
f 240/1/4 241/1/4 242/1/4
f 242/1/4 241/1/4 243/1/4
f 237/5/4 238/5/4 244/5/4
f 238/3/4 239/3/4 245/3/4
f 244/5/4 238/5/4 245/5/4
f 245/3/4 239/3/4 246/3/4
f 244/2/4 245/2/4 247/2/4
f 247/2/4 245/2/4 248/2/4
f 247/5/4 248/5/4 250/5/4
f 248/3/4 249/3/4 251/3/4
f 250/5/4 248/5/4 251/5/4
f 251/3/4 249/3/4 252/3/4
f 257/2/5 255/2/5 254/2/5
f 258/2/5 255/2/5 257/2/5
f 259/5/5 254/5/5 253/5/5
f 260/2/5 257/2/5 254/2/5
f 260/5/5 254/5/5 259/5/5
f 261/4/5 258/4/5 257/4/5
f 261/2/5 257/2/5 260/2/5
f 262/2/5 255/2/5 258/2/5
f 262/4/5 258/4/5 261/4/5
f 263/5/5 256/5/5 255/5/5
f 263/2/5 255/2/5 262/2/5
f 264/5/5 256/5/5 263/5/5
f 265/2/5 261/2/5 260/2/5
f 265/2/5 262/2/5 261/2/5
f 265/2/5 264/2/5 263/2/5
f 265/2/5 263/2/5 262/2/5
f 265/2/5 260/2/5 259/2/5
f 266/2/5 264/2/5 265/2/5
f 267/2/5 264/2/5 266/2/5
f 268/2/5 264/2/5 267/2/5
f 269/2/5 264/2/5 268/2/5
f 270/2/5 264/2/5 269/2/5
f 271/2/5 264/2/5 270/2/5
f 272/2/5 264/2/5 271/2/5
f 273/2/5 265/2/5 259/2/5
f 273/4/5 266/4/5 265/4/5
f 274/2/5 267/2/5 266/2/5
f 274/4/5 266/4/5 273/4/5
f 275/4/5 268/4/5 267/4/5
f 275/2/5 267/2/5 274/2/5
f 276/2/5 269/2/5 268/2/5
f 276/4/5 268/4/5 275/4/5
f 277/4/5 270/4/5 269/4/5
f 277/2/5 269/2/5 276/2/5
f 278/4/5 270/4/5 277/4/5
f 279/4/5 272/4/5 271/4/5
f 279/2/5 271/2/5 270/2/5
f 280/2/5 264/2/5 272/2/5
f 280/4/5 272/4/5 279/4/5
f 281/4/5 270/4/5 278/4/5
f 281/2/5 274/2/5 273/2/5
f 281/2/5 275/2/5 274/2/5
f 281/2/5 277/2/5 276/2/5
f 281/2/5 278/2/5 277/2/5
f 281/2/5 276/2/5 275/2/5
f 282/2/5 279/2/5 270/2/5
f 282/4/5 270/4/5 281/4/5
f 282/2/5 280/2/5 279/2/5
f 283/2/5 281/2/5 273/2/5
f 283/2/5 282/2/5 281/2/5
f 284/2/5 280/2/5 282/2/5
f 284/2/5 282/2/5 283/2/5
f 285/2/5 283/2/5 273/2/5
f 285/4/5 284/4/5 283/4/5
f 286/2/5 280/2/5 284/2/5
f 286/4/5 284/4/5 285/4/5
f 287/2/5 285/2/5 273/2/5
f 287/2/5 273/2/5 259/2/5
f 287/2/5 286/2/5 285/2/5
f 288/2/5 286/2/5 287/2/5
f 289/2/5 286/2/5 288/2/5
f 290/2/5 280/2/5 286/2/5
f 290/2/5 286/2/5 289/2/5
f 291/2/5 280/2/5 290/2/5
f 292/2/5 264/2/5 280/2/5
f 292/2/5 280/2/5 291/2/5
f 293/2/5 289/2/5 288/2/5
f 293/4/5 290/4/5 289/4/5
f 294/2/5 291/2/5 290/2/5
f 294/4/5 290/4/5 293/4/5
f 295/5/5 288/5/5 287/5/5
f 296/2/5 293/2/5 288/2/5
f 296/5/5 288/5/5 295/5/5
f 296/2/5 294/2/5 293/2/5
f 297/2/5 291/2/5 294/2/5
f 297/2/5 294/2/5 296/2/5
f 297/5/5 292/5/5 291/5/5
f 298/5/5 292/5/5 297/5/5
f 302/1/5 300/1/5 299/1/5
f 303/1/5 300/1/5 302/1/5
f 305/1/5 302/1/5 301/1/5
f 306/1/5 302/1/5 305/1/5
f 307/1/5 304/1/5 303/1/5
f 308/1/5 304/1/5 307/1/5
f 309/1/5 307/1/5 306/1/5
f 310/1/5 307/1/5 309/1/5
f 314/1/5 312/1/5 311/1/5
f 315/1/5 312/1/5 314/1/5
f 317/1/5 314/1/5 313/1/5
f 318/1/5 314/1/5 317/1/5
f 319/1/5 316/1/5 315/1/5
f 320/1/5 316/1/5 319/1/5
f 321/1/5 319/1/5 318/1/5
f 322/1/5 319/1/5 321/1/5
f 326/1/5 324/1/5 323/1/5
f 327/1/5 324/1/5 326/1/5
f 329/1/5 326/1/5 325/1/5
f 330/1/5 326/1/5 329/1/5
f 331/1/5 328/1/5 327/1/5
f 332/1/5 328/1/5 331/1/5
f 333/1/5 331/1/5 330/1/5
f 334/1/5 331/1/5 333/1/5
f 335/2/6 336/2/6 337/2/6
f 337/2/6 336/2/6 338/2/6
f 338/2/6 336/2/6 339/2/6
f 339/2/6 336/2/6 340/2/6
f 340/2/6 336/2/6 341/2/6
f 341/2/6 336/2/6 342/2/6
f 335/2/6 337/2/6 343/2/6
f 337/4/6 338/4/6 343/4/6
f 338/2/6 339/2/6 344/2/6
f 343/4/6 338/4/6 344/4/6
f 339/4/6 340/4/6 345/4/6
f 344/2/6 339/2/6 345/2/6
f 340/2/6 341/2/6 346/2/6
f 345/4/6 340/4/6 346/4/6
f 341/4/6 342/4/6 347/4/6
f 346/2/6 341/2/6 347/2/6
f 347/4/6 342/4/6 348/4/6
f 345/2/6 346/2/6 349/2/6
f 348/4/6 342/4/6 349/4/6
f 347/2/6 348/2/6 349/2/6
f 346/2/6 347/2/6 349/2/6
f 344/2/6 345/2/6 349/2/6
f 343/2/6 344/2/6 349/2/6
f 342/2/6 336/2/6 350/2/6
f 349/4/6 342/4/6 350/4/6
f 343/2/6 349/2/6 351/2/6
f 349/2/6 350/2/6 351/2/6
f 350/2/6 336/2/6 352/2/6
f 351/2/6 350/2/6 352/2/6
f 343/2/6 351/2/6 353/2/6
f 351/4/6 352/4/6 353/4/6
f 352/2/6 336/2/6 354/2/6
f 353/4/6 352/4/6 354/4/6
f 343/2/6 353/2/6 355/2/6
f 335/2/6 343/2/6 355/2/6
f 353/2/6 354/2/6 355/2/6
f 355/2/6 354/2/6 356/2/6
f 356/2/6 354/2/6 357/2/6
f 354/2/6 336/2/6 358/2/6
f 357/2/6 354/2/6 358/2/6
f 356/2/6 357/2/6 359/2/6
f 357/4/6 358/4/6 359/4/6
f 358/2/6 336/2/6 360/2/6
f 359/4/6 358/4/6 360/4/6
f 356/2/6 359/2/6 361/2/6
f 359/2/6 360/2/6 361/2/6
f 360/2/6 336/2/6 362/2/6
f 361/2/6 360/2/6 362/2/6
f 363/3/6 364/3/6 365/3/6
f 365/3/6 364/3/6 366/3/6
f 363/3/6 365/3/6 367/3/6
f 366/3/6 364/3/6 368/3/6
f 363/3/6 367/3/6 369/3/6
f 367/3/6 368/3/6 369/3/6
f 368/3/6 364/3/6 370/3/6
f 369/3/6 368/3/6 370/3/6
f 370/3/6 364/3/6 371/3/6
f 371/3/6 364/3/6 372/3/6
f 370/3/6 371/3/6 373/3/6
f 372/3/6 364/3/6 374/3/6
f 375/3/6 376/3/6 377/3/6
f 377/3/6 376/3/6 378/3/6
f 375/3/6 377/3/6 379/3/6
f 378/3/6 376/3/6 380/3/6
f 375/3/6 379/3/6 381/3/6
f 379/3/6 380/3/6 381/3/6
f 380/3/6 376/3/6 382/3/6
f 381/3/6 380/3/6 382/3/6
f 370/3/6 373/3/6 383/3/6
f 373/3/6 374/3/6 383/3/6
f 374/3/6 364/3/6 384/3/6
f 383/3/6 374/3/6 384/3/6
f 385/1/6 386/1/6 388/1/6
f 388/1/6 386/1/6 389/1/6
f 387/1/6 388/1/6 391/1/6
f 391/1/6 388/1/6 392/1/6
f 389/1/6 390/1/6 393/1/6
f 393/1/6 390/1/6 394/1/6
f 392/1/6 393/1/6 395/1/6
f 395/1/6 393/1/6 396/1/6
f 397/1/6 398/1/6 400/1/6
f 400/1/6 398/1/6 401/1/6
f 399/1/6 400/1/6 403/1/6
f 403/1/6 400/1/6 404/1/6
f 401/1/6 402/1/6 405/1/6
f 405/1/6 402/1/6 406/1/6
f 404/1/6 405/1/6 407/1/6
f 407/1/6 405/1/6 408/1/6
f 409/1/6 410/1/6 412/1/6
f 412/1/6 410/1/6 413/1/6
f 411/1/6 412/1/6 415/1/6
f 415/1/6 412/1/6 416/1/6
f 413/1/6 414/1/6 417/1/6
f 417/1/6 414/1/6 418/1/6
f 416/1/6 417/1/6 419/1/6
f 419/1/6 417/1/6 420/1/6
f 421/1/6 422/1/6 423/1/6
f 423/1/6 422/1/6 424/1/6
f 425/1/6 426/1/6 427/1/6
f 427/1/6 426/1/6 428/1/6
f 429/1/6 430/1/6 431/1/6
f 431/1/6 430/1/6 432/1/6
