# MagicaVoxel @ ephtracy

# material
mtllib turnroad.mtl
usemtl palette

# normals
vn -1 0 0
vn 1 0 0
vn 0 0 1
vn 0 0 -1
vn 0 -1 0
vn 0 1 0

# texcoords
vt 0.978516 0.5
vt 0.982422 0.5
vt 0.986328 0.5
vt 0.990234 0.5

# verts
v -15 0 15
v -15 0 11
v -15 0 -11
v -15 0 -15
v -15 1 15
v -15 1 11
v -15 1 -11
v -15 1 -15
v -15 2 15
v -15 2 11
v -15 2 -11
v -15 2 -15
v 11 1 11
v 11 1 -15
v 11 2 11
v 11 2 -15
v -11 1 -11
v -11 1 -15
v -11 2 -11
v -11 2 -15
v 15 0 15
v 15 0 11
v 15 0 -11
v 15 0 -15
v 15 1 15
v 15 1 11
v 15 1 -11
v 15 1 -15
v 15 2 15
v 15 2 -15
v -15 0 15
v -15 1 15
v -15 2 15
v -11 0 15
v -11 1 15
v 11 0 15
v 11 1 15
v 15 0 15
v 15 1 15
v 15 2 15
v -15 1 -11
v -15 2 -11
v -11 1 -11
v -11 2 -11
v -15 1 11
v -15 2 11
v 11 1 11
v 11 2 11
v -15 0 -15
v -15 1 -15
v -15 2 -15
v -11 0 -15
v -11 1 -15
v -11 2 -15
v 11 0 -15
v 11 1 -15
v 11 2 -15
v 15 0 -15
v 15 1 -15
v 15 2 -15
v -15 0 15
v -11 0 15
v 11 0 15
v 15 0 15
v -1 0 14
v 1 0 14
v -15 0 11
v -11 0 11
v -1 0 11
v 1 0 11
v 11 0 11
v 15 0 11
v -14 0 1
v -11 0 1
v -9 0 1
v -6 0 1
v -4 0 1
v 1 0 1
v 11 0 1
v 14 0 1
v -14 0 -1
v -11 0 -1
v -9 0 -1
v -6 0 -1
v -4 0 -1
v -1 0 -1
v 11 0 -1
v 14 0 -1
v -1 0 -4
v 1 0 -4
v -1 0 -6
v 1 0 -6
v -1 0 -9
v 1 0 -9
v -15 0 -11
v -11 0 -11
v -1 0 -11
v 1 0 -11
v 11 0 -11
v 15 0 -11
v -1 0 -14
v 1 0 -14
v -15 0 -15
v -11 0 -15
v 11 0 -15
v 15 0 -15
v -15 1 11
v 11 1 11
v -14 1 1
v -11 1 1
v -9 1 1
v -6 1 1
v -4 1 1
v 1 1 1
v -14 1 -1
v -11 1 -1
v -9 1 -1
v -6 1 -1
v -4 1 -1
v -1 1 -1
v -1 1 -4
v 1 1 -4
v -1 1 -6
v 1 1 -6
v -1 1 -9
v 1 1 -9
v -15 1 -11
v -11 1 -11
v -1 1 -11
v 1 1 -11
v -1 1 -14
v 1 1 -14
v -11 1 -15
v 11 1 -15
v -15 2 15
v 15 2 15
v -15 2 11
v 11 2 11
v -15 2 -11
v -11 2 -11
v -15 2 -15
v -11 2 -15
v 11 2 -15
v 15 2 -15

# faces
f 5/4/1 2/4/1 1/4/1
f 6/1/1 3/1/1 2/1/1
f 6/4/1 2/4/1 5/4/1
f 7/4/1 4/4/1 3/4/1
f 7/1/1 3/1/1 6/1/1
f 8/4/1 4/4/1 7/4/1
f 9/2/1 6/2/1 5/2/1
f 10/2/1 6/2/1 9/2/1
f 11/2/1 8/2/1 7/2/1
f 12/2/1 8/2/1 11/2/1
f 15/2/1 14/2/1 13/2/1
f 16/2/1 14/2/1 15/2/1
f 17/2/2 18/2/2 19/2/2
f 19/2/2 18/2/2 20/2/2
f 21/4/2 22/4/2 25/4/2
f 22/1/2 23/1/2 26/1/2
f 25/4/2 22/4/2 26/4/2
f 23/4/2 24/4/2 27/4/2
f 26/1/2 23/1/2 27/1/2
f 27/4/2 24/4/2 28/4/2
f 25/2/2 26/2/2 29/2/2
f 26/2/2 27/2/2 29/2/2
f 27/2/2 28/2/2 29/2/2
f 29/2/2 28/2/2 30/2/2
f 34/4/3 32/4/3 31/4/3
f 35/2/3 33/2/3 32/2/3
f 35/4/3 32/4/3 34/4/3
f 36/1/3 35/1/3 34/1/3
f 37/2/3 33/2/3 35/2/3
f 37/1/3 35/1/3 36/1/3
f 38/4/3 37/4/3 36/4/3
f 39/2/3 33/2/3 37/2/3
f 39/4/3 37/4/3 38/4/3
f 40/2/3 33/2/3 39/2/3
f 43/2/3 42/2/3 41/2/3
f 44/2/3 42/2/3 43/2/3
f 45/2/4 46/2/4 47/2/4
f 47/2/4 46/2/4 48/2/4
f 49/4/4 50/4/4 52/4/4
f 50/2/4 51/2/4 53/2/4
f 52/4/4 50/4/4 53/4/4
f 53/2/4 51/2/4 54/2/4
f 52/1/4 53/1/4 55/1/4
f 55/1/4 53/1/4 56/1/4
f 55/4/4 56/4/4 58/4/4
f 56/2/4 57/2/4 59/2/4
f 58/4/4 56/4/4 59/4/4
f 59/2/4 57/2/4 60/2/4
f 65/1/5 63/1/5 62/1/5
f 66/1/5 63/1/5 65/1/5
f 67/4/5 62/4/5 61/4/5
f 68/1/5 65/1/5 62/1/5
f 68/4/5 62/4/5 67/4/5
f 69/3/5 66/3/5 65/3/5
f 69/1/5 65/1/5 68/1/5
f 70/1/5 63/1/5 66/1/5
f 70/3/5 66/3/5 69/3/5
f 71/4/5 64/4/5 63/4/5
f 71/1/5 63/1/5 70/1/5
f 72/4/5 64/4/5 71/4/5
f 73/1/5 69/1/5 68/1/5
f 73/1/5 70/1/5 69/1/5
f 73/1/5 72/1/5 71/1/5
f 73/1/5 71/1/5 70/1/5
f 73/1/5 68/1/5 67/1/5
f 74/1/5 72/1/5 73/1/5
f 75/1/5 72/1/5 74/1/5
f 76/1/5 72/1/5 75/1/5
f 77/1/5 72/1/5 76/1/5
f 78/1/5 72/1/5 77/1/5
f 79/1/5 72/1/5 78/1/5
f 80/1/5 72/1/5 79/1/5
f 81/1/5 73/1/5 67/1/5
f 81/3/5 74/3/5 73/3/5
f 82/1/5 75/1/5 74/1/5
f 82/3/5 74/3/5 81/3/5
f 83/3/5 76/3/5 75/3/5
f 83/1/5 75/1/5 82/1/5
f 84/1/5 77/1/5 76/1/5
f 84/3/5 76/3/5 83/3/5
f 85/3/5 78/3/5 77/3/5
f 85/1/5 77/1/5 84/1/5
f 86/3/5 78/3/5 85/3/5
f 87/3/5 80/3/5 79/3/5
f 87/1/5 79/1/5 78/1/5
f 88/1/5 72/1/5 80/1/5
f 88/3/5 80/3/5 87/3/5
f 89/3/5 78/3/5 86/3/5
f 89/1/5 82/1/5 81/1/5
f 89/1/5 83/1/5 82/1/5
f 89/1/5 85/1/5 84/1/5
f 89/1/5 86/1/5 85/1/5
f 89/1/5 84/1/5 83/1/5
f 90/1/5 87/1/5 78/1/5
f 90/3/5 78/3/5 89/3/5
f 90/1/5 88/1/5 87/1/5
f 91/1/5 89/1/5 81/1/5
f 91/1/5 90/1/5 89/1/5
f 92/1/5 88/1/5 90/1/5
f 92/1/5 90/1/5 91/1/5
f 93/1/5 91/1/5 81/1/5
f 93/3/5 92/3/5 91/3/5
f 94/1/5 88/1/5 92/1/5
f 94/3/5 92/3/5 93/3/5
f 95/1/5 93/1/5 81/1/5
f 95/1/5 81/1/5 67/1/5
f 95/1/5 94/1/5 93/1/5
f 96/1/5 94/1/5 95/1/5
f 97/1/5 94/1/5 96/1/5
f 98/1/5 88/1/5 94/1/5
f 98/1/5 94/1/5 97/1/5
f 99/1/5 88/1/5 98/1/5
f 100/1/5 72/1/5 88/1/5
f 100/1/5 88/1/5 99/1/5
f 101/1/5 97/1/5 96/1/5
f 101/3/5 98/3/5 97/3/5
f 102/1/5 99/1/5 98/1/5
f 102/3/5 98/3/5 101/3/5
f 103/4/5 96/4/5 95/4/5
f 104/1/5 101/1/5 96/1/5
f 104/4/5 96/4/5 103/4/5
f 104/1/5 102/1/5 101/1/5
f 105/1/5 99/1/5 102/1/5
f 105/1/5 102/1/5 104/1/5
f 105/4/5 100/4/5 99/4/5
f 106/4/5 100/4/5 105/4/5
f 107/1/6 108/1/6 109/1/6
f 109/1/6 108/1/6 110/1/6
f 110/1/6 108/1/6 111/1/6
f 111/1/6 108/1/6 112/1/6
f 112/1/6 108/1/6 113/1/6
f 113/1/6 108/1/6 114/1/6
f 107/1/6 109/1/6 115/1/6
f 109/3/6 110/3/6 115/3/6
f 110/1/6 111/1/6 116/1/6
f 115/3/6 110/3/6 116/3/6
f 111/3/6 112/3/6 117/3/6
f 116/1/6 111/1/6 117/1/6
f 112/1/6 113/1/6 118/1/6
f 117/3/6 112/3/6 118/3/6
f 113/3/6 114/3/6 119/3/6
f 118/1/6 113/1/6 119/1/6
f 119/3/6 114/3/6 120/3/6
f 117/1/6 118/1/6 121/1/6
f 120/3/6 114/3/6 121/3/6
f 119/1/6 120/1/6 121/1/6
f 118/1/6 119/1/6 121/1/6
f 116/1/6 117/1/6 121/1/6
f 115/1/6 116/1/6 121/1/6
f 114/1/6 108/1/6 122/1/6
f 121/3/6 114/3/6 122/3/6
f 115/1/6 121/1/6 123/1/6
f 121/1/6 122/1/6 123/1/6
f 122/1/6 108/1/6 124/1/6
f 123/1/6 122/1/6 124/1/6
f 115/1/6 123/1/6 125/1/6
f 123/3/6 124/3/6 125/3/6
f 124/1/6 108/1/6 126/1/6
f 125/3/6 124/3/6 126/3/6
f 115/1/6 125/1/6 127/1/6
f 107/1/6 115/1/6 127/1/6
f 125/1/6 126/1/6 127/1/6
f 127/1/6 126/1/6 128/1/6
f 128/1/6 126/1/6 129/1/6
f 126/1/6 108/1/6 130/1/6
f 129/1/6 126/1/6 130/1/6
f 128/1/6 129/1/6 131/1/6
f 129/3/6 130/3/6 131/3/6
f 130/1/6 108/1/6 132/1/6
f 131/3/6 130/3/6 132/3/6
f 128/1/6 131/1/6 133/1/6
f 131/1/6 132/1/6 133/1/6
f 132/1/6 108/1/6 134/1/6
f 133/1/6 132/1/6 134/1/6
f 135/2/6 136/2/6 137/2/6
f 137/2/6 136/2/6 138/2/6
f 139/2/6 140/2/6 141/2/6
f 141/2/6 140/2/6 142/2/6
f 138/2/6 136/2/6 143/2/6
f 143/2/6 136/2/6 144/2/6
