# MagicaVoxel @ ephtracy

# material
mtllib xcrossroad.mtl
usemtl palette

# normals
vn -1 0 0
vn 1 0 0
vn 0 0 1
vn 0 0 -1
vn 0 -1 0
vn 0 1 0

# texcoords
vt 0.978516 0.5
vt 0.982422 0.5
vt 0.986328 0.5
vt 0.990234 0.5

# verts
v -15 0 15
v -15 0 11
v -15 0 -11
v -15 0 -15
v -15 1 15
v -15 1 11
v -15 1 -11
v -15 1 -15
v -15 2 15
v -15 2 11
v -15 2 -11
v -15 2 -15
v 11 1 15
v 11 1 11
v 11 1 -11
v 11 1 -15
v 11 2 15
v 11 2 11
v 11 2 -11
v 11 2 -15
v -11 1 15
v -11 1 11
v -11 1 -11
v -11 1 -15
v -11 2 15
v -11 2 11
v -11 2 -11
v -11 2 -15
v 15 0 15
v 15 0 11
v 15 0 -11
v 15 0 -15
v 15 1 15
v 15 1 11
v 15 1 -11
v 15 1 -15
v 15 2 15
v 15 2 11
v 15 2 -11
v 15 2 -15
v -15 0 15
v -15 1 15
v -15 2 15
v -11 0 15
v -11 1 15
v -11 2 15
v 11 0 15
v 11 1 15
v 11 2 15
v 15 0 15
v 15 1 15
v 15 2 15
v -15 1 -11
v -15 2 -11
v -11 1 -11
v -11 2 -11
v 11 1 -11
v 11 2 -11
v 15 1 -11
v 15 2 -11
v -15 1 11
v -15 2 11
v -11 1 11
v -11 2 11
v 11 1 11
v 11 2 11
v 15 1 11
v 15 2 11
v -15 0 -15
v -15 1 -15
v -15 2 -15
v -11 0 -15
v -11 1 -15
v -11 2 -15
v 11 0 -15
v 11 1 -15
v 11 2 -15
v 15 0 -15
v 15 1 -15
v 15 2 -15
v -15 0 15
v -11 0 15
v 11 0 15
v 15 0 15
v -1 0 14
v 1 0 14
v -15 0 11
v -11 0 11
v -1 0 11
v 1 0 11
v 11 0 11
v 15 0 11
v -1 0 9
v 1 0 9
v -1 0 6
v 1 0 6
v -1 0 4
v 1 0 4
v -14 0 1
v -11 0 1
v -9 0 1
v -6 0 1
v -4 0 1
v -1 0 1
v 1 0 1
v 4 0 1
v 6 0 1
v 9 0 1
v 11 0 1
v 14 0 1
v -14 0 -1
v -11 0 -1
v -9 0 -1
v -6 0 -1
v -4 0 -1
v -1 0 -1
v 1 0 -1
v 4 0 -1
v 6 0 -1
v 9 0 -1
v 11 0 -1
v 14 0 -1
v -1 0 -4
v 1 0 -4
v -1 0 -6
v 1 0 -6
v -1 0 -9
v 1 0 -9
v -15 0 -11
v -11 0 -11
v -1 0 -11
v 1 0 -11
v 11 0 -11
v 15 0 -11
v -1 0 -14
v 1 0 -14
v -15 0 -15
v -11 0 -15
v 11 0 -15
v 15 0 -15
v -11 1 15
v 11 1 15
v -1 1 14
v 1 1 14
v -15 1 11
v -11 1 11
v -1 1 11
v 1 1 11
v 11 1 11
v 15 1 11
v -1 1 9
v 1 1 9
v -1 1 6
v 1 1 6
v -1 1 4
v 1 1 4
v -14 1 1
v -11 1 1
v -9 1 1
v -6 1 1
v -4 1 1
v -1 1 1
v 1 1 1
v 4 1 1
v 6 1 1
v 9 1 1
v 11 1 1
v 14 1 1
v -14 1 -1
v -11 1 -1
v -9 1 -1
v -6 1 -1
v -4 1 -1
v -1 1 -1
v 1 1 -1
v 4 1 -1
v 6 1 -1
v 9 1 -1
v 11 1 -1
v 14 1 -1
v -1 1 -4
v 1 1 -4
v -1 1 -6
v 1 1 -6
v -1 1 -9
v 1 1 -9
v -15 1 -11
v -11 1 -11
v -1 1 -11
v 1 1 -11
v 11 1 -11
v 15 1 -11
v -1 1 -14
v 1 1 -14
v -11 1 -15
v 11 1 -15
v -15 2 15
v -11 2 15
v 11 2 15
v 15 2 15
v -15 2 11
v -11 2 11
v 11 2 11
v 15 2 11
v -15 2 -11
v -11 2 -11
v 11 2 -11
v 15 2 -11
v -15 2 -15
v -11 2 -15
v 11 2 -15
v 15 2 -15

# faces
f 5/4/1 2/4/1 1/4/1
f 6/1/1 3/1/1 2/1/1
f 6/4/1 2/4/1 5/4/1
f 7/4/1 4/4/1 3/4/1
f 7/1/1 3/1/1 6/1/1
f 8/4/1 4/4/1 7/4/1
f 9/2/1 6/2/1 5/2/1
f 10/2/1 6/2/1 9/2/1
f 11/2/1 8/2/1 7/2/1
f 12/2/1 8/2/1 11/2/1
f 17/2/1 14/2/1 13/2/1
f 18/2/1 14/2/1 17/2/1
f 19/2/1 16/2/1 15/2/1
f 20/2/1 16/2/1 19/2/1
f 21/2/2 22/2/2 25/2/2
f 25/2/2 22/2/2 26/2/2
f 23/2/2 24/2/2 27/2/2
f 27/2/2 24/2/2 28/2/2
f 29/4/2 30/4/2 33/4/2
f 30/1/2 31/1/2 34/1/2
f 33/4/2 30/4/2 34/4/2
f 31/4/2 32/4/2 35/4/2
f 34/1/2 31/1/2 35/1/2
f 35/4/2 32/4/2 36/4/2
f 33/2/2 34/2/2 37/2/2
f 37/2/2 34/2/2 38/2/2
f 35/2/2 36/2/2 39/2/2
f 39/2/2 36/2/2 40/2/2
f 44/4/3 42/4/3 41/4/3
f 45/2/3 43/2/3 42/2/3
f 45/4/3 42/4/3 44/4/3
f 46/2/3 43/2/3 45/2/3
f 47/1/3 45/1/3 44/1/3
f 48/1/3 45/1/3 47/1/3
f 50/4/3 48/4/3 47/4/3
f 51/2/3 49/2/3 48/2/3
f 51/4/3 48/4/3 50/4/3
f 52/2/3 49/2/3 51/2/3
f 55/2/3 54/2/3 53/2/3
f 56/2/3 54/2/3 55/2/3
f 59/2/3 58/2/3 57/2/3
f 60/2/3 58/2/3 59/2/3
f 61/2/4 62/2/4 63/2/4
f 63/2/4 62/2/4 64/2/4
f 65/2/4 66/2/4 67/2/4
f 67/2/4 66/2/4 68/2/4
f 69/4/4 70/4/4 72/4/4
f 70/2/4 71/2/4 73/2/4
f 72/4/4 70/4/4 73/4/4
f 73/2/4 71/2/4 74/2/4
f 72/1/4 73/1/4 75/1/4
f 75/1/4 73/1/4 76/1/4
f 75/4/4 76/4/4 78/4/4
f 76/2/4 77/2/4 79/2/4
f 78/4/4 76/4/4 79/4/4
f 79/2/4 77/2/4 80/2/4
f 85/1/5 83/1/5 82/1/5
f 86/1/5 83/1/5 85/1/5
f 87/4/5 82/4/5 81/4/5
f 88/1/5 85/1/5 82/1/5
f 88/4/5 82/4/5 87/4/5
f 89/3/5 86/3/5 85/3/5
f 89/1/5 85/1/5 88/1/5
f 90/1/5 83/1/5 86/1/5
f 90/3/5 86/3/5 89/3/5
f 91/4/5 84/4/5 83/4/5
f 91/1/5 83/1/5 90/1/5
f 92/4/5 84/4/5 91/4/5
f 93/1/5 89/1/5 88/1/5
f 93/1/5 90/1/5 89/1/5
f 93/1/5 92/1/5 91/1/5
f 93/1/5 91/1/5 90/1/5
f 93/1/5 88/1/5 87/1/5
f 94/1/5 92/1/5 93/1/5
f 95/1/5 93/1/5 87/1/5
f 95/3/5 94/3/5 93/3/5
f 96/1/5 92/1/5 94/1/5
f 96/3/5 94/3/5 95/3/5
f 97/1/5 95/1/5 87/1/5
f 97/1/5 96/1/5 95/1/5
f 98/1/5 92/1/5 96/1/5
f 98/1/5 96/1/5 97/1/5
f 99/1/5 97/1/5 87/1/5
f 100/1/5 97/1/5 99/1/5
f 101/1/5 97/1/5 100/1/5
f 102/1/5 97/1/5 101/1/5
f 103/1/5 97/1/5 102/1/5
f 104/3/5 98/3/5 97/3/5
f 104/1/5 97/1/5 103/1/5
f 105/1/5 92/1/5 98/1/5
f 105/3/5 98/3/5 104/3/5
f 106/1/5 92/1/5 105/1/5
f 107/1/5 92/1/5 106/1/5
f 108/1/5 92/1/5 107/1/5
f 109/1/5 92/1/5 108/1/5
f 110/1/5 92/1/5 109/1/5
f 111/1/5 99/1/5 87/1/5
f 111/3/5 100/3/5 99/3/5
f 112/1/5 101/1/5 100/1/5
f 112/3/5 100/3/5 111/3/5
f 113/3/5 102/3/5 101/3/5
f 113/1/5 101/1/5 112/1/5
f 114/1/5 103/1/5 102/1/5
f 114/3/5 102/3/5 113/3/5
f 115/3/5 104/3/5 103/3/5
f 115/1/5 103/1/5 114/1/5
f 115/3/5 105/3/5 104/3/5
f 115/3/5 106/3/5 105/3/5
f 116/3/5 106/3/5 115/3/5
f 117/3/5 106/3/5 116/3/5
f 118/1/5 107/1/5 106/1/5
f 118/3/5 106/3/5 117/3/5
f 119/3/5 108/3/5 107/3/5
f 119/1/5 107/1/5 118/1/5
f 120/1/5 109/1/5 108/1/5
f 120/3/5 108/3/5 119/3/5
f 121/3/5 110/3/5 109/3/5
f 121/1/5 109/1/5 120/1/5
f 122/1/5 92/1/5 110/1/5
f 122/3/5 110/3/5 121/3/5
f 123/1/5 114/1/5 113/1/5
f 123/1/5 113/1/5 112/1/5
f 123/1/5 112/1/5 111/1/5
f 123/1/5 116/1/5 115/1/5
f 123/1/5 115/1/5 114/1/5
f 123/3/5 117/3/5 116/3/5
f 124/1/5 122/1/5 121/1/5
f 124/3/5 117/3/5 123/3/5
f 124/1/5 121/1/5 120/1/5
f 124/1/5 119/1/5 118/1/5
f 124/1/5 118/1/5 117/1/5
f 124/1/5 120/1/5 119/1/5
f 125/1/5 123/1/5 111/1/5
f 125/1/5 124/1/5 123/1/5
f 126/1/5 122/1/5 124/1/5
f 126/1/5 124/1/5 125/1/5
f 127/1/5 125/1/5 111/1/5
f 127/3/5 126/3/5 125/3/5
f 128/1/5 122/1/5 126/1/5
f 128/3/5 126/3/5 127/3/5
f 129/1/5 127/1/5 111/1/5
f 129/1/5 111/1/5 87/1/5
f 129/1/5 128/1/5 127/1/5
f 130/1/5 128/1/5 129/1/5
f 131/1/5 128/1/5 130/1/5
f 132/1/5 122/1/5 128/1/5
f 132/1/5 128/1/5 131/1/5
f 133/1/5 122/1/5 132/1/5
f 134/1/5 92/1/5 122/1/5
f 134/1/5 122/1/5 133/1/5
f 135/1/5 131/1/5 130/1/5
f 135/3/5 132/3/5 131/3/5
f 136/1/5 133/1/5 132/1/5
f 136/3/5 132/3/5 135/3/5
f 137/4/5 130/4/5 129/4/5
f 138/1/5 135/1/5 130/1/5
f 138/4/5 130/4/5 137/4/5
f 138/1/5 136/1/5 135/1/5
f 139/1/5 133/1/5 136/1/5
f 139/1/5 136/1/5 138/1/5
f 139/4/5 134/4/5 133/4/5
f 140/4/5 134/4/5 139/4/5
f 141/1/6 142/1/6 143/1/6
f 143/1/6 142/1/6 144/1/6
f 141/1/6 143/1/6 146/1/6
f 143/3/6 144/3/6 147/3/6
f 146/1/6 143/1/6 147/1/6
f 144/1/6 142/1/6 148/1/6
f 147/3/6 144/3/6 148/3/6
f 148/1/6 142/1/6 149/1/6
f 146/1/6 147/1/6 151/1/6
f 149/1/6 150/1/6 151/1/6
f 148/1/6 149/1/6 151/1/6
f 147/1/6 148/1/6 151/1/6
f 145/1/6 146/1/6 151/1/6
f 151/1/6 150/1/6 152/1/6
f 145/1/6 151/1/6 153/1/6
f 151/3/6 152/3/6 153/3/6
f 152/1/6 150/1/6 154/1/6
f 153/3/6 152/3/6 154/3/6
f 145/1/6 153/1/6 155/1/6
f 153/1/6 154/1/6 155/1/6
f 154/1/6 150/1/6 156/1/6
f 155/1/6 154/1/6 156/1/6
f 145/1/6 155/1/6 157/1/6
f 157/1/6 155/1/6 158/1/6
f 158/1/6 155/1/6 159/1/6
f 159/1/6 155/1/6 160/1/6
f 160/1/6 155/1/6 161/1/6
f 155/3/6 156/3/6 162/3/6
f 161/1/6 155/1/6 162/1/6
f 156/1/6 150/1/6 163/1/6
f 162/3/6 156/3/6 163/3/6
f 163/1/6 150/1/6 164/1/6
f 164/1/6 150/1/6 165/1/6
f 165/1/6 150/1/6 166/1/6
f 166/1/6 150/1/6 167/1/6
f 167/1/6 150/1/6 168/1/6
f 145/1/6 157/1/6 169/1/6
f 157/3/6 158/3/6 169/3/6
f 158/1/6 159/1/6 170/1/6
f 169/3/6 158/3/6 170/3/6
f 159/3/6 160/3/6 171/3/6
f 170/1/6 159/1/6 171/1/6
f 160/1/6 161/1/6 172/1/6
f 171/3/6 160/3/6 172/3/6
f 161/3/6 162/3/6 173/3/6
f 172/1/6 161/1/6 173/1/6
f 162/3/6 163/3/6 173/3/6
f 163/3/6 164/3/6 173/3/6
f 173/3/6 164/3/6 174/3/6
f 174/3/6 164/3/6 175/3/6
f 164/1/6 165/1/6 176/1/6
f 175/3/6 164/3/6 176/3/6
f 165/3/6 166/3/6 177/3/6
f 176/1/6 165/1/6 177/1/6
f 166/1/6 167/1/6 178/1/6
f 177/3/6 166/3/6 178/3/6
f 167/3/6 168/3/6 179/3/6
f 178/1/6 167/1/6 179/1/6
f 168/1/6 150/1/6 180/1/6
f 179/3/6 168/3/6 180/3/6
f 171/1/6 172/1/6 181/1/6
f 170/1/6 171/1/6 181/1/6
f 169/1/6 170/1/6 181/1/6
f 173/1/6 174/1/6 181/1/6
f 172/1/6 173/1/6 181/1/6
f 174/3/6 175/3/6 181/3/6
f 179/1/6 180/1/6 182/1/6
f 181/3/6 175/3/6 182/3/6
f 178/1/6 179/1/6 182/1/6
f 176/1/6 177/1/6 182/1/6
f 175/1/6 176/1/6 182/1/6
f 177/1/6 178/1/6 182/1/6
f 169/1/6 181/1/6 183/1/6
f 181/1/6 182/1/6 183/1/6
f 182/1/6 180/1/6 184/1/6
f 183/1/6 182/1/6 184/1/6
f 169/1/6 183/1/6 185/1/6
f 183/3/6 184/3/6 185/3/6
f 184/1/6 180/1/6 186/1/6
f 185/3/6 184/3/6 186/3/6
f 169/1/6 185/1/6 187/1/6
f 145/1/6 169/1/6 187/1/6
f 185/1/6 186/1/6 187/1/6
f 187/1/6 186/1/6 188/1/6
f 188/1/6 186/1/6 189/1/6
f 186/1/6 180/1/6 190/1/6
f 189/1/6 186/1/6 190/1/6
f 190/1/6 180/1/6 191/1/6
f 180/1/6 150/1/6 192/1/6
f 191/1/6 180/1/6 192/1/6
f 188/1/6 189/1/6 193/1/6
f 189/3/6 190/3/6 193/3/6
f 190/1/6 191/1/6 194/1/6
f 193/3/6 190/3/6 194/3/6
f 188/1/6 193/1/6 195/1/6
f 193/1/6 194/1/6 195/1/6
f 194/1/6 191/1/6 196/1/6
f 195/1/6 194/1/6 196/1/6
f 197/2/6 198/2/6 201/2/6
f 201/2/6 198/2/6 202/2/6
f 199/2/6 200/2/6 203/2/6
f 203/2/6 200/2/6 204/2/6
f 205/2/6 206/2/6 209/2/6
f 209/2/6 206/2/6 210/2/6
f 207/2/6 208/2/6 211/2/6
f 211/2/6 208/2/6 212/2/6
