# MagicaVoxel @ ephtracy

# material
mtllib xcrossroadHydrants.mtl
usemtl palette

# normals
vn -1 0 0
vn 1 0 0
vn 0 0 1
vn 0 0 -1
vn 0 -1 0
vn 0 1 0

# texcoords
vt 0.947266 0.5
vt 0.978516 0.5
vt 0.982422 0.5
vt 0.986328 0.5
vt 0.990234 0.5

# verts
v -15 0 15
v -15 0 11
v -15 0 -11
v -15 0 -15
v -15 1 15
v -15 1 11
v -15 1 -11
v -15 1 -15
v -15 2 15
v -15 2 11
v -15 2 -11
v -15 2 -15
v -15 4 14
v -15 4 12
v -15 5 14
v -15 5 12
v -14 2 14
v -14 2 12
v -14 4 15
v -14 4 14
v -14 4 12
v -14 4 11
v -14 5 15
v -14 5 14
v -14 5 12
v -14 5 11
v -14 6 14
v -14 6 12
v 11 1 15
v 11 1 11
v 11 1 -11
v 11 1 -15
v 11 2 15
v 11 2 11
v 11 2 -11
v 11 2 -15
v 11 4 -12
v 11 4 -14
v 11 5 -12
v 11 5 -14
v 12 2 -12
v 12 2 -14
v 12 4 -11
v 12 4 -12
v 12 4 -14
v 12 4 -15
v 12 5 -11
v 12 5 -12
v 12 5 -14
v 12 5 -15
v 12 6 -12
v 12 6 -14
v -12 2 14
v -12 2 12
v -12 4 15
v -12 4 14
v -12 4 12
v -12 4 11
v -12 5 15
v -12 5 14
v -12 5 12
v -12 5 11
v -12 6 14
v -12 6 12
v -11 1 15
v -11 1 11
v -11 1 -11
v -11 1 -15
v -11 2 15
v -11 2 11
v -11 2 -11
v -11 2 -15
v -11 4 14
v -11 4 12
v -11 5 14
v -11 5 12
v 14 2 -12
v 14 2 -14
v 14 4 -11
v 14 4 -12
v 14 4 -14
v 14 4 -15
v 14 5 -11
v 14 5 -12
v 14 5 -14
v 14 5 -15
v 14 6 -12
v 14 6 -14
v 15 0 15
v 15 0 11
v 15 0 -11
v 15 0 -15
v 15 1 15
v 15 1 11
v 15 1 -11
v 15 1 -15
v 15 2 15
v 15 2 11
v 15 2 -11
v 15 2 -15
v 15 4 -12
v 15 4 -14
v 15 5 -12
v 15 5 -14
v -15 0 15
v -15 1 15
v -15 2 15
v -14 4 15
v -14 5 15
v -12 4 15
v -12 5 15
v -11 0 15
v -11 1 15
v -11 2 15
v 11 0 15
v 11 1 15
v 11 2 15
v 15 0 15
v 15 1 15
v 15 2 15
v -15 4 14
v -15 5 14
v -14 2 14
v -14 4 14
v -14 5 14
v -14 6 14
v -12 2 14
v -12 4 14
v -12 5 14
v -12 6 14
v -11 4 14
v -11 5 14
v -15 1 -11
v -15 2 -11
v -11 1 -11
v -11 2 -11
v 11 1 -11
v 11 2 -11
v 12 4 -11
v 12 5 -11
v 14 4 -11
v 14 5 -11
v 15 1 -11
v 15 2 -11
v 11 4 -12
v 11 5 -12
v 12 2 -12
v 12 4 -12
v 12 5 -12
v 12 6 -12
v 14 2 -12
v 14 4 -12
v 14 5 -12
v 14 6 -12
v 15 4 -12
v 15 5 -12
v -15 4 12
v -15 5 12
v -14 2 12
v -14 4 12
v -14 5 12
v -14 6 12
v -12 2 12
v -12 4 12
v -12 5 12
v -12 6 12
v -11 4 12
v -11 5 12
v -15 1 11
v -15 2 11
v -14 4 11
v -14 5 11
v -12 4 11
v -12 5 11
v -11 1 11
v -11 2 11
v 11 1 11
v 11 2 11
v 15 1 11
v 15 2 11
v 11 4 -14
v 11 5 -14
v 12 2 -14
v 12 4 -14
v 12 5 -14
v 12 6 -14
v 14 2 -14
v 14 4 -14
v 14 5 -14
v 14 6 -14
v 15 4 -14
v 15 5 -14
v -15 0 -15
v -15 1 -15
v -15 2 -15
v -11 0 -15
v -11 1 -15
v -11 2 -15
v 11 0 -15
v 11 1 -15
v 11 2 -15
v 12 4 -15
v 12 5 -15
v 14 4 -15
v 14 5 -15
v 15 0 -15
v 15 1 -15
v 15 2 -15
v -15 0 15
v -11 0 15
v 11 0 15
v 15 0 15
v -1 0 14
v 1 0 14
v -15 0 11
v -11 0 11
v -1 0 11
v 1 0 11
v 11 0 11
v 15 0 11
v -1 0 9
v 1 0 9
v -1 0 6
v 1 0 6
v -1 0 4
v 1 0 4
v -14 0 1
v -11 0 1
v -9 0 1
v -6 0 1
v -4 0 1
v -1 0 1
v 1 0 1
v 4 0 1
v 6 0 1
v 9 0 1
v 11 0 1
v 14 0 1
v -14 0 -1
v -11 0 -1
v -9 0 -1
v -6 0 -1
v -4 0 -1
v -1 0 -1
v 1 0 -1
v 4 0 -1
v 6 0 -1
v 9 0 -1
v 11 0 -1
v 14 0 -1
v -1 0 -4
v 1 0 -4
v -1 0 -6
v 1 0 -6
v -1 0 -9
v 1 0 -9
v -15 0 -11
v -11 0 -11
v -1 0 -11
v 1 0 -11
v 11 0 -11
v 15 0 -11
v -1 0 -14
v 1 0 -14
v -15 0 -15
v -11 0 -15
v 11 0 -15
v 15 0 -15
v -14 4 15
v -12 4 15
v -15 4 14
v -14 4 14
v -12 4 14
v -11 4 14
v -15 4 12
v -14 4 12
v -12 4 12
v -11 4 12
v -14 4 11
v -12 4 11
v 12 4 -11
v 14 4 -11
v 11 4 -12
v 12 4 -12
v 14 4 -12
v 15 4 -12
v 11 4 -14
v 12 4 -14
v 14 4 -14
v 15 4 -14
v 12 4 -15
v 14 4 -15
v -11 1 15
v 11 1 15
v -1 1 14
v 1 1 14
v -15 1 11
v -11 1 11
v -1 1 11
v 1 1 11
v 11 1 11
v 15 1 11
v -1 1 9
v 1 1 9
v -1 1 6
v 1 1 6
v -1 1 4
v 1 1 4
v -14 1 1
v -11 1 1
v -9 1 1
v -6 1 1
v -4 1 1
v -1 1 1
v 1 1 1
v 4 1 1
v 6 1 1
v 9 1 1
v 11 1 1
v 14 1 1
v -14 1 -1
v -11 1 -1
v -9 1 -1
v -6 1 -1
v -4 1 -1
v -1 1 -1
v 1 1 -1
v 4 1 -1
v 6 1 -1
v 9 1 -1
v 11 1 -1
v 14 1 -1
v -1 1 -4
v 1 1 -4
v -1 1 -6
v 1 1 -6
v -1 1 -9
v 1 1 -9
v -15 1 -11
v -11 1 -11
v -1 1 -11
v 1 1 -11
v 11 1 -11
v 15 1 -11
v -1 1 -14
v 1 1 -14
v -11 1 -15
v 11 1 -15
v -15 2 15
v -11 2 15
v 11 2 15
v 15 2 15
v -14 2 14
v -12 2 14
v -14 2 12
v -12 2 12
v -15 2 11
v -11 2 11
v 11 2 11
v 15 2 11
v -15 2 -11
v -11 2 -11
v 11 2 -11
v 15 2 -11
v 12 2 -12
v 14 2 -12
v 12 2 -14
v 14 2 -14
v -15 2 -15
v -11 2 -15
v 11 2 -15
v 15 2 -15
v -14 5 15
v -12 5 15
v -15 5 14
v -14 5 14
v -12 5 14
v -11 5 14
v -15 5 12
v -14 5 12
v -12 5 12
v -11 5 12
v -14 5 11
v -12 5 11
v 12 5 -11
v 14 5 -11
v 11 5 -12
v 12 5 -12
v 14 5 -12
v 15 5 -12
v 11 5 -14
v 12 5 -14
v 14 5 -14
v 15 5 -14
v 12 5 -15
v 14 5 -15
v -14 6 14
v -12 6 14
v -14 6 12
v -12 6 12
v 12 6 -12
v 14 6 -12
v 12 6 -14
v 14 6 -14

# faces
f 5/5/1 2/5/1 1/5/1
f 6/2/1 3/2/1 2/2/1
f 6/5/1 2/5/1 5/5/1
f 7/5/1 4/5/1 3/5/1
f 7/2/1 3/2/1 6/2/1
f 8/5/1 4/5/1 7/5/1
f 9/3/1 6/3/1 5/3/1
f 10/3/1 6/3/1 9/3/1
f 11/3/1 8/3/1 7/3/1
f 12/3/1 8/3/1 11/3/1
f 15/1/1 14/1/1 13/1/1
f 16/1/1 14/1/1 15/1/1
f 20/1/1 18/1/1 17/1/1
f 21/1/1 18/1/1 20/1/1
f 23/1/1 20/1/1 19/1/1
f 24/1/1 20/1/1 23/1/1
f 25/1/1 22/1/1 21/1/1
f 26/1/1 22/1/1 25/1/1
f 27/1/1 25/1/1 24/1/1
f 28/1/1 25/1/1 27/1/1
f 33/3/1 30/3/1 29/3/1
f 34/3/1 30/3/1 33/3/1
f 35/3/1 32/3/1 31/3/1
f 36/3/1 32/3/1 35/3/1
f 39/1/1 38/1/1 37/1/1
f 40/1/1 38/1/1 39/1/1
f 44/1/1 42/1/1 41/1/1
f 45/1/1 42/1/1 44/1/1
f 47/1/1 44/1/1 43/1/1
f 48/1/1 44/1/1 47/1/1
f 49/1/1 46/1/1 45/1/1
f 50/1/1 46/1/1 49/1/1
f 51/1/1 49/1/1 48/1/1
f 52/1/1 49/1/1 51/1/1
f 53/1/2 54/1/2 56/1/2
f 56/1/2 54/1/2 57/1/2
f 55/1/2 56/1/2 59/1/2
f 59/1/2 56/1/2 60/1/2
f 57/1/2 58/1/2 61/1/2
f 61/1/2 58/1/2 62/1/2
f 60/1/2 61/1/2 63/1/2
f 63/1/2 61/1/2 64/1/2
f 65/3/2 66/3/2 69/3/2
f 69/3/2 66/3/2 70/3/2
f 67/3/2 68/3/2 71/3/2
f 71/3/2 68/3/2 72/3/2
f 73/1/2 74/1/2 75/1/2
f 75/1/2 74/1/2 76/1/2
f 77/1/2 78/1/2 80/1/2
f 80/1/2 78/1/2 81/1/2
f 79/1/2 80/1/2 83/1/2
f 83/1/2 80/1/2 84/1/2
f 81/1/2 82/1/2 85/1/2
f 85/1/2 82/1/2 86/1/2
f 84/1/2 85/1/2 87/1/2
f 87/1/2 85/1/2 88/1/2
f 89/5/2 90/5/2 93/5/2
f 90/2/2 91/2/2 94/2/2
f 93/5/2 90/5/2 94/5/2
f 91/5/2 92/5/2 95/5/2
f 94/2/2 91/2/2 95/2/2
f 95/5/2 92/5/2 96/5/2
f 93/3/2 94/3/2 97/3/2
f 97/3/2 94/3/2 98/3/2
f 95/3/2 96/3/2 99/3/2
f 99/3/2 96/3/2 100/3/2
f 101/1/2 102/1/2 103/1/2
f 103/1/2 102/1/2 104/1/2
f 110/1/3 109/1/3 108/1/3
f 111/1/3 109/1/3 110/1/3
f 112/5/3 106/5/3 105/5/3
f 113/3/3 107/3/3 106/3/3
f 113/5/3 106/5/3 112/5/3
f 114/3/3 107/3/3 113/3/3
f 115/2/3 113/2/3 112/2/3
f 116/2/3 113/2/3 115/2/3
f 118/5/3 116/5/3 115/5/3
f 119/3/3 117/3/3 116/3/3
f 119/5/3 116/5/3 118/5/3
f 120/3/3 117/3/3 119/3/3
f 124/1/3 122/1/3 121/1/3
f 125/1/3 122/1/3 124/1/3
f 127/1/3 124/1/3 123/1/3
f 128/1/3 124/1/3 127/1/3
f 129/1/3 126/1/3 125/1/3
f 130/1/3 126/1/3 129/1/3
f 131/1/3 129/1/3 128/1/3
f 132/1/3 129/1/3 131/1/3
f 135/3/3 134/3/3 133/3/3
f 136/3/3 134/3/3 135/3/3
f 141/1/3 140/1/3 139/1/3
f 142/1/3 140/1/3 141/1/3
f 143/3/3 138/3/3 137/3/3
f 144/3/3 138/3/3 143/3/3
f 148/1/3 146/1/3 145/1/3
f 149/1/3 146/1/3 148/1/3
f 151/1/3 148/1/3 147/1/3
f 152/1/3 148/1/3 151/1/3
f 153/1/3 150/1/3 149/1/3
f 154/1/3 150/1/3 153/1/3
f 155/1/3 153/1/3 152/1/3
f 156/1/3 153/1/3 155/1/3
f 157/1/4 158/1/4 160/1/4
f 160/1/4 158/1/4 161/1/4
f 159/1/4 160/1/4 163/1/4
f 163/1/4 160/1/4 164/1/4
f 161/1/4 162/1/4 165/1/4
f 165/1/4 162/1/4 166/1/4
f 164/1/4 165/1/4 167/1/4
f 167/1/4 165/1/4 168/1/4
f 171/1/4 172/1/4 173/1/4
f 173/1/4 172/1/4 174/1/4
f 169/3/4 170/3/4 175/3/4
f 175/3/4 170/3/4 176/3/4
f 177/3/4 178/3/4 179/3/4
f 179/3/4 178/3/4 180/3/4
f 181/1/4 182/1/4 184/1/4
f 184/1/4 182/1/4 185/1/4
f 183/1/4 184/1/4 187/1/4
f 187/1/4 184/1/4 188/1/4
f 185/1/4 186/1/4 189/1/4
f 189/1/4 186/1/4 190/1/4
f 188/1/4 189/1/4 191/1/4
f 191/1/4 189/1/4 192/1/4
f 193/5/4 194/5/4 196/5/4
f 194/3/4 195/3/4 197/3/4
f 196/5/4 194/5/4 197/5/4
f 197/3/4 195/3/4 198/3/4
f 196/2/4 197/2/4 199/2/4
f 199/2/4 197/2/4 200/2/4
f 202/1/4 203/1/4 204/1/4
f 204/1/4 203/1/4 205/1/4
f 199/5/4 200/5/4 206/5/4
f 200/3/4 201/3/4 207/3/4
f 206/5/4 200/5/4 207/5/4
f 207/3/4 201/3/4 208/3/4
f 213/2/5 211/2/5 210/2/5
f 214/2/5 211/2/5 213/2/5
f 215/5/5 210/5/5 209/5/5
f 216/2/5 213/2/5 210/2/5
f 216/5/5 210/5/5 215/5/5
f 217/4/5 214/4/5 213/4/5
f 217/2/5 213/2/5 216/2/5
f 218/2/5 211/2/5 214/2/5
f 218/4/5 214/4/5 217/4/5
f 219/5/5 212/5/5 211/5/5
f 219/2/5 211/2/5 218/2/5
f 220/5/5 212/5/5 219/5/5
f 221/2/5 217/2/5 216/2/5
f 221/2/5 218/2/5 217/2/5
f 221/2/5 220/2/5 219/2/5
f 221/2/5 219/2/5 218/2/5
f 221/2/5 216/2/5 215/2/5
f 222/2/5 220/2/5 221/2/5
f 223/2/5 221/2/5 215/2/5
f 223/4/5 222/4/5 221/4/5
f 224/2/5 220/2/5 222/2/5
f 224/4/5 222/4/5 223/4/5
f 225/2/5 223/2/5 215/2/5
f 225/2/5 224/2/5 223/2/5
f 226/2/5 220/2/5 224/2/5
f 226/2/5 224/2/5 225/2/5
f 227/2/5 225/2/5 215/2/5
f 228/2/5 225/2/5 227/2/5
f 229/2/5 225/2/5 228/2/5
f 230/2/5 225/2/5 229/2/5
f 231/2/5 225/2/5 230/2/5
f 232/4/5 226/4/5 225/4/5
f 232/2/5 225/2/5 231/2/5
f 233/2/5 220/2/5 226/2/5
f 233/4/5 226/4/5 232/4/5
f 234/2/5 220/2/5 233/2/5
f 235/2/5 220/2/5 234/2/5
f 236/2/5 220/2/5 235/2/5
f 237/2/5 220/2/5 236/2/5
f 238/2/5 220/2/5 237/2/5
f 239/2/5 227/2/5 215/2/5
f 239/4/5 228/4/5 227/4/5
f 240/2/5 229/2/5 228/2/5
f 240/4/5 228/4/5 239/4/5
f 241/4/5 230/4/5 229/4/5
f 241/2/5 229/2/5 240/2/5
f 242/2/5 231/2/5 230/2/5
f 242/4/5 230/4/5 241/4/5
f 243/4/5 232/4/5 231/4/5
f 243/2/5 231/2/5 242/2/5
f 243/4/5 233/4/5 232/4/5
f 243/4/5 234/4/5 233/4/5
f 244/4/5 234/4/5 243/4/5
f 245/4/5 234/4/5 244/4/5
f 246/2/5 235/2/5 234/2/5
f 246/4/5 234/4/5 245/4/5
f 247/4/5 236/4/5 235/4/5
f 247/2/5 235/2/5 246/2/5
f 248/2/5 237/2/5 236/2/5
f 248/4/5 236/4/5 247/4/5
f 249/4/5 238/4/5 237/4/5
f 249/2/5 237/2/5 248/2/5
f 250/2/5 220/2/5 238/2/5
f 250/4/5 238/4/5 249/4/5
f 251/2/5 242/2/5 241/2/5
f 251/2/5 241/2/5 240/2/5
f 251/2/5 240/2/5 239/2/5
f 251/2/5 244/2/5 243/2/5
f 251/2/5 243/2/5 242/2/5
f 251/4/5 245/4/5 244/4/5
f 252/2/5 250/2/5 249/2/5
f 252/4/5 245/4/5 251/4/5
f 252/2/5 249/2/5 248/2/5
f 252/2/5 247/2/5 246/2/5
f 252/2/5 246/2/5 245/2/5
f 252/2/5 248/2/5 247/2/5
f 253/2/5 251/2/5 239/2/5
f 253/2/5 252/2/5 251/2/5
f 254/2/5 250/2/5 252/2/5
f 254/2/5 252/2/5 253/2/5
f 255/2/5 253/2/5 239/2/5
f 255/4/5 254/4/5 253/4/5
f 256/2/5 250/2/5 254/2/5
f 256/4/5 254/4/5 255/4/5
f 257/2/5 255/2/5 239/2/5
f 257/2/5 239/2/5 215/2/5
f 257/2/5 256/2/5 255/2/5
f 258/2/5 256/2/5 257/2/5
f 259/2/5 256/2/5 258/2/5
f 260/2/5 250/2/5 256/2/5
f 260/2/5 256/2/5 259/2/5
f 261/2/5 250/2/5 260/2/5
f 262/2/5 220/2/5 250/2/5
f 262/2/5 250/2/5 261/2/5
f 263/2/5 259/2/5 258/2/5
f 263/4/5 260/4/5 259/4/5
f 264/2/5 261/2/5 260/2/5
f 264/4/5 260/4/5 263/4/5
f 265/5/5 258/5/5 257/5/5
f 266/2/5 263/2/5 258/2/5
f 266/5/5 258/5/5 265/5/5
f 266/2/5 264/2/5 263/2/5
f 267/2/5 261/2/5 264/2/5
f 267/2/5 264/2/5 266/2/5
f 267/5/5 262/5/5 261/5/5
f 268/5/5 262/5/5 267/5/5
f 272/1/5 270/1/5 269/1/5
f 273/1/5 270/1/5 272/1/5
f 275/1/5 272/1/5 271/1/5
f 276/1/5 272/1/5 275/1/5
f 277/1/5 274/1/5 273/1/5
f 278/1/5 274/1/5 277/1/5
f 279/1/5 277/1/5 276/1/5
f 280/1/5 277/1/5 279/1/5
f 284/1/5 282/1/5 281/1/5
f 285/1/5 282/1/5 284/1/5
f 287/1/5 284/1/5 283/1/5
f 288/1/5 284/1/5 287/1/5
f 289/1/5 286/1/5 285/1/5
f 290/1/5 286/1/5 289/1/5
f 291/1/5 289/1/5 288/1/5
f 292/1/5 289/1/5 291/1/5
f 293/2/6 294/2/6 295/2/6
f 295/2/6 294/2/6 296/2/6
f 293/2/6 295/2/6 298/2/6
f 295/4/6 296/4/6 299/4/6
f 298/2/6 295/2/6 299/2/6
f 296/2/6 294/2/6 300/2/6
f 299/4/6 296/4/6 300/4/6
f 300/2/6 294/2/6 301/2/6
f 298/2/6 299/2/6 303/2/6
f 301/2/6 302/2/6 303/2/6
f 300/2/6 301/2/6 303/2/6
f 299/2/6 300/2/6 303/2/6
f 297/2/6 298/2/6 303/2/6
f 303/2/6 302/2/6 304/2/6
f 297/2/6 303/2/6 305/2/6
f 303/4/6 304/4/6 305/4/6
f 304/2/6 302/2/6 306/2/6
f 305/4/6 304/4/6 306/4/6
f 297/2/6 305/2/6 307/2/6
f 305/2/6 306/2/6 307/2/6
f 306/2/6 302/2/6 308/2/6
f 307/2/6 306/2/6 308/2/6
f 297/2/6 307/2/6 309/2/6
f 309/2/6 307/2/6 310/2/6
f 310/2/6 307/2/6 311/2/6
f 311/2/6 307/2/6 312/2/6
f 312/2/6 307/2/6 313/2/6
f 307/4/6 308/4/6 314/4/6
f 313/2/6 307/2/6 314/2/6
f 308/2/6 302/2/6 315/2/6
f 314/4/6 308/4/6 315/4/6
f 315/2/6 302/2/6 316/2/6
f 316/2/6 302/2/6 317/2/6
f 317/2/6 302/2/6 318/2/6
f 318/2/6 302/2/6 319/2/6
f 319/2/6 302/2/6 320/2/6
f 297/2/6 309/2/6 321/2/6
f 309/4/6 310/4/6 321/4/6
f 310/2/6 311/2/6 322/2/6
f 321/4/6 310/4/6 322/4/6
f 311/4/6 312/4/6 323/4/6
f 322/2/6 311/2/6 323/2/6
f 312/2/6 313/2/6 324/2/6
f 323/4/6 312/4/6 324/4/6
f 313/4/6 314/4/6 325/4/6
f 324/2/6 313/2/6 325/2/6
f 314/4/6 315/4/6 325/4/6
f 315/4/6 316/4/6 325/4/6
f 325/4/6 316/4/6 326/4/6
f 326/4/6 316/4/6 327/4/6
f 316/2/6 317/2/6 328/2/6
f 327/4/6 316/4/6 328/4/6
f 317/4/6 318/4/6 329/4/6
f 328/2/6 317/2/6 329/2/6
f 318/2/6 319/2/6 330/2/6
f 329/4/6 318/4/6 330/4/6
f 319/4/6 320/4/6 331/4/6
f 330/2/6 319/2/6 331/2/6
f 320/2/6 302/2/6 332/2/6
f 331/4/6 320/4/6 332/4/6
f 323/2/6 324/2/6 333/2/6
f 322/2/6 323/2/6 333/2/6
f 321/2/6 322/2/6 333/2/6
f 325/2/6 326/2/6 333/2/6
f 324/2/6 325/2/6 333/2/6
f 326/4/6 327/4/6 333/4/6
f 331/2/6 332/2/6 334/2/6
f 333/4/6 327/4/6 334/4/6
f 330/2/6 331/2/6 334/2/6
f 328/2/6 329/2/6 334/2/6
f 327/2/6 328/2/6 334/2/6
f 329/2/6 330/2/6 334/2/6
f 321/2/6 333/2/6 335/2/6
f 333/2/6 334/2/6 335/2/6
f 334/2/6 332/2/6 336/2/6
f 335/2/6 334/2/6 336/2/6
f 321/2/6 335/2/6 337/2/6
f 335/4/6 336/4/6 337/4/6
f 336/2/6 332/2/6 338/2/6
f 337/4/6 336/4/6 338/4/6
f 321/2/6 337/2/6 339/2/6
f 297/2/6 321/2/6 339/2/6
f 337/2/6 338/2/6 339/2/6
f 339/2/6 338/2/6 340/2/6
f 340/2/6 338/2/6 341/2/6
f 338/2/6 332/2/6 342/2/6
f 341/2/6 338/2/6 342/2/6
f 342/2/6 332/2/6 343/2/6
f 332/2/6 302/2/6 344/2/6
f 343/2/6 332/2/6 344/2/6
f 340/2/6 341/2/6 345/2/6
f 341/4/6 342/4/6 345/4/6
f 342/2/6 343/2/6 346/2/6
f 345/4/6 342/4/6 346/4/6
f 340/2/6 345/2/6 347/2/6
f 345/2/6 346/2/6 347/2/6
f 346/2/6 343/2/6 348/2/6
f 347/2/6 346/2/6 348/2/6
f 349/3/6 350/3/6 353/3/6
f 353/3/6 350/3/6 354/3/6
f 349/3/6 353/3/6 355/3/6
f 354/3/6 350/3/6 356/3/6
f 349/3/6 355/3/6 357/3/6
f 355/3/6 356/3/6 357/3/6
f 356/3/6 350/3/6 358/3/6
f 357/3/6 356/3/6 358/3/6
f 351/3/6 352/3/6 359/3/6
f 359/3/6 352/3/6 360/3/6
f 363/3/6 364/3/6 365/3/6
f 365/3/6 364/3/6 366/3/6
f 363/3/6 365/3/6 367/3/6
f 366/3/6 364/3/6 368/3/6
f 361/3/6 362/3/6 369/3/6
f 369/3/6 362/3/6 370/3/6
f 367/3/6 368/3/6 371/3/6
f 363/3/6 367/3/6 371/3/6
f 368/3/6 364/3/6 372/3/6
f 371/3/6 368/3/6 372/3/6
f 373/1/6 374/1/6 376/1/6
f 376/1/6 374/1/6 377/1/6
f 375/1/6 376/1/6 379/1/6
f 379/1/6 376/1/6 380/1/6
f 377/1/6 378/1/6 381/1/6
f 381/1/6 378/1/6 382/1/6
f 380/1/6 381/1/6 383/1/6
f 383/1/6 381/1/6 384/1/6
f 385/1/6 386/1/6 388/1/6
f 388/1/6 386/1/6 389/1/6
f 387/1/6 388/1/6 391/1/6
f 391/1/6 388/1/6 392/1/6
f 389/1/6 390/1/6 393/1/6
f 393/1/6 390/1/6 394/1/6
f 392/1/6 393/1/6 395/1/6
f 395/1/6 393/1/6 396/1/6
f 397/1/6 398/1/6 399/1/6
f 399/1/6 398/1/6 400/1/6
f 401/1/6 402/1/6 403/1/6
f 403/1/6 402/1/6 404/1/6
